{"glyphs":{"0":{"ha":1161,"x_min":85,"x_max":1033,"o":"m 561 23 q 668 44 617 23 q 759 99 719 65 l 363 99 q 453 44 403 65 q 561 23 503 23 m 397 131 l 788 131 q 837 217 819 169 q 854 319 854 266 q 836 424 854 375 q 780 520 818 472 l 397 131 m 561 679 q 423 651 488 679 q 309 575 359 623 q 231 461 260 527 q 202 319 202 396 q 230 184 202 248 q 305 70 257 119 q 418 -8 352 21 q 561 -37 484 -37 q 609 -33 585 -37 q 656 -23 634 -30 q 758 24 710 -7 q 841 100 806 56 q 897 200 877 144 q 918 319 918 255 q 891 454 918 390 q 816 569 864 519 q 703 649 769 619 q 561 679 637 679 m 561 -10 q 431 17 491 -10 q 327 89 372 43 q 258 194 283 134 q 234 319 234 253 q 258 444 234 385 q 326 549 282 503 q 430 621 370 595 q 561 648 490 648 q 647 636 607 648 q 740 595 696 623 q 817 525 784 566 q 869 432 850 484 q 888 319 888 380 q 862 191 888 252 q 792 86 837 131 q 688 16 747 42 q 561 -10 628 -10 m 332 507 q 283 422 300 469 q 265 319 265 375 q 284 212 265 262 q 339 121 304 161 l 724 507 l 332 507 m 561 616 q 452 596 503 616 q 362 540 402 576 l 755 540 q 667 595 717 575 q 561 616 617 616 m 665 -57 l 602 -69 l 605 -87 l 628 -82 l 640 -144 l 658 -141 l 647 -79 l 668 -75 l 665 -57 m 734 -82 q 728 -76 734 -77 l 720 -72 l 710 -72 l 706 -72 l 700 -72 l 698 -72 l 698 -71 q 696 -69 696 -69 l 694 -68 q 696 -65 696 -68 q 696 -64 696 -64 l 698 -64 q 701 -64 698 -64 l 701 -62 l 702 -62 l 706 -62 l 707 -62 q 710 -61 710 -62 q 716 -61 714 -61 q 717 -58 716 -59 q 717 -57 717 -57 l 720 -50 l 716 -48 q 707 -45 710 -45 q 705 -44 707 -45 q 701 -43 703 -43 q 697 -44 699 -43 q 694 -45 696 -45 l 686 -50 q 683 -53 684 -51 q 681 -57 681 -55 q 675 -68 675 -62 q 675 -71 675 -69 q 677 -76 675 -73 q 684 -85 679 -82 q 687 -86 685 -85 q 689 -89 688 -88 q 694 -89 692 -89 q 698 -90 696 -90 l 707 -90 l 714 -90 l 714 -90 q 717 -92 716 -90 q 720 -93 720 -92 l 721 -93 l 721 -96 q 721 -99 721 -98 q 720 -100 720 -99 l 720 -101 q 719 -102 720 -101 q 717 -104 718 -104 q 714 -106 716 -106 q 712 -106 714 -106 q 710 -106 710 -106 q 707 -106 708 -106 q 706 -106 707 -106 l 701 -106 l 696 -106 l 693 -107 q 693 -108 693 -107 q 692 -109 693 -109 l 688 -115 q 691 -118 689 -117 q 693 -122 692 -120 q 697 -123 695 -122 q 702 -123 700 -123 q 710 -125 707 -126 q 715 -124 713 -125 q 720 -123 718 -123 q 725 -121 723 -122 q 731 -118 727 -120 q 734 -114 734 -115 q 738 -109 735 -113 q 740 -104 738 -106 q 741 -99 741 -102 q 741 -93 741 -95 q 738 -89 740 -91 q 734 -82 738 -83 m 769 -85 q 766 -82 768 -82 q 764 -82 766 -82 q 762 -82 763 -82 q 758 -82 761 -82 l 753 -85 q 752 -88 752 -86 l 752 -89 q 751 -92 751 -90 l 751 -93 q 752 -95 751 -95 q 752 -96 752 -96 q 754 -101 752 -101 q 759 -104 755 -104 l 763 -104 q 768 -102 766 -104 q 770 -101 769 -102 q 772 -99 772 -101 l 772 -98 q 773 -96 772 -96 q 775 -95 775 -95 l 775 -93 q 772 -89 775 -89 q 769 -85 769 -85 m 577 -122 q 576 -119 576 -122 q 576 -118 576 -118 q 575 -117 575 -118 q 574 -115 575 -115 l 545 -73 q 543 -71 545 -72 q 537 -69 543 -69 l 531 -69 l 522 -69 l 523 -152 l 543 -151 l 543 -96 l 578 -151 l 595 -151 l 595 -69 l 575 -69 l 577 -122 m 405 -59 l 439 -71 l 444 -54 l 394 -36 l 365 -109 l 384 -117 l 394 -89 l 420 -99 l 427 -82 l 401 -71 l 405 -59 m 509 -79 l 503 -71 q 498 -68 501 -69 q 493 -65 496 -67 q 488 -64 490 -64 q 483 -62 486 -63 q 477 -61 479 -61 q 471 -61 474 -61 q 462 -64 464 -61 q 457 -65 459 -64 q 451 -68 454 -66 l 444 -75 q 437 -82 441 -81 q 434 -89 436 -86 q 433 -93 433 -91 l 433 -106 l 436 -116 l 439 -125 l 447 -133 q 452 -136 450 -135 q 457 -139 455 -137 q 467 -141 461 -141 q 473 -142 470 -142 q 477 -142 475 -142 q 487 -141 481 -142 q 493 -139 490 -140 q 497 -136 496 -138 q 505 -129 502 -135 l 511 -122 q 516 -109 514 -116 l 516 -99 q 515 -95 516 -97 q 513 -89 515 -92 q 511 -83 512 -85 q 509 -79 510 -82 m 497 -106 q 496 -111 497 -109 q 493 -115 495 -113 q 490 -118 491 -117 q 487 -122 489 -120 q 483 -123 484 -122 q 478 -123 481 -123 q 470 -123 474 -126 q 466 -123 468 -123 q 462 -122 464 -122 l 457 -115 q 454 -111 455 -113 q 454 -106 454 -109 q 454 -96 452 -102 q 457 -89 454 -92 l 462 -82 l 470 -79 l 478 -79 l 487 -82 l 493 -89 q 496 -92 495 -91 q 497 -96 497 -94 q 497 -106 498 -102 m 898 129 q 897 126 898 128 q 896 122 896 125 q 897 119 896 121 q 898 116 898 118 l 926 76 l 878 83 l 872 83 l 865 79 l 859 68 l 926 23 l 938 38 l 905 61 l 947 52 l 955 66 l 932 101 l 964 80 l 975 96 l 907 141 l 898 129 m 890 41 l 880 50 l 870 52 q 859 54 867 54 q 855 54 857 54 q 849 52 852 54 l 840 50 q 835 46 838 48 q 830 41 832 43 q 827 37 828 39 q 825 33 826 35 q 822 28 822 30 q 819 23 821 26 q 819 18 819 20 q 818 12 818 16 q 818 8 818 10 q 819 2 818 5 l 822 -8 l 829 -16 l 839 -23 q 844 -25 842 -23 q 849 -27 845 -27 q 855 -28 852 -27 q 859 -30 857 -30 q 864 -28 861 -30 q 870 -27 866 -27 q 874 -25 872 -27 q 879 -23 877 -23 q 888 -16 884 -21 l 895 -8 q 897 -4 896 -6 q 898 2 898 -2 q 899 12 899 5 l 899 23 l 895 31 q 892 37 894 34 q 890 41 890 41 m 880 4 q 875 -3 878 -2 q 868 -9 870 -8 q 864 -10 866 -10 q 859 -10 861 -10 q 855 -9 857 -10 q 852 -9 852 -9 l 844 -3 q 839 5 841 0 q 839 12 839 8 q 839 20 839 18 q 844 29 841 26 l 852 34 q 855 34 853 34 q 859 35 858 35 q 868 33 863 35 q 872 31 870 32 q 875 27 873 30 q 878 24 877 26 q 880 20 879 23 q 882 12 882 18 q 881 7 882 10 q 880 4 880 4 m 829 -37 l 825 -40 q 822 -42 823 -40 q 821 -45 821 -43 l 818 -51 l 812 -56 q 808 -58 809 -57 q 804 -59 806 -59 q 795 -59 799 -61 q 792 -57 793 -57 q 787 -56 790 -57 q 783 -48 783 -53 q 780 -40 780 -47 q 780 -30 776 -38 q 780 -28 780 -30 q 780 -23 780 -26 q 783 -20 782 -22 q 786 -18 785 -19 q 793 -16 792 -16 q 800 -15 795 -15 q 807 -12 801 -15 q 811 -9 808 -10 l 812 -4 l 812 2 q 804 5 810 5 l 794 5 l 785 2 l 777 -2 q 773 -5 776 -3 q 769 -10 771 -7 q 766 -13 767 -11 q 763 -19 765 -16 l 759 -30 l 759 -40 q 760 -45 759 -43 q 761 -50 761 -47 l 766 -61 q 770 -65 767 -63 q 773 -68 772 -66 l 783 -75 l 791 -76 q 802 -78 794 -78 q 807 -77 805 -78 q 812 -76 809 -76 q 818 -73 815 -75 q 822 -69 820 -71 q 826 -68 824 -69 q 829 -64 828 -67 q 833 -62 832 -64 q 836 -57 834 -60 l 839 -48 q 842 -39 842 -45 l 833 -37 l 829 -37 m 350 -10 l 280 -61 l 290 -68 q 292 -68 290 -68 q 293 -68 293 -68 q 296 -68 295 -68 q 297 -68 296 -69 l 300 -68 q 304 -68 303 -68 l 311 -61 l 339 -76 l 337 -87 l 337 -90 q 338 -92 337 -92 q 339 -93 338 -93 l 339 -95 q 339 -96 339 -96 l 342 -99 l 353 -106 l 365 -19 l 350 -10 m 342 -39 l 342 -40 l 342 -43 l 341 -57 l 328 -50 l 339 -40 l 341 -40 q 342 -40 342 -40 l 342 -39 l 342 -38 l 343 -38 q 345 -37 344 -37 l 342 -39 m 321 -13 l 333 1 l 286 42 l 272 27 l 290 12 l 250 -34 l 264 -47 l 306 2 l 321 -13 m 168 95 l 226 89 q 230 89 227 89 q 231 89 231 89 q 234 89 232 89 l 241 95 l 210 148 l 194 139 l 212 109 l 155 115 q 151 114 154 115 q 146 112 148 114 l 139 109 l 170 54 l 186 64 l 168 95 m 238 20 l 253 33 l 234 54 l 244 62 l 266 35 l 280 47 l 246 89 l 183 36 l 219 -4 l 232 9 l 210 34 l 221 42 l 238 20 m 122 325 l 157 327 q 160 324 158 326 q 162 321 161 323 q 165 318 164 320 q 166 314 166 316 q 168 306 167 310 q 169 302 168 304 q 169 299 169 300 q 169 289 169 293 q 167 281 168 285 q 164 273 166 276 q 159 266 161 269 q 146 257 155 260 q 130 252 138 252 l 118 252 q 113 254 115 253 q 108 257 110 255 q 103 259 105 258 q 99 262 102 260 q 95 266 97 264 q 92 271 93 268 q 89 275 90 273 q 87 280 89 277 q 86 286 86 283 q 85 293 85 289 q 85 297 85 294 q 85 300 85 299 q 87 310 87 306 q 89 313 89 312 q 92 318 90 315 q 94 321 93 319 q 96 325 95 323 l 99 321 q 102 320 101 321 q 102 319 102 319 q 103 314 103 318 q 103 312 103 313 q 102 310 103 311 q 99 302 99 306 q 99 293 99 299 q 101 281 99 287 q 104 276 102 279 q 108 273 106 274 q 117 267 111 269 q 129 266 122 265 q 137 267 134 266 q 140 269 139 268 q 143 271 141 269 q 146 273 144 273 q 149 276 148 273 q 151 278 150 277 q 154 281 152 280 q 154 286 154 284 q 155 290 155 287 q 156 297 156 293 q 155 302 155 299 q 154 307 155 304 q 150 314 154 309 l 137 313 l 137 310 l 137 306 q 135 303 137 305 q 134 301 135 302 q 133 300 134 300 q 128 299 131 299 l 124 299 l 122 325 m 173 387 l 167 335 l 85 343 l 90 395 l 103 394 l 99 356 l 120 352 l 123 385 l 137 384 l 134 352 l 155 350 l 159 390 l 173 387 m 103 401 l 92 405 l 107 467 l 120 464 l 113 438 l 181 422 l 178 409 l 110 425 l 103 401 m 132 496 l 120 502 l 148 559 l 160 554 l 149 531 l 211 500 l 206 488 l 143 519 l 132 496 m 262 578 l 254 567 l 227 588 l 202 555 l 231 534 l 223 523 l 155 572 l 163 582 l 191 563 l 215 595 l 188 616 l 195 627 l 262 578 m 306 620 l 269 584 l 211 644 l 248 681 l 258 670 l 231 643 l 245 628 l 267 650 l 276 641 l 254 620 l 269 603 l 297 630 l 306 620 m 346 706 l 353 694 l 326 677 l 343 648 l 333 641 l 290 710 l 333 738 l 339 727 l 307 707 l 319 688 l 346 706 m 380 706 q 384 699 380 701 q 391 694 385 696 q 394 693 391 693 q 398 693 396 693 q 405 694 401 693 q 411 699 410 696 q 416 706 415 702 q 417 713 417 707 q 416 720 417 717 l 398 766 l 409 773 l 429 725 q 430 719 430 721 q 431 713 431 716 q 429 700 431 706 q 425 694 427 696 q 420 689 424 692 q 416 684 418 686 q 411 682 414 683 q 404 680 407 681 q 398 679 401 679 q 385 682 391 679 q 379 684 381 683 q 374 689 377 686 q 367 700 370 694 l 346 746 l 359 752 l 380 706 m 450 696 l 429 777 l 443 780 l 458 714 l 492 720 l 495 707 l 450 696 m 497 707 l 489 790 l 503 791 l 510 723 l 545 727 l 545 713 l 497 707 m 589 710 l 576 713 l 585 794 l 615 791 q 625 788 620 791 q 633 781 631 785 q 637 773 635 780 q 639 762 640 767 q 637 757 637 760 q 635 752 637 755 q 629 744 631 746 q 620 739 627 741 q 610 738 617 738 l 593 740 l 589 710 m 611 752 l 616 752 q 621 755 618 752 q 623 759 623 755 q 626 764 624 760 q 625 769 626 767 q 624 771 624 770 q 623 773 623 773 q 621 775 622 774 q 619 776 620 776 q 616 777 617 777 q 615 778 615 777 l 597 780 l 594 753 l 611 752 m 650 702 l 637 706 l 658 784 l 688 776 q 696 773 693 776 q 703 766 700 769 q 706 756 706 762 q 706 750 707 753 q 706 746 706 748 q 702 739 704 742 q 698 734 700 735 q 691 731 693 731 q 688 729 689 729 q 685 727 686 728 l 700 688 l 689 689 q 687 691 688 690 q 685 693 686 693 q 681 699 682 694 l 668 731 l 658 734 l 650 702 m 668 767 l 661 746 l 679 741 q 681 741 680 741 q 682 741 681 741 q 685 742 684 741 q 688 742 686 742 q 689 743 689 742 q 689 745 689 745 q 693 749 693 748 q 693 754 693 752 q 693 757 693 755 q 692 759 693 758 q 690 760 691 760 q 689 762 689 760 q 685 764 687 764 l 668 767 m 710 727 q 712 733 710 731 q 716 738 714 735 q 719 741 717 740 q 724 745 721 743 q 728 747 726 747 q 734 749 731 748 q 744 752 737 752 l 754 752 q 766 747 760 751 q 776 741 771 745 q 780 737 778 739 q 783 734 781 734 q 785 729 784 731 q 787 724 786 727 q 789 718 788 720 q 790 714 790 716 q 790 708 790 710 q 788 702 790 706 q 787 697 787 700 q 785 692 786 694 q 782 687 783 689 q 780 682 781 685 q 775 678 777 680 q 772 674 773 677 q 767 671 769 673 q 762 668 765 670 q 751 668 758 668 q 739 668 742 668 q 728 672 735 668 q 716 682 720 675 q 707 696 710 688 q 706 704 706 701 q 706 713 706 707 q 710 727 706 720 m 721 723 q 720 719 720 720 q 718 714 720 717 l 718 707 q 719 704 718 707 q 720 701 720 702 q 723 694 720 696 q 725 691 724 693 q 727 689 727 689 q 734 685 730 686 q 741 682 739 682 l 749 682 q 758 682 754 682 q 763 686 760 686 q 767 688 766 687 q 769 690 768 689 q 772 694 771 693 q 773 697 773 696 q 776 703 775 700 q 776 709 776 706 q 776 714 776 712 q 776 720 776 717 q 773 725 774 722 q 769 728 771 727 q 760 735 765 734 q 757 737 759 737 q 752 738 754 738 l 745 738 q 738 737 740 738 q 734 735 735 735 q 731 734 733 734 q 729 731 730 733 q 727 728 727 730 q 721 723 721 723 m 839 706 l 845 700 q 846 697 845 699 q 849 695 847 696 q 847 689 849 692 l 828 630 l 885 656 q 891 657 886 657 q 895 655 894 657 l 902 649 l 821 612 l 811 620 l 839 706 m 878 549 l 845 588 l 908 641 l 942 602 l 932 592 l 906 622 l 891 609 l 911 584 l 899 576 l 880 601 l 864 586 l 888 557 l 878 549 m 888 531 l 882 543 l 952 585 l 968 559 q 970 555 970 557 q 971 549 970 553 q 970 541 973 544 q 967 532 969 535 q 964 529 965 530 q 959 525 962 527 q 955 524 957 524 q 952 523 954 523 q 948 522 950 523 q 945 523 947 522 q 938 524 943 523 q 934 526 936 525 q 932 528 933 526 l 916 487 l 910 496 q 907 501 907 497 q 909 507 907 505 l 923 540 l 918 549 l 888 531 m 949 566 l 929 555 l 938 542 q 940 537 939 538 q 944 536 941 537 l 949 536 q 952 537 950 536 q 957 540 953 537 q 957 543 957 542 q 957 544 957 543 q 958 549 958 545 q 957 550 957 549 q 957 553 957 551 l 949 566 m 987 483 q 988 488 988 484 q 987 491 988 490 q 985 496 985 493 q 982 498 984 496 q 978 499 981 499 q 975 499 977 500 q 974 498 974 498 q 972 497 973 497 q 971 495 971 496 q 970 494 970 495 l 970 489 l 970 482 l 970 480 l 970 478 l 970 471 q 969 469 970 470 q 969 465 969 467 q 956 451 966 456 q 951 449 953 450 q 944 450 948 448 q 935 451 940 450 q 930 454 932 453 q 926 458 928 456 q 923 462 924 460 q 920 467 922 464 q 918 477 918 474 q 920 487 918 480 q 922 490 920 489 q 924 493 924 493 q 925 496 924 496 q 927 497 928 497 l 930 496 q 933 491 932 492 q 934 490 933 490 q 934 488 934 489 q 932 484 934 485 l 932 483 l 932 477 q 933 471 932 474 q 934 470 933 470 q 936 467 935 469 q 938 466 937 467 q 940 464 939 464 q 942 464 941 464 q 944 462 943 464 q 948 462 946 462 q 951 464 950 462 q 954 465 952 464 q 956 469 956 468 q 957 474 957 470 l 957 479 l 957 482 l 957 490 q 957 499 957 496 q 959 503 958 501 q 962 506 960 504 q 965 509 964 508 q 970 511 967 510 q 979 512 975 513 q 988 510 984 512 q 992 507 990 509 q 996 503 995 506 q 1000 496 998 502 q 1002 489 1002 491 q 1001 482 1002 484 q 998 475 1001 479 q 998 472 998 474 q 997 470 998 470 l 992 472 q 990 474 990 473 q 988 477 989 475 q 987 480 987 478 q 987 483 987 483 m 937 422 l 933 434 l 1012 457 l 1016 444 l 937 422 m 981 422 l 994 422 q 1003 418 998 422 q 1009 417 1006 418 q 1012 413 1011 415 q 1017 410 1015 411 q 1021 405 1019 408 q 1026 398 1023 400 q 1030 385 1028 391 l 1030 374 q 1026 364 1028 367 q 1024 358 1025 360 q 1021 353 1023 356 l 1014 346 q 1009 343 1011 344 q 1004 341 1006 342 q 994 339 999 339 q 981 339 987 338 q 970 341 975 339 q 966 343 969 342 q 961 345 964 344 q 957 350 959 347 q 954 353 956 352 q 949 364 950 357 q 946 368 947 366 q 945 374 945 371 q 946 391 944 384 q 953 405 950 399 q 965 416 957 411 q 973 420 969 418 q 981 422 977 422 m 983 408 q 976 405 977 408 q 969 402 972 405 q 964 398 966 401 q 961 391 961 394 q 960 388 960 390 q 958 384 959 385 l 958 377 q 961 369 960 371 q 964 363 961 365 q 967 359 965 360 q 969 356 968 358 q 972 355 970 356 q 976 352 974 353 q 979 352 977 352 q 983 352 981 352 q 990 352 986 349 q 1002 355 998 352 q 1010 363 1005 356 q 1015 373 1015 368 q 1016 384 1016 378 q 1014 391 1016 388 q 1012 395 1012 393 q 1010 398 1011 396 q 1007 400 1009 398 q 1005 402 1006 401 q 998 405 1002 405 q 990 408 996 408 q 983 408 988 410 m 946 258 l 947 269 l 1014 311 l 951 314 l 951 328 l 1033 321 l 1033 313 q 1032 307 1033 310 q 1030 304 1030 306 l 973 269 l 1030 265 l 1029 252 l 946 258 z "},"1":{"ha":1161,"x_min":85,"x_max":1033,"o":"m 561 23 q 668 44 617 23 q 759 99 719 65 l 363 99 q 453 44 403 65 q 561 23 503 23 m 397 131 l 788 131 q 837 217 819 169 q 854 319 854 266 q 836 424 854 375 q 780 520 818 472 l 397 131 m 561 679 q 423 651 488 679 q 309 575 359 623 q 231 461 260 527 q 202 319 202 396 q 230 184 202 248 q 305 70 257 119 q 418 -8 352 21 q 561 -37 484 -37 q 609 -33 585 -37 q 656 -23 634 -30 q 758 24 710 -7 q 841 100 806 56 q 897 200 877 144 q 918 319 918 255 q 891 454 918 390 q 816 569 864 519 q 703 649 769 619 q 561 679 637 679 m 561 -10 q 431 17 491 -10 q 327 89 372 43 q 258 194 283 134 q 234 319 234 253 q 258 444 234 385 q 326 549 282 503 q 430 621 370 595 q 561 648 490 648 q 647 636 607 648 q 740 595 696 623 q 817 525 784 566 q 869 432 850 484 q 888 319 888 380 q 862 191 888 252 q 792 86 837 131 q 688 16 747 42 q 561 -10 628 -10 m 332 507 q 283 422 300 469 q 265 319 265 375 q 284 212 265 262 q 339 121 304 161 l 724 507 l 332 507 m 561 616 q 452 596 503 616 q 362 540 402 576 l 755 540 q 667 595 717 575 q 561 616 617 616 m 665 -57 l 602 -69 l 605 -87 l 628 -82 l 640 -144 l 658 -141 l 647 -79 l 668 -75 l 665 -57 m 734 -82 q 728 -76 734 -77 l 720 -72 l 710 -72 l 706 -72 l 700 -72 l 698 -72 l 698 -71 q 696 -69 696 -69 l 694 -68 q 696 -65 696 -68 q 696 -64 696 -64 l 698 -64 q 701 -64 698 -64 l 701 -62 l 702 -62 l 706 -62 l 707 -62 q 710 -61 710 -62 q 716 -61 714 -61 q 717 -58 716 -59 q 717 -57 717 -57 l 720 -50 l 716 -48 q 707 -45 710 -45 q 705 -44 707 -45 q 701 -43 703 -43 q 697 -44 699 -43 q 694 -45 696 -45 l 686 -50 q 683 -53 684 -51 q 681 -57 681 -55 q 675 -68 675 -62 q 675 -71 675 -69 q 677 -76 675 -73 q 684 -85 679 -82 q 687 -86 685 -85 q 689 -89 688 -88 q 694 -89 692 -89 q 698 -90 696 -90 l 707 -90 l 714 -90 l 714 -90 q 717 -92 716 -90 q 720 -93 720 -92 l 721 -93 l 721 -96 q 721 -99 721 -98 q 720 -100 720 -99 l 720 -101 q 719 -102 720 -101 q 717 -104 718 -104 q 714 -106 716 -106 q 712 -106 714 -106 q 710 -106 710 -106 q 707 -106 708 -106 q 706 -106 707 -106 l 701 -106 l 696 -106 l 693 -107 q 693 -108 693 -107 q 692 -109 693 -109 l 688 -115 q 691 -118 689 -117 q 693 -122 692 -120 q 697 -123 695 -122 q 702 -123 700 -123 q 710 -125 707 -126 q 715 -124 713 -125 q 720 -123 718 -123 q 725 -121 723 -122 q 731 -118 727 -120 q 734 -114 734 -115 q 738 -109 735 -113 q 740 -104 738 -106 q 741 -99 741 -102 q 741 -93 741 -95 q 738 -89 740 -91 q 734 -82 738 -83 m 769 -85 q 766 -82 768 -82 q 764 -82 766 -82 q 762 -82 763 -82 q 758 -82 761 -82 l 753 -85 q 752 -88 752 -86 l 752 -89 q 751 -92 751 -90 l 751 -93 q 752 -95 751 -95 q 752 -96 752 -96 q 754 -101 752 -101 q 759 -104 755 -104 l 763 -104 q 768 -102 766 -104 q 770 -101 769 -102 q 772 -99 772 -101 l 772 -98 q 773 -96 772 -96 q 775 -95 775 -95 l 775 -93 q 772 -89 775 -89 q 769 -85 769 -85 m 577 -122 q 576 -119 576 -122 q 576 -118 576 -118 q 575 -117 575 -118 q 574 -115 575 -115 l 545 -73 q 543 -71 545 -72 q 537 -69 543 -69 l 531 -69 l 522 -69 l 523 -152 l 543 -151 l 543 -96 l 578 -151 l 595 -151 l 595 -69 l 575 -69 l 577 -122 m 405 -59 l 439 -71 l 444 -54 l 394 -36 l 365 -109 l 384 -117 l 394 -89 l 420 -99 l 427 -82 l 401 -71 l 405 -59 m 509 -79 l 503 -71 q 498 -68 501 -69 q 493 -65 496 -67 q 488 -64 490 -64 q 483 -62 486 -63 q 477 -61 479 -61 q 471 -61 474 -61 q 462 -64 464 -61 q 457 -65 459 -64 q 451 -68 454 -66 l 444 -75 q 437 -82 441 -81 q 434 -89 436 -86 q 433 -93 433 -91 l 433 -106 l 436 -116 l 439 -125 l 447 -133 q 452 -136 450 -135 q 457 -139 455 -137 q 467 -141 461 -141 q 473 -142 470 -142 q 477 -142 475 -142 q 487 -141 481 -142 q 493 -139 490 -140 q 497 -136 496 -138 q 505 -129 502 -135 l 511 -122 q 516 -109 514 -116 l 516 -99 q 515 -95 516 -97 q 513 -89 515 -92 q 511 -83 512 -85 q 509 -79 510 -82 m 497 -106 q 496 -111 497 -109 q 493 -115 495 -113 q 490 -118 491 -117 q 487 -122 489 -120 q 483 -123 484 -122 q 478 -123 481 -123 q 470 -123 474 -126 q 466 -123 468 -123 q 462 -122 464 -122 l 457 -115 q 454 -111 455 -113 q 454 -106 454 -109 q 454 -96 452 -102 q 457 -89 454 -92 l 462 -82 l 470 -79 l 478 -79 l 487 -82 l 493 -89 q 496 -92 495 -91 q 497 -96 497 -94 q 497 -106 498 -102 m 898 129 q 897 126 898 128 q 896 122 896 125 q 897 119 896 121 q 898 116 898 118 l 926 76 l 878 83 l 872 83 l 865 79 l 859 68 l 926 23 l 938 38 l 905 61 l 947 52 l 955 66 l 932 101 l 964 80 l 975 96 l 907 141 l 898 129 m 890 41 l 880 50 l 870 52 q 859 54 867 54 q 855 54 857 54 q 849 52 852 54 l 840 50 q 835 46 838 48 q 830 41 832 43 q 827 37 828 39 q 825 33 826 35 q 822 28 822 30 q 819 23 821 26 q 819 18 819 20 q 818 12 818 16 q 818 8 818 10 q 819 2 818 5 l 822 -8 l 829 -16 l 839 -23 q 844 -25 842 -23 q 849 -27 845 -27 q 855 -28 852 -27 q 859 -30 857 -30 q 864 -28 861 -30 q 870 -27 866 -27 q 874 -25 872 -27 q 879 -23 877 -23 q 888 -16 884 -21 l 895 -8 q 897 -4 896 -6 q 898 2 898 -2 q 899 12 899 5 l 899 23 l 895 31 q 892 37 894 34 q 890 41 890 41 m 880 4 q 875 -3 878 -2 q 868 -9 870 -8 q 864 -10 866 -10 q 859 -10 861 -10 q 855 -9 857 -10 q 852 -9 852 -9 l 844 -3 q 839 5 841 0 q 839 12 839 8 q 839 20 839 18 q 844 29 841 26 l 852 34 q 855 34 853 34 q 859 35 858 35 q 868 33 863 35 q 872 31 870 32 q 875 27 873 30 q 878 24 877 26 q 880 20 879 23 q 882 12 882 18 q 881 7 882 10 q 880 4 880 4 m 829 -37 l 825 -40 q 822 -42 823 -40 q 821 -45 821 -43 l 818 -51 l 812 -56 q 808 -58 809 -57 q 804 -59 806 -59 q 795 -59 799 -61 q 792 -57 793 -57 q 787 -56 790 -57 q 783 -48 783 -53 q 780 -40 780 -47 q 780 -30 776 -38 q 780 -28 780 -30 q 780 -23 780 -26 q 783 -20 782 -22 q 786 -18 785 -19 q 793 -16 792 -16 q 800 -15 795 -15 q 807 -12 801 -15 q 811 -9 808 -10 l 812 -4 l 812 2 q 804 5 810 5 l 794 5 l 785 2 l 777 -2 q 773 -5 776 -3 q 769 -10 771 -7 q 766 -13 767 -11 q 763 -19 765 -16 l 759 -30 l 759 -40 q 760 -45 759 -43 q 761 -50 761 -47 l 766 -61 q 770 -65 767 -63 q 773 -68 772 -66 l 783 -75 l 791 -76 q 802 -78 794 -78 q 807 -77 805 -78 q 812 -76 809 -76 q 818 -73 815 -75 q 822 -69 820 -71 q 826 -68 824 -69 q 829 -64 828 -67 q 833 -62 832 -64 q 836 -57 834 -60 l 839 -48 q 842 -39 842 -45 l 833 -37 l 829 -37 m 350 -10 l 280 -61 l 290 -68 q 292 -68 290 -68 q 293 -68 293 -68 q 296 -68 295 -68 q 297 -68 296 -69 l 300 -68 q 304 -68 303 -68 l 311 -61 l 339 -76 l 337 -87 l 337 -90 q 338 -92 337 -92 q 339 -93 338 -93 l 339 -95 q 339 -96 339 -96 l 342 -99 l 353 -106 l 365 -19 l 350 -10 m 342 -39 l 342 -40 l 342 -43 l 341 -57 l 328 -50 l 339 -40 l 341 -40 q 342 -40 342 -40 l 342 -39 l 342 -38 l 343 -38 q 345 -37 344 -37 l 342 -39 m 321 -13 l 333 1 l 286 42 l 272 27 l 290 12 l 250 -34 l 264 -47 l 306 2 l 321 -13 m 168 95 l 226 89 q 230 89 227 89 q 231 89 231 89 q 234 89 232 89 l 241 95 l 210 148 l 194 139 l 212 109 l 155 115 q 151 114 154 115 q 146 112 148 114 l 139 109 l 170 54 l 186 64 l 168 95 m 238 20 l 253 33 l 234 54 l 244 62 l 266 35 l 280 47 l 246 89 l 183 36 l 219 -4 l 232 9 l 210 34 l 221 42 l 238 20 m 122 325 l 157 327 q 160 324 158 326 q 162 321 161 323 q 165 318 164 320 q 166 314 166 316 q 168 306 167 310 q 169 302 168 304 q 169 299 169 300 q 169 289 169 293 q 167 281 168 285 q 164 273 166 276 q 159 266 161 269 q 146 257 155 260 q 130 252 138 252 l 118 252 q 113 254 115 253 q 108 257 110 255 q 103 259 105 258 q 99 262 102 260 q 95 266 97 264 q 92 271 93 268 q 89 275 90 273 q 87 280 89 277 q 86 286 86 283 q 85 293 85 289 q 85 297 85 294 q 85 300 85 299 q 87 310 87 306 q 89 313 89 312 q 92 318 90 315 q 94 321 93 319 q 96 325 95 323 l 99 321 q 102 320 101 321 q 102 319 102 319 q 103 314 103 318 q 103 312 103 313 q 102 310 103 311 q 99 302 99 306 q 99 293 99 299 q 101 281 99 287 q 104 276 102 279 q 108 273 106 274 q 117 267 111 269 q 129 266 122 265 q 137 267 134 266 q 140 269 139 268 q 143 271 141 269 q 146 273 144 273 q 149 276 148 273 q 151 278 150 277 q 154 281 152 280 q 154 286 154 284 q 155 290 155 287 q 156 297 156 293 q 155 302 155 299 q 154 307 155 304 q 150 314 154 309 l 137 313 l 137 310 l 137 306 q 135 303 137 305 q 134 301 135 302 q 133 300 134 300 q 128 299 131 299 l 124 299 l 122 325 m 173 387 l 167 335 l 85 343 l 90 395 l 103 394 l 99 356 l 120 352 l 123 385 l 137 384 l 134 352 l 155 350 l 159 390 l 173 387 m 103 401 l 92 405 l 107 467 l 120 464 l 113 438 l 181 422 l 178 409 l 110 425 l 103 401 m 132 496 l 120 502 l 148 559 l 160 554 l 149 531 l 211 500 l 206 488 l 143 519 l 132 496 m 262 578 l 254 567 l 227 588 l 202 555 l 231 534 l 223 523 l 155 572 l 163 582 l 191 563 l 215 595 l 188 616 l 195 627 l 262 578 m 306 620 l 269 584 l 211 644 l 248 681 l 258 670 l 231 643 l 245 628 l 267 650 l 276 641 l 254 620 l 269 603 l 297 630 l 306 620 m 346 706 l 353 694 l 326 677 l 343 648 l 333 641 l 290 710 l 333 738 l 339 727 l 307 707 l 319 688 l 346 706 m 380 706 q 384 699 380 701 q 391 694 385 696 q 394 693 391 693 q 398 693 396 693 q 405 694 401 693 q 411 699 410 696 q 416 706 415 702 q 417 713 417 707 q 416 720 417 717 l 398 766 l 409 773 l 429 725 q 430 719 430 721 q 431 713 431 716 q 429 700 431 706 q 425 694 427 696 q 420 689 424 692 q 416 684 418 686 q 411 682 414 683 q 404 680 407 681 q 398 679 401 679 q 385 682 391 679 q 379 684 381 683 q 374 689 377 686 q 367 700 370 694 l 346 746 l 359 752 l 380 706 m 450 696 l 429 777 l 443 780 l 458 714 l 492 720 l 495 707 l 450 696 m 497 707 l 489 790 l 503 791 l 510 723 l 545 727 l 545 713 l 497 707 m 589 710 l 576 713 l 585 794 l 615 791 q 625 788 620 791 q 633 781 631 785 q 637 773 635 780 q 639 762 640 767 q 637 757 637 760 q 635 752 637 755 q 629 744 631 746 q 620 739 627 741 q 610 738 617 738 l 593 740 l 589 710 m 611 752 l 616 752 q 621 755 618 752 q 623 759 623 755 q 626 764 624 760 q 625 769 626 767 q 624 771 624 770 q 623 773 623 773 q 621 775 622 774 q 619 776 620 776 q 616 777 617 777 q 615 778 615 777 l 597 780 l 594 753 l 611 752 m 650 702 l 637 706 l 658 784 l 688 776 q 696 773 693 776 q 703 766 700 769 q 706 756 706 762 q 706 750 707 753 q 706 746 706 748 q 702 739 704 742 q 698 734 700 735 q 691 731 693 731 q 688 729 689 729 q 685 727 686 728 l 700 688 l 689 689 q 687 691 688 690 q 685 693 686 693 q 681 699 682 694 l 668 731 l 658 734 l 650 702 m 668 767 l 661 746 l 679 741 q 681 741 680 741 q 682 741 681 741 q 685 742 684 741 q 688 742 686 742 q 689 743 689 742 q 689 745 689 745 q 693 749 693 748 q 693 754 693 752 q 693 757 693 755 q 692 759 693 758 q 690 760 691 760 q 689 762 689 760 q 685 764 687 764 l 668 767 m 710 727 q 712 733 710 731 q 716 738 714 735 q 719 741 717 740 q 724 745 721 743 q 728 747 726 747 q 734 749 731 748 q 744 752 737 752 l 754 752 q 766 747 760 751 q 776 741 771 745 q 780 737 778 739 q 783 734 781 734 q 785 729 784 731 q 787 724 786 727 q 789 718 788 720 q 790 714 790 716 q 790 708 790 710 q 788 702 790 706 q 787 697 787 700 q 785 692 786 694 q 782 687 783 689 q 780 682 781 685 q 775 678 777 680 q 772 674 773 677 q 767 671 769 673 q 762 668 765 670 q 751 668 758 668 q 739 668 742 668 q 728 672 735 668 q 716 682 720 675 q 707 696 710 688 q 706 704 706 701 q 706 713 706 707 q 710 727 706 720 m 721 723 q 720 719 720 720 q 718 714 720 717 l 718 707 q 719 704 718 707 q 720 701 720 702 q 723 694 720 696 q 725 691 724 693 q 727 689 727 689 q 734 685 730 686 q 741 682 739 682 l 749 682 q 758 682 754 682 q 763 686 760 686 q 767 688 766 687 q 769 690 768 689 q 772 694 771 693 q 773 697 773 696 q 776 703 775 700 q 776 709 776 706 q 776 714 776 712 q 776 720 776 717 q 773 725 774 722 q 769 728 771 727 q 760 735 765 734 q 757 737 759 737 q 752 738 754 738 l 745 738 q 738 737 740 738 q 734 735 735 735 q 731 734 733 734 q 729 731 730 733 q 727 728 727 730 q 721 723 721 723 m 839 706 l 845 700 q 846 697 845 699 q 849 695 847 696 q 847 689 849 692 l 828 630 l 885 656 q 891 657 886 657 q 895 655 894 657 l 902 649 l 821 612 l 811 620 l 839 706 m 878 549 l 845 588 l 908 641 l 942 602 l 932 592 l 906 622 l 891 609 l 911 584 l 899 576 l 880 601 l 864 586 l 888 557 l 878 549 m 888 531 l 882 543 l 952 585 l 968 559 q 970 555 970 557 q 971 549 970 553 q 970 541 973 544 q 967 532 969 535 q 964 529 965 530 q 959 525 962 527 q 955 524 957 524 q 952 523 954 523 q 948 522 950 523 q 945 523 947 522 q 938 524 943 523 q 934 526 936 525 q 932 528 933 526 l 916 487 l 910 496 q 907 501 907 497 q 909 507 907 505 l 923 540 l 918 549 l 888 531 m 949 566 l 929 555 l 938 542 q 940 537 939 538 q 944 536 941 537 l 949 536 q 952 537 950 536 q 957 540 953 537 q 957 543 957 542 q 957 544 957 543 q 958 549 958 545 q 957 550 957 549 q 957 553 957 551 l 949 566 m 987 483 q 988 488 988 484 q 987 491 988 490 q 985 496 985 493 q 982 498 984 496 q 978 499 981 499 q 975 499 977 500 q 974 498 974 498 q 972 497 973 497 q 971 495 971 496 q 970 494 970 495 l 970 489 l 970 482 l 970 480 l 970 478 l 970 471 q 969 469 970 470 q 969 465 969 467 q 956 451 966 456 q 951 449 953 450 q 944 450 948 448 q 935 451 940 450 q 930 454 932 453 q 926 458 928 456 q 923 462 924 460 q 920 467 922 464 q 918 477 918 474 q 920 487 918 480 q 922 490 920 489 q 924 493 924 493 q 925 496 924 496 q 927 497 928 497 l 930 496 q 933 491 932 492 q 934 490 933 490 q 934 488 934 489 q 932 484 934 485 l 932 483 l 932 477 q 933 471 932 474 q 934 470 933 470 q 936 467 935 469 q 938 466 937 467 q 940 464 939 464 q 942 464 941 464 q 944 462 943 464 q 948 462 946 462 q 951 464 950 462 q 954 465 952 464 q 956 469 956 468 q 957 474 957 470 l 957 479 l 957 482 l 957 490 q 957 499 957 496 q 959 503 958 501 q 962 506 960 504 q 965 509 964 508 q 970 511 967 510 q 979 512 975 513 q 988 510 984 512 q 992 507 990 509 q 996 503 995 506 q 1000 496 998 502 q 1002 489 1002 491 q 1001 482 1002 484 q 998 475 1001 479 q 998 472 998 474 q 997 470 998 470 l 992 472 q 990 474 990 473 q 988 477 989 475 q 987 480 987 478 q 987 483 987 483 m 937 422 l 933 434 l 1012 457 l 1016 444 l 937 422 m 981 422 l 994 422 q 1003 418 998 422 q 1009 417 1006 418 q 1012 413 1011 415 q 1017 410 1015 411 q 1021 405 1019 408 q 1026 398 1023 400 q 1030 385 1028 391 l 1030 374 q 1026 364 1028 367 q 1024 358 1025 360 q 1021 353 1023 356 l 1014 346 q 1009 343 1011 344 q 1004 341 1006 342 q 994 339 999 339 q 981 339 987 338 q 970 341 975 339 q 966 343 969 342 q 961 345 964 344 q 957 350 959 347 q 954 353 956 352 q 949 364 950 357 q 946 368 947 366 q 945 374 945 371 q 946 391 944 384 q 953 405 950 399 q 965 416 957 411 q 973 420 969 418 q 981 422 977 422 m 983 408 q 976 405 977 408 q 969 402 972 405 q 964 398 966 401 q 961 391 961 394 q 960 388 960 390 q 958 384 959 385 l 958 377 q 961 369 960 371 q 964 363 961 365 q 967 359 965 360 q 969 356 968 358 q 972 355 970 356 q 976 352 974 353 q 979 352 977 352 q 983 352 981 352 q 990 352 986 349 q 1002 355 998 352 q 1010 363 1005 356 q 1015 373 1015 368 q 1016 384 1016 378 q 1014 391 1016 388 q 1012 395 1012 393 q 1010 398 1011 396 q 1007 400 1009 398 q 1005 402 1006 401 q 998 405 1002 405 q 990 408 996 408 q 983 408 988 410 m 946 258 l 947 269 l 1014 311 l 951 314 l 951 328 l 1033 321 l 1033 313 q 1032 307 1033 310 q 1030 304 1030 306 l 973 269 l 1030 265 l 1029 252 l 946 258 z "},"2":{"ha":1161,"x_min":85,"x_max":1033,"o":"m 561 23 q 668 44 617 23 q 759 99 719 65 l 363 99 q 453 44 403 65 q 561 23 503 23 m 397 131 l 788 131 q 837 217 819 169 q 854 319 854 266 q 836 424 854 375 q 780 520 818 472 l 397 131 m 561 679 q 423 651 488 679 q 309 575 359 623 q 231 461 260 527 q 202 319 202 396 q 230 184 202 248 q 305 70 257 119 q 418 -8 352 21 q 561 -37 484 -37 q 609 -33 585 -37 q 656 -23 634 -30 q 758 24 710 -7 q 841 100 806 56 q 897 200 877 144 q 918 319 918 255 q 891 454 918 390 q 816 569 864 519 q 703 649 769 619 q 561 679 637 679 m 561 -10 q 431 17 491 -10 q 327 89 372 43 q 258 194 283 134 q 234 319 234 253 q 258 444 234 385 q 326 549 282 503 q 430 621 370 595 q 561 648 490 648 q 647 636 607 648 q 740 595 696 623 q 817 525 784 566 q 869 432 850 484 q 888 319 888 380 q 862 191 888 252 q 792 86 837 131 q 688 16 747 42 q 561 -10 628 -10 m 332 507 q 283 422 300 469 q 265 319 265 375 q 284 212 265 262 q 339 121 304 161 l 724 507 l 332 507 m 561 616 q 452 596 503 616 q 362 540 402 576 l 755 540 q 667 595 717 575 q 561 616 617 616 m 665 -57 l 602 -69 l 605 -87 l 628 -82 l 640 -144 l 658 -141 l 647 -79 l 668 -75 l 665 -57 m 734 -82 q 728 -76 734 -77 l 720 -72 l 710 -72 l 706 -72 l 700 -72 l 698 -72 l 698 -71 q 696 -69 696 -69 l 694 -68 q 696 -65 696 -68 q 696 -64 696 -64 l 698 -64 q 701 -64 698 -64 l 701 -62 l 702 -62 l 706 -62 l 707 -62 q 710 -61 710 -62 q 716 -61 714 -61 q 717 -58 716 -59 q 717 -57 717 -57 l 720 -50 l 716 -48 q 707 -45 710 -45 q 705 -44 707 -45 q 701 -43 703 -43 q 697 -44 699 -43 q 694 -45 696 -45 l 686 -50 q 683 -53 684 -51 q 681 -57 681 -55 q 675 -68 675 -62 q 675 -71 675 -69 q 677 -76 675 -73 q 684 -85 679 -82 q 687 -86 685 -85 q 689 -89 688 -88 q 694 -89 692 -89 q 698 -90 696 -90 l 707 -90 l 714 -90 l 714 -90 q 717 -92 716 -90 q 720 -93 720 -92 l 721 -93 l 721 -96 q 721 -99 721 -98 q 720 -100 720 -99 l 720 -101 q 719 -102 720 -101 q 717 -104 718 -104 q 714 -106 716 -106 q 712 -106 714 -106 q 710 -106 710 -106 q 707 -106 708 -106 q 706 -106 707 -106 l 701 -106 l 696 -106 l 693 -107 q 693 -108 693 -107 q 692 -109 693 -109 l 688 -115 q 691 -118 689 -117 q 693 -122 692 -120 q 697 -123 695 -122 q 702 -123 700 -123 q 710 -125 707 -126 q 715 -124 713 -125 q 720 -123 718 -123 q 725 -121 723 -122 q 731 -118 727 -120 q 734 -114 734 -115 q 738 -109 735 -113 q 740 -104 738 -106 q 741 -99 741 -102 q 741 -93 741 -95 q 738 -89 740 -91 q 734 -82 738 -83 m 769 -85 q 766 -82 768 -82 q 764 -82 766 -82 q 762 -82 763 -82 q 758 -82 761 -82 l 753 -85 q 752 -88 752 -86 l 752 -89 q 751 -92 751 -90 l 751 -93 q 752 -95 751 -95 q 752 -96 752 -96 q 754 -101 752 -101 q 759 -104 755 -104 l 763 -104 q 768 -102 766 -104 q 770 -101 769 -102 q 772 -99 772 -101 l 772 -98 q 773 -96 772 -96 q 775 -95 775 -95 l 775 -93 q 772 -89 775 -89 q 769 -85 769 -85 m 577 -122 q 576 -119 576 -122 q 576 -118 576 -118 q 575 -117 575 -118 q 574 -115 575 -115 l 545 -73 q 543 -71 545 -72 q 537 -69 543 -69 l 531 -69 l 522 -69 l 523 -152 l 543 -151 l 543 -96 l 578 -151 l 595 -151 l 595 -69 l 575 -69 l 577 -122 m 405 -59 l 439 -71 l 444 -54 l 394 -36 l 365 -109 l 384 -117 l 394 -89 l 420 -99 l 427 -82 l 401 -71 l 405 -59 m 509 -79 l 503 -71 q 498 -68 501 -69 q 493 -65 496 -67 q 488 -64 490 -64 q 483 -62 486 -63 q 477 -61 479 -61 q 471 -61 474 -61 q 462 -64 464 -61 q 457 -65 459 -64 q 451 -68 454 -66 l 444 -75 q 437 -82 441 -81 q 434 -89 436 -86 q 433 -93 433 -91 l 433 -106 l 436 -116 l 439 -125 l 447 -133 q 452 -136 450 -135 q 457 -139 455 -137 q 467 -141 461 -141 q 473 -142 470 -142 q 477 -142 475 -142 q 487 -141 481 -142 q 493 -139 490 -140 q 497 -136 496 -138 q 505 -129 502 -135 l 511 -122 q 516 -109 514 -116 l 516 -99 q 515 -95 516 -97 q 513 -89 515 -92 q 511 -83 512 -85 q 509 -79 510 -82 m 497 -106 q 496 -111 497 -109 q 493 -115 495 -113 q 490 -118 491 -117 q 487 -122 489 -120 q 483 -123 484 -122 q 478 -123 481 -123 q 470 -123 474 -126 q 466 -123 468 -123 q 462 -122 464 -122 l 457 -115 q 454 -111 455 -113 q 454 -106 454 -109 q 454 -96 452 -102 q 457 -89 454 -92 l 462 -82 l 470 -79 l 478 -79 l 487 -82 l 493 -89 q 496 -92 495 -91 q 497 -96 497 -94 q 497 -106 498 -102 m 898 129 q 897 126 898 128 q 896 122 896 125 q 897 119 896 121 q 898 116 898 118 l 926 76 l 878 83 l 872 83 l 865 79 l 859 68 l 926 23 l 938 38 l 905 61 l 947 52 l 955 66 l 932 101 l 964 80 l 975 96 l 907 141 l 898 129 m 890 41 l 880 50 l 870 52 q 859 54 867 54 q 855 54 857 54 q 849 52 852 54 l 840 50 q 835 46 838 48 q 830 41 832 43 q 827 37 828 39 q 825 33 826 35 q 822 28 822 30 q 819 23 821 26 q 819 18 819 20 q 818 12 818 16 q 818 8 818 10 q 819 2 818 5 l 822 -8 l 829 -16 l 839 -23 q 844 -25 842 -23 q 849 -27 845 -27 q 855 -28 852 -27 q 859 -30 857 -30 q 864 -28 861 -30 q 870 -27 866 -27 q 874 -25 872 -27 q 879 -23 877 -23 q 888 -16 884 -21 l 895 -8 q 897 -4 896 -6 q 898 2 898 -2 q 899 12 899 5 l 899 23 l 895 31 q 892 37 894 34 q 890 41 890 41 m 880 4 q 875 -3 878 -2 q 868 -9 870 -8 q 864 -10 866 -10 q 859 -10 861 -10 q 855 -9 857 -10 q 852 -9 852 -9 l 844 -3 q 839 5 841 0 q 839 12 839 8 q 839 20 839 18 q 844 29 841 26 l 852 34 q 855 34 853 34 q 859 35 858 35 q 868 33 863 35 q 872 31 870 32 q 875 27 873 30 q 878 24 877 26 q 880 20 879 23 q 882 12 882 18 q 881 7 882 10 q 880 4 880 4 m 829 -37 l 825 -40 q 822 -42 823 -40 q 821 -45 821 -43 l 818 -51 l 812 -56 q 808 -58 809 -57 q 804 -59 806 -59 q 795 -59 799 -61 q 792 -57 793 -57 q 787 -56 790 -57 q 783 -48 783 -53 q 780 -40 780 -47 q 780 -30 776 -38 q 780 -28 780 -30 q 780 -23 780 -26 q 783 -20 782 -22 q 786 -18 785 -19 q 793 -16 792 -16 q 800 -15 795 -15 q 807 -12 801 -15 q 811 -9 808 -10 l 812 -4 l 812 2 q 804 5 810 5 l 794 5 l 785 2 l 777 -2 q 773 -5 776 -3 q 769 -10 771 -7 q 766 -13 767 -11 q 763 -19 765 -16 l 759 -30 l 759 -40 q 760 -45 759 -43 q 761 -50 761 -47 l 766 -61 q 770 -65 767 -63 q 773 -68 772 -66 l 783 -75 l 791 -76 q 802 -78 794 -78 q 807 -77 805 -78 q 812 -76 809 -76 q 818 -73 815 -75 q 822 -69 820 -71 q 826 -68 824 -69 q 829 -64 828 -67 q 833 -62 832 -64 q 836 -57 834 -60 l 839 -48 q 842 -39 842 -45 l 833 -37 l 829 -37 m 350 -10 l 280 -61 l 290 -68 q 292 -68 290 -68 q 293 -68 293 -68 q 296 -68 295 -68 q 297 -68 296 -69 l 300 -68 q 304 -68 303 -68 l 311 -61 l 339 -76 l 337 -87 l 337 -90 q 338 -92 337 -92 q 339 -93 338 -93 l 339 -95 q 339 -96 339 -96 l 342 -99 l 353 -106 l 365 -19 l 350 -10 m 342 -39 l 342 -40 l 342 -43 l 341 -57 l 328 -50 l 339 -40 l 341 -40 q 342 -40 342 -40 l 342 -39 l 342 -38 l 343 -38 q 345 -37 344 -37 l 342 -39 m 321 -13 l 333 1 l 286 42 l 272 27 l 290 12 l 250 -34 l 264 -47 l 306 2 l 321 -13 m 168 95 l 226 89 q 230 89 227 89 q 231 89 231 89 q 234 89 232 89 l 241 95 l 210 148 l 194 139 l 212 109 l 155 115 q 151 114 154 115 q 146 112 148 114 l 139 109 l 170 54 l 186 64 l 168 95 m 238 20 l 253 33 l 234 54 l 244 62 l 266 35 l 280 47 l 246 89 l 183 36 l 219 -4 l 232 9 l 210 34 l 221 42 l 238 20 m 122 325 l 157 327 q 160 324 158 326 q 162 321 161 323 q 165 318 164 320 q 166 314 166 316 q 168 306 167 310 q 169 302 168 304 q 169 299 169 300 q 169 289 169 293 q 167 281 168 285 q 164 273 166 276 q 159 266 161 269 q 146 257 155 260 q 130 252 138 252 l 118 252 q 113 254 115 253 q 108 257 110 255 q 103 259 105 258 q 99 262 102 260 q 95 266 97 264 q 92 271 93 268 q 89 275 90 273 q 87 280 89 277 q 86 286 86 283 q 85 293 85 289 q 85 297 85 294 q 85 300 85 299 q 87 310 87 306 q 89 313 89 312 q 92 318 90 315 q 94 321 93 319 q 96 325 95 323 l 99 321 q 102 320 101 321 q 102 319 102 319 q 103 314 103 318 q 103 312 103 313 q 102 310 103 311 q 99 302 99 306 q 99 293 99 299 q 101 281 99 287 q 104 276 102 279 q 108 273 106 274 q 117 267 111 269 q 129 266 122 265 q 137 267 134 266 q 140 269 139 268 q 143 271 141 269 q 146 273 144 273 q 149 276 148 273 q 151 278 150 277 q 154 281 152 280 q 154 286 154 284 q 155 290 155 287 q 156 297 156 293 q 155 302 155 299 q 154 307 155 304 q 150 314 154 309 l 137 313 l 137 310 l 137 306 q 135 303 137 305 q 134 301 135 302 q 133 300 134 300 q 128 299 131 299 l 124 299 l 122 325 m 173 387 l 167 335 l 85 343 l 90 395 l 103 394 l 99 356 l 120 352 l 123 385 l 137 384 l 134 352 l 155 350 l 159 390 l 173 387 m 103 401 l 92 405 l 107 467 l 120 464 l 113 438 l 181 422 l 178 409 l 110 425 l 103 401 m 132 496 l 120 502 l 148 559 l 160 554 l 149 531 l 211 500 l 206 488 l 143 519 l 132 496 m 262 578 l 254 567 l 227 588 l 202 555 l 231 534 l 223 523 l 155 572 l 163 582 l 191 563 l 215 595 l 188 616 l 195 627 l 262 578 m 306 620 l 269 584 l 211 644 l 248 681 l 258 670 l 231 643 l 245 628 l 267 650 l 276 641 l 254 620 l 269 603 l 297 630 l 306 620 m 346 706 l 353 694 l 326 677 l 343 648 l 333 641 l 290 710 l 333 738 l 339 727 l 307 707 l 319 688 l 346 706 m 380 706 q 384 699 380 701 q 391 694 385 696 q 394 693 391 693 q 398 693 396 693 q 405 694 401 693 q 411 699 410 696 q 416 706 415 702 q 417 713 417 707 q 416 720 417 717 l 398 766 l 409 773 l 429 725 q 430 719 430 721 q 431 713 431 716 q 429 700 431 706 q 425 694 427 696 q 420 689 424 692 q 416 684 418 686 q 411 682 414 683 q 404 680 407 681 q 398 679 401 679 q 385 682 391 679 q 379 684 381 683 q 374 689 377 686 q 367 700 370 694 l 346 746 l 359 752 l 380 706 m 450 696 l 429 777 l 443 780 l 458 714 l 492 720 l 495 707 l 450 696 m 497 707 l 489 790 l 503 791 l 510 723 l 545 727 l 545 713 l 497 707 m 589 710 l 576 713 l 585 794 l 615 791 q 625 788 620 791 q 633 781 631 785 q 637 773 635 780 q 639 762 640 767 q 637 757 637 760 q 635 752 637 755 q 629 744 631 746 q 620 739 627 741 q 610 738 617 738 l 593 740 l 589 710 m 611 752 l 616 752 q 621 755 618 752 q 623 759 623 755 q 626 764 624 760 q 625 769 626 767 q 624 771 624 770 q 623 773 623 773 q 621 775 622 774 q 619 776 620 776 q 616 777 617 777 q 615 778 615 777 l 597 780 l 594 753 l 611 752 m 650 702 l 637 706 l 658 784 l 688 776 q 696 773 693 776 q 703 766 700 769 q 706 756 706 762 q 706 750 707 753 q 706 746 706 748 q 702 739 704 742 q 698 734 700 735 q 691 731 693 731 q 688 729 689 729 q 685 727 686 728 l 700 688 l 689 689 q 687 691 688 690 q 685 693 686 693 q 681 699 682 694 l 668 731 l 658 734 l 650 702 m 668 767 l 661 746 l 679 741 q 681 741 680 741 q 682 741 681 741 q 685 742 684 741 q 688 742 686 742 q 689 743 689 742 q 689 745 689 745 q 693 749 693 748 q 693 754 693 752 q 693 757 693 755 q 692 759 693 758 q 690 760 691 760 q 689 762 689 760 q 685 764 687 764 l 668 767 m 710 727 q 712 733 710 731 q 716 738 714 735 q 719 741 717 740 q 724 745 721 743 q 728 747 726 747 q 734 749 731 748 q 744 752 737 752 l 754 752 q 766 747 760 751 q 776 741 771 745 q 780 737 778 739 q 783 734 781 734 q 785 729 784 731 q 787 724 786 727 q 789 718 788 720 q 790 714 790 716 q 790 708 790 710 q 788 702 790 706 q 787 697 787 700 q 785 692 786 694 q 782 687 783 689 q 780 682 781 685 q 775 678 777 680 q 772 674 773 677 q 767 671 769 673 q 762 668 765 670 q 751 668 758 668 q 739 668 742 668 q 728 672 735 668 q 716 682 720 675 q 707 696 710 688 q 706 704 706 701 q 706 713 706 707 q 710 727 706 720 m 721 723 q 720 719 720 720 q 718 714 720 717 l 718 707 q 719 704 718 707 q 720 701 720 702 q 723 694 720 696 q 725 691 724 693 q 727 689 727 689 q 734 685 730 686 q 741 682 739 682 l 749 682 q 758 682 754 682 q 763 686 760 686 q 767 688 766 687 q 769 690 768 689 q 772 694 771 693 q 773 697 773 696 q 776 703 775 700 q 776 709 776 706 q 776 714 776 712 q 776 720 776 717 q 773 725 774 722 q 769 728 771 727 q 760 735 765 734 q 757 737 759 737 q 752 738 754 738 l 745 738 q 738 737 740 738 q 734 735 735 735 q 731 734 733 734 q 729 731 730 733 q 727 728 727 730 q 721 723 721 723 m 839 706 l 845 700 q 846 697 845 699 q 849 695 847 696 q 847 689 849 692 l 828 630 l 885 656 q 891 657 886 657 q 895 655 894 657 l 902 649 l 821 612 l 811 620 l 839 706 m 878 549 l 845 588 l 908 641 l 942 602 l 932 592 l 906 622 l 891 609 l 911 584 l 899 576 l 880 601 l 864 586 l 888 557 l 878 549 m 888 531 l 882 543 l 952 585 l 968 559 q 970 555 970 557 q 971 549 970 553 q 970 541 973 544 q 967 532 969 535 q 964 529 965 530 q 959 525 962 527 q 955 524 957 524 q 952 523 954 523 q 948 522 950 523 q 945 523 947 522 q 938 524 943 523 q 934 526 936 525 q 932 528 933 526 l 916 487 l 910 496 q 907 501 907 497 q 909 507 907 505 l 923 540 l 918 549 l 888 531 m 949 566 l 929 555 l 938 542 q 940 537 939 538 q 944 536 941 537 l 949 536 q 952 537 950 536 q 957 540 953 537 q 957 543 957 542 q 957 544 957 543 q 958 549 958 545 q 957 550 957 549 q 957 553 957 551 l 949 566 m 987 483 q 988 488 988 484 q 987 491 988 490 q 985 496 985 493 q 982 498 984 496 q 978 499 981 499 q 975 499 977 500 q 974 498 974 498 q 972 497 973 497 q 971 495 971 496 q 970 494 970 495 l 970 489 l 970 482 l 970 480 l 970 478 l 970 471 q 969 469 970 470 q 969 465 969 467 q 956 451 966 456 q 951 449 953 450 q 944 450 948 448 q 935 451 940 450 q 930 454 932 453 q 926 458 928 456 q 923 462 924 460 q 920 467 922 464 q 918 477 918 474 q 920 487 918 480 q 922 490 920 489 q 924 493 924 493 q 925 496 924 496 q 927 497 928 497 l 930 496 q 933 491 932 492 q 934 490 933 490 q 934 488 934 489 q 932 484 934 485 l 932 483 l 932 477 q 933 471 932 474 q 934 470 933 470 q 936 467 935 469 q 938 466 937 467 q 940 464 939 464 q 942 464 941 464 q 944 462 943 464 q 948 462 946 462 q 951 464 950 462 q 954 465 952 464 q 956 469 956 468 q 957 474 957 470 l 957 479 l 957 482 l 957 490 q 957 499 957 496 q 959 503 958 501 q 962 506 960 504 q 965 509 964 508 q 970 511 967 510 q 979 512 975 513 q 988 510 984 512 q 992 507 990 509 q 996 503 995 506 q 1000 496 998 502 q 1002 489 1002 491 q 1001 482 1002 484 q 998 475 1001 479 q 998 472 998 474 q 997 470 998 470 l 992 472 q 990 474 990 473 q 988 477 989 475 q 987 480 987 478 q 987 483 987 483 m 937 422 l 933 434 l 1012 457 l 1016 444 l 937 422 m 981 422 l 994 422 q 1003 418 998 422 q 1009 417 1006 418 q 1012 413 1011 415 q 1017 410 1015 411 q 1021 405 1019 408 q 1026 398 1023 400 q 1030 385 1028 391 l 1030 374 q 1026 364 1028 367 q 1024 358 1025 360 q 1021 353 1023 356 l 1014 346 q 1009 343 1011 344 q 1004 341 1006 342 q 994 339 999 339 q 981 339 987 338 q 970 341 975 339 q 966 343 969 342 q 961 345 964 344 q 957 350 959 347 q 954 353 956 352 q 949 364 950 357 q 946 368 947 366 q 945 374 945 371 q 946 391 944 384 q 953 405 950 399 q 965 416 957 411 q 973 420 969 418 q 981 422 977 422 m 983 408 q 976 405 977 408 q 969 402 972 405 q 964 398 966 401 q 961 391 961 394 q 960 388 960 390 q 958 384 959 385 l 958 377 q 961 369 960 371 q 964 363 961 365 q 967 359 965 360 q 969 356 968 358 q 972 355 970 356 q 976 352 974 353 q 979 352 977 352 q 983 352 981 352 q 990 352 986 349 q 1002 355 998 352 q 1010 363 1005 356 q 1015 373 1015 368 q 1016 384 1016 378 q 1014 391 1016 388 q 1012 395 1012 393 q 1010 398 1011 396 q 1007 400 1009 398 q 1005 402 1006 401 q 998 405 1002 405 q 990 408 996 408 q 983 408 988 410 m 946 258 l 947 269 l 1014 311 l 951 314 l 951 328 l 1033 321 l 1033 313 q 1032 307 1033 310 q 1030 304 1030 306 l 973 269 l 1030 265 l 1029 252 l 946 258 z "},"3":{"ha":1161,"x_min":85,"x_max":1033,"o":"m 561 23 q 668 44 617 23 q 759 99 719 65 l 363 99 q 453 44 403 65 q 561 23 503 23 m 397 131 l 788 131 q 837 217 819 169 q 854 319 854 266 q 836 424 854 375 q 780 520 818 472 l 397 131 m 561 679 q 423 651 488 679 q 309 575 359 623 q 231 461 260 527 q 202 319 202 396 q 230 184 202 248 q 305 70 257 119 q 418 -8 352 21 q 561 -37 484 -37 q 609 -33 585 -37 q 656 -23 634 -30 q 758 24 710 -7 q 841 100 806 56 q 897 200 877 144 q 918 319 918 255 q 891 454 918 390 q 816 569 864 519 q 703 649 769 619 q 561 679 637 679 m 561 -10 q 431 17 491 -10 q 327 89 372 43 q 258 194 283 134 q 234 319 234 253 q 258 444 234 385 q 326 549 282 503 q 430 621 370 595 q 561 648 490 648 q 647 636 607 648 q 740 595 696 623 q 817 525 784 566 q 869 432 850 484 q 888 319 888 380 q 862 191 888 252 q 792 86 837 131 q 688 16 747 42 q 561 -10 628 -10 m 332 507 q 283 422 300 469 q 265 319 265 375 q 284 212 265 262 q 339 121 304 161 l 724 507 l 332 507 m 561 616 q 452 596 503 616 q 362 540 402 576 l 755 540 q 667 595 717 575 q 561 616 617 616 m 665 -57 l 602 -69 l 605 -87 l 628 -82 l 640 -144 l 658 -141 l 647 -79 l 668 -75 l 665 -57 m 734 -82 q 728 -76 734 -77 l 720 -72 l 710 -72 l 706 -72 l 700 -72 l 698 -72 l 698 -71 q 696 -69 696 -69 l 694 -68 q 696 -65 696 -68 q 696 -64 696 -64 l 698 -64 q 701 -64 698 -64 l 701 -62 l 702 -62 l 706 -62 l 707 -62 q 710 -61 710 -62 q 716 -61 714 -61 q 717 -58 716 -59 q 717 -57 717 -57 l 720 -50 l 716 -48 q 707 -45 710 -45 q 705 -44 707 -45 q 701 -43 703 -43 q 697 -44 699 -43 q 694 -45 696 -45 l 686 -50 q 683 -53 684 -51 q 681 -57 681 -55 q 675 -68 675 -62 q 675 -71 675 -69 q 677 -76 675 -73 q 684 -85 679 -82 q 687 -86 685 -85 q 689 -89 688 -88 q 694 -89 692 -89 q 698 -90 696 -90 l 707 -90 l 714 -90 l 714 -90 q 717 -92 716 -90 q 720 -93 720 -92 l 721 -93 l 721 -96 q 721 -99 721 -98 q 720 -100 720 -99 l 720 -101 q 719 -102 720 -101 q 717 -104 718 -104 q 714 -106 716 -106 q 712 -106 714 -106 q 710 -106 710 -106 q 707 -106 708 -106 q 706 -106 707 -106 l 701 -106 l 696 -106 l 693 -107 q 693 -108 693 -107 q 692 -109 693 -109 l 688 -115 q 691 -118 689 -117 q 693 -122 692 -120 q 697 -123 695 -122 q 702 -123 700 -123 q 710 -125 707 -126 q 715 -124 713 -125 q 720 -123 718 -123 q 725 -121 723 -122 q 731 -118 727 -120 q 734 -114 734 -115 q 738 -109 735 -113 q 740 -104 738 -106 q 741 -99 741 -102 q 741 -93 741 -95 q 738 -89 740 -91 q 734 -82 738 -83 m 769 -85 q 766 -82 768 -82 q 764 -82 766 -82 q 762 -82 763 -82 q 758 -82 761 -82 l 753 -85 q 752 -88 752 -86 l 752 -89 q 751 -92 751 -90 l 751 -93 q 752 -95 751 -95 q 752 -96 752 -96 q 754 -101 752 -101 q 759 -104 755 -104 l 763 -104 q 768 -102 766 -104 q 770 -101 769 -102 q 772 -99 772 -101 l 772 -98 q 773 -96 772 -96 q 775 -95 775 -95 l 775 -93 q 772 -89 775 -89 q 769 -85 769 -85 m 577 -122 q 576 -119 576 -122 q 576 -118 576 -118 q 575 -117 575 -118 q 574 -115 575 -115 l 545 -73 q 543 -71 545 -72 q 537 -69 543 -69 l 531 -69 l 522 -69 l 523 -152 l 543 -151 l 543 -96 l 578 -151 l 595 -151 l 595 -69 l 575 -69 l 577 -122 m 405 -59 l 439 -71 l 444 -54 l 394 -36 l 365 -109 l 384 -117 l 394 -89 l 420 -99 l 427 -82 l 401 -71 l 405 -59 m 509 -79 l 503 -71 q 498 -68 501 -69 q 493 -65 496 -67 q 488 -64 490 -64 q 483 -62 486 -63 q 477 -61 479 -61 q 471 -61 474 -61 q 462 -64 464 -61 q 457 -65 459 -64 q 451 -68 454 -66 l 444 -75 q 437 -82 441 -81 q 434 -89 436 -86 q 433 -93 433 -91 l 433 -106 l 436 -116 l 439 -125 l 447 -133 q 452 -136 450 -135 q 457 -139 455 -137 q 467 -141 461 -141 q 473 -142 470 -142 q 477 -142 475 -142 q 487 -141 481 -142 q 493 -139 490 -140 q 497 -136 496 -138 q 505 -129 502 -135 l 511 -122 q 516 -109 514 -116 l 516 -99 q 515 -95 516 -97 q 513 -89 515 -92 q 511 -83 512 -85 q 509 -79 510 -82 m 497 -106 q 496 -111 497 -109 q 493 -115 495 -113 q 490 -118 491 -117 q 487 -122 489 -120 q 483 -123 484 -122 q 478 -123 481 -123 q 470 -123 474 -126 q 466 -123 468 -123 q 462 -122 464 -122 l 457 -115 q 454 -111 455 -113 q 454 -106 454 -109 q 454 -96 452 -102 q 457 -89 454 -92 l 462 -82 l 470 -79 l 478 -79 l 487 -82 l 493 -89 q 496 -92 495 -91 q 497 -96 497 -94 q 497 -106 498 -102 m 898 129 q 897 126 898 128 q 896 122 896 125 q 897 119 896 121 q 898 116 898 118 l 926 76 l 878 83 l 872 83 l 865 79 l 859 68 l 926 23 l 938 38 l 905 61 l 947 52 l 955 66 l 932 101 l 964 80 l 975 96 l 907 141 l 898 129 m 890 41 l 880 50 l 870 52 q 859 54 867 54 q 855 54 857 54 q 849 52 852 54 l 840 50 q 835 46 838 48 q 830 41 832 43 q 827 37 828 39 q 825 33 826 35 q 822 28 822 30 q 819 23 821 26 q 819 18 819 20 q 818 12 818 16 q 818 8 818 10 q 819 2 818 5 l 822 -8 l 829 -16 l 839 -23 q 844 -25 842 -23 q 849 -27 845 -27 q 855 -28 852 -27 q 859 -30 857 -30 q 864 -28 861 -30 q 870 -27 866 -27 q 874 -25 872 -27 q 879 -23 877 -23 q 888 -16 884 -21 l 895 -8 q 897 -4 896 -6 q 898 2 898 -2 q 899 12 899 5 l 899 23 l 895 31 q 892 37 894 34 q 890 41 890 41 m 880 4 q 875 -3 878 -2 q 868 -9 870 -8 q 864 -10 866 -10 q 859 -10 861 -10 q 855 -9 857 -10 q 852 -9 852 -9 l 844 -3 q 839 5 841 0 q 839 12 839 8 q 839 20 839 18 q 844 29 841 26 l 852 34 q 855 34 853 34 q 859 35 858 35 q 868 33 863 35 q 872 31 870 32 q 875 27 873 30 q 878 24 877 26 q 880 20 879 23 q 882 12 882 18 q 881 7 882 10 q 880 4 880 4 m 829 -37 l 825 -40 q 822 -42 823 -40 q 821 -45 821 -43 l 818 -51 l 812 -56 q 808 -58 809 -57 q 804 -59 806 -59 q 795 -59 799 -61 q 792 -57 793 -57 q 787 -56 790 -57 q 783 -48 783 -53 q 780 -40 780 -47 q 780 -30 776 -38 q 780 -28 780 -30 q 780 -23 780 -26 q 783 -20 782 -22 q 786 -18 785 -19 q 793 -16 792 -16 q 800 -15 795 -15 q 807 -12 801 -15 q 811 -9 808 -10 l 812 -4 l 812 2 q 804 5 810 5 l 794 5 l 785 2 l 777 -2 q 773 -5 776 -3 q 769 -10 771 -7 q 766 -13 767 -11 q 763 -19 765 -16 l 759 -30 l 759 -40 q 760 -45 759 -43 q 761 -50 761 -47 l 766 -61 q 770 -65 767 -63 q 773 -68 772 -66 l 783 -75 l 791 -76 q 802 -78 794 -78 q 807 -77 805 -78 q 812 -76 809 -76 q 818 -73 815 -75 q 822 -69 820 -71 q 826 -68 824 -69 q 829 -64 828 -67 q 833 -62 832 -64 q 836 -57 834 -60 l 839 -48 q 842 -39 842 -45 l 833 -37 l 829 -37 m 350 -10 l 280 -61 l 290 -68 q 292 -68 290 -68 q 293 -68 293 -68 q 296 -68 295 -68 q 297 -68 296 -69 l 300 -68 q 304 -68 303 -68 l 311 -61 l 339 -76 l 337 -87 l 337 -90 q 338 -92 337 -92 q 339 -93 338 -93 l 339 -95 q 339 -96 339 -96 l 342 -99 l 353 -106 l 365 -19 l 350 -10 m 342 -39 l 342 -40 l 342 -43 l 341 -57 l 328 -50 l 339 -40 l 341 -40 q 342 -40 342 -40 l 342 -39 l 342 -38 l 343 -38 q 345 -37 344 -37 l 342 -39 m 321 -13 l 333 1 l 286 42 l 272 27 l 290 12 l 250 -34 l 264 -47 l 306 2 l 321 -13 m 168 95 l 226 89 q 230 89 227 89 q 231 89 231 89 q 234 89 232 89 l 241 95 l 210 148 l 194 139 l 212 109 l 155 115 q 151 114 154 115 q 146 112 148 114 l 139 109 l 170 54 l 186 64 l 168 95 m 238 20 l 253 33 l 234 54 l 244 62 l 266 35 l 280 47 l 246 89 l 183 36 l 219 -4 l 232 9 l 210 34 l 221 42 l 238 20 m 122 325 l 157 327 q 160 324 158 326 q 162 321 161 323 q 165 318 164 320 q 166 314 166 316 q 168 306 167 310 q 169 302 168 304 q 169 299 169 300 q 169 289 169 293 q 167 281 168 285 q 164 273 166 276 q 159 266 161 269 q 146 257 155 260 q 130 252 138 252 l 118 252 q 113 254 115 253 q 108 257 110 255 q 103 259 105 258 q 99 262 102 260 q 95 266 97 264 q 92 271 93 268 q 89 275 90 273 q 87 280 89 277 q 86 286 86 283 q 85 293 85 289 q 85 297 85 294 q 85 300 85 299 q 87 310 87 306 q 89 313 89 312 q 92 318 90 315 q 94 321 93 319 q 96 325 95 323 l 99 321 q 102 320 101 321 q 102 319 102 319 q 103 314 103 318 q 103 312 103 313 q 102 310 103 311 q 99 302 99 306 q 99 293 99 299 q 101 281 99 287 q 104 276 102 279 q 108 273 106 274 q 117 267 111 269 q 129 266 122 265 q 137 267 134 266 q 140 269 139 268 q 143 271 141 269 q 146 273 144 273 q 149 276 148 273 q 151 278 150 277 q 154 281 152 280 q 154 286 154 284 q 155 290 155 287 q 156 297 156 293 q 155 302 155 299 q 154 307 155 304 q 150 314 154 309 l 137 313 l 137 310 l 137 306 q 135 303 137 305 q 134 301 135 302 q 133 300 134 300 q 128 299 131 299 l 124 299 l 122 325 m 173 387 l 167 335 l 85 343 l 90 395 l 103 394 l 99 356 l 120 352 l 123 385 l 137 384 l 134 352 l 155 350 l 159 390 l 173 387 m 103 401 l 92 405 l 107 467 l 120 464 l 113 438 l 181 422 l 178 409 l 110 425 l 103 401 m 132 496 l 120 502 l 148 559 l 160 554 l 149 531 l 211 500 l 206 488 l 143 519 l 132 496 m 262 578 l 254 567 l 227 588 l 202 555 l 231 534 l 223 523 l 155 572 l 163 582 l 191 563 l 215 595 l 188 616 l 195 627 l 262 578 m 306 620 l 269 584 l 211 644 l 248 681 l 258 670 l 231 643 l 245 628 l 267 650 l 276 641 l 254 620 l 269 603 l 297 630 l 306 620 m 346 706 l 353 694 l 326 677 l 343 648 l 333 641 l 290 710 l 333 738 l 339 727 l 307 707 l 319 688 l 346 706 m 380 706 q 384 699 380 701 q 391 694 385 696 q 394 693 391 693 q 398 693 396 693 q 405 694 401 693 q 411 699 410 696 q 416 706 415 702 q 417 713 417 707 q 416 720 417 717 l 398 766 l 409 773 l 429 725 q 430 719 430 721 q 431 713 431 716 q 429 700 431 706 q 425 694 427 696 q 420 689 424 692 q 416 684 418 686 q 411 682 414 683 q 404 680 407 681 q 398 679 401 679 q 385 682 391 679 q 379 684 381 683 q 374 689 377 686 q 367 700 370 694 l 346 746 l 359 752 l 380 706 m 450 696 l 429 777 l 443 780 l 458 714 l 492 720 l 495 707 l 450 696 m 497 707 l 489 790 l 503 791 l 510 723 l 545 727 l 545 713 l 497 707 m 589 710 l 576 713 l 585 794 l 615 791 q 625 788 620 791 q 633 781 631 785 q 637 773 635 780 q 639 762 640 767 q 637 757 637 760 q 635 752 637 755 q 629 744 631 746 q 620 739 627 741 q 610 738 617 738 l 593 740 l 589 710 m 611 752 l 616 752 q 621 755 618 752 q 623 759 623 755 q 626 764 624 760 q 625 769 626 767 q 624 771 624 770 q 623 773 623 773 q 621 775 622 774 q 619 776 620 776 q 616 777 617 777 q 615 778 615 777 l 597 780 l 594 753 l 611 752 m 650 702 l 637 706 l 658 784 l 688 776 q 696 773 693 776 q 703 766 700 769 q 706 756 706 762 q 706 750 707 753 q 706 746 706 748 q 702 739 704 742 q 698 734 700 735 q 691 731 693 731 q 688 729 689 729 q 685 727 686 728 l 700 688 l 689 689 q 687 691 688 690 q 685 693 686 693 q 681 699 682 694 l 668 731 l 658 734 l 650 702 m 668 767 l 661 746 l 679 741 q 681 741 680 741 q 682 741 681 741 q 685 742 684 741 q 688 742 686 742 q 689 743 689 742 q 689 745 689 745 q 693 749 693 748 q 693 754 693 752 q 693 757 693 755 q 692 759 693 758 q 690 760 691 760 q 689 762 689 760 q 685 764 687 764 l 668 767 m 710 727 q 712 733 710 731 q 716 738 714 735 q 719 741 717 740 q 724 745 721 743 q 728 747 726 747 q 734 749 731 748 q 744 752 737 752 l 754 752 q 766 747 760 751 q 776 741 771 745 q 780 737 778 739 q 783 734 781 734 q 785 729 784 731 q 787 724 786 727 q 789 718 788 720 q 790 714 790 716 q 790 708 790 710 q 788 702 790 706 q 787 697 787 700 q 785 692 786 694 q 782 687 783 689 q 780 682 781 685 q 775 678 777 680 q 772 674 773 677 q 767 671 769 673 q 762 668 765 670 q 751 668 758 668 q 739 668 742 668 q 728 672 735 668 q 716 682 720 675 q 707 696 710 688 q 706 704 706 701 q 706 713 706 707 q 710 727 706 720 m 721 723 q 720 719 720 720 q 718 714 720 717 l 718 707 q 719 704 718 707 q 720 701 720 702 q 723 694 720 696 q 725 691 724 693 q 727 689 727 689 q 734 685 730 686 q 741 682 739 682 l 749 682 q 758 682 754 682 q 763 686 760 686 q 767 688 766 687 q 769 690 768 689 q 772 694 771 693 q 773 697 773 696 q 776 703 775 700 q 776 709 776 706 q 776 714 776 712 q 776 720 776 717 q 773 725 774 722 q 769 728 771 727 q 760 735 765 734 q 757 737 759 737 q 752 738 754 738 l 745 738 q 738 737 740 738 q 734 735 735 735 q 731 734 733 734 q 729 731 730 733 q 727 728 727 730 q 721 723 721 723 m 839 706 l 845 700 q 846 697 845 699 q 849 695 847 696 q 847 689 849 692 l 828 630 l 885 656 q 891 657 886 657 q 895 655 894 657 l 902 649 l 821 612 l 811 620 l 839 706 m 878 549 l 845 588 l 908 641 l 942 602 l 932 592 l 906 622 l 891 609 l 911 584 l 899 576 l 880 601 l 864 586 l 888 557 l 878 549 m 888 531 l 882 543 l 952 585 l 968 559 q 970 555 970 557 q 971 549 970 553 q 970 541 973 544 q 967 532 969 535 q 964 529 965 530 q 959 525 962 527 q 955 524 957 524 q 952 523 954 523 q 948 522 950 523 q 945 523 947 522 q 938 524 943 523 q 934 526 936 525 q 932 528 933 526 l 916 487 l 910 496 q 907 501 907 497 q 909 507 907 505 l 923 540 l 918 549 l 888 531 m 949 566 l 929 555 l 938 542 q 940 537 939 538 q 944 536 941 537 l 949 536 q 952 537 950 536 q 957 540 953 537 q 957 543 957 542 q 957 544 957 543 q 958 549 958 545 q 957 550 957 549 q 957 553 957 551 l 949 566 m 987 483 q 988 488 988 484 q 987 491 988 490 q 985 496 985 493 q 982 498 984 496 q 978 499 981 499 q 975 499 977 500 q 974 498 974 498 q 972 497 973 497 q 971 495 971 496 q 970 494 970 495 l 970 489 l 970 482 l 970 480 l 970 478 l 970 471 q 969 469 970 470 q 969 465 969 467 q 956 451 966 456 q 951 449 953 450 q 944 450 948 448 q 935 451 940 450 q 930 454 932 453 q 926 458 928 456 q 923 462 924 460 q 920 467 922 464 q 918 477 918 474 q 920 487 918 480 q 922 490 920 489 q 924 493 924 493 q 925 496 924 496 q 927 497 928 497 l 930 496 q 933 491 932 492 q 934 490 933 490 q 934 488 934 489 q 932 484 934 485 l 932 483 l 932 477 q 933 471 932 474 q 934 470 933 470 q 936 467 935 469 q 938 466 937 467 q 940 464 939 464 q 942 464 941 464 q 944 462 943 464 q 948 462 946 462 q 951 464 950 462 q 954 465 952 464 q 956 469 956 468 q 957 474 957 470 l 957 479 l 957 482 l 957 490 q 957 499 957 496 q 959 503 958 501 q 962 506 960 504 q 965 509 964 508 q 970 511 967 510 q 979 512 975 513 q 988 510 984 512 q 992 507 990 509 q 996 503 995 506 q 1000 496 998 502 q 1002 489 1002 491 q 1001 482 1002 484 q 998 475 1001 479 q 998 472 998 474 q 997 470 998 470 l 992 472 q 990 474 990 473 q 988 477 989 475 q 987 480 987 478 q 987 483 987 483 m 937 422 l 933 434 l 1012 457 l 1016 444 l 937 422 m 981 422 l 994 422 q 1003 418 998 422 q 1009 417 1006 418 q 1012 413 1011 415 q 1017 410 1015 411 q 1021 405 1019 408 q 1026 398 1023 400 q 1030 385 1028 391 l 1030 374 q 1026 364 1028 367 q 1024 358 1025 360 q 1021 353 1023 356 l 1014 346 q 1009 343 1011 344 q 1004 341 1006 342 q 994 339 999 339 q 981 339 987 338 q 970 341 975 339 q 966 343 969 342 q 961 345 964 344 q 957 350 959 347 q 954 353 956 352 q 949 364 950 357 q 946 368 947 366 q 945 374 945 371 q 946 391 944 384 q 953 405 950 399 q 965 416 957 411 q 973 420 969 418 q 981 422 977 422 m 983 408 q 976 405 977 408 q 969 402 972 405 q 964 398 966 401 q 961 391 961 394 q 960 388 960 390 q 958 384 959 385 l 958 377 q 961 369 960 371 q 964 363 961 365 q 967 359 965 360 q 969 356 968 358 q 972 355 970 356 q 976 352 974 353 q 979 352 977 352 q 983 352 981 352 q 990 352 986 349 q 1002 355 998 352 q 1010 363 1005 356 q 1015 373 1015 368 q 1016 384 1016 378 q 1014 391 1016 388 q 1012 395 1012 393 q 1010 398 1011 396 q 1007 400 1009 398 q 1005 402 1006 401 q 998 405 1002 405 q 990 408 996 408 q 983 408 988 410 m 946 258 l 947 269 l 1014 311 l 951 314 l 951 328 l 1033 321 l 1033 313 q 1032 307 1033 310 q 1030 304 1030 306 l 973 269 l 1030 265 l 1029 252 l 946 258 z "},"4":{"ha":1161,"x_min":85,"x_max":1033,"o":"m 561 23 q 668 44 617 23 q 759 99 719 65 l 363 99 q 453 44 403 65 q 561 23 503 23 m 397 131 l 788 131 q 837 217 819 169 q 854 319 854 266 q 836 424 854 375 q 780 520 818 472 l 397 131 m 561 679 q 423 651 488 679 q 309 575 359 623 q 231 461 260 527 q 202 319 202 396 q 230 184 202 248 q 305 70 257 119 q 418 -8 352 21 q 561 -37 484 -37 q 609 -33 585 -37 q 656 -23 634 -30 q 758 24 710 -7 q 841 100 806 56 q 897 200 877 144 q 918 319 918 255 q 891 454 918 390 q 816 569 864 519 q 703 649 769 619 q 561 679 637 679 m 561 -10 q 431 17 491 -10 q 327 89 372 43 q 258 194 283 134 q 234 319 234 253 q 258 444 234 385 q 326 549 282 503 q 430 621 370 595 q 561 648 490 648 q 647 636 607 648 q 740 595 696 623 q 817 525 784 566 q 869 432 850 484 q 888 319 888 380 q 862 191 888 252 q 792 86 837 131 q 688 16 747 42 q 561 -10 628 -10 m 332 507 q 283 422 300 469 q 265 319 265 375 q 284 212 265 262 q 339 121 304 161 l 724 507 l 332 507 m 561 616 q 452 596 503 616 q 362 540 402 576 l 755 540 q 667 595 717 575 q 561 616 617 616 m 665 -57 l 602 -69 l 605 -87 l 628 -82 l 640 -144 l 658 -141 l 647 -79 l 668 -75 l 665 -57 m 734 -82 q 728 -76 734 -77 l 720 -72 l 710 -72 l 706 -72 l 700 -72 l 698 -72 l 698 -71 q 696 -69 696 -69 l 694 -68 q 696 -65 696 -68 q 696 -64 696 -64 l 698 -64 q 701 -64 698 -64 l 701 -62 l 702 -62 l 706 -62 l 707 -62 q 710 -61 710 -62 q 716 -61 714 -61 q 717 -58 716 -59 q 717 -57 717 -57 l 720 -50 l 716 -48 q 707 -45 710 -45 q 705 -44 707 -45 q 701 -43 703 -43 q 697 -44 699 -43 q 694 -45 696 -45 l 686 -50 q 683 -53 684 -51 q 681 -57 681 -55 q 675 -68 675 -62 q 675 -71 675 -69 q 677 -76 675 -73 q 684 -85 679 -82 q 687 -86 685 -85 q 689 -89 688 -88 q 694 -89 692 -89 q 698 -90 696 -90 l 707 -90 l 714 -90 l 714 -90 q 717 -92 716 -90 q 720 -93 720 -92 l 721 -93 l 721 -96 q 721 -99 721 -98 q 720 -100 720 -99 l 720 -101 q 719 -102 720 -101 q 717 -104 718 -104 q 714 -106 716 -106 q 712 -106 714 -106 q 710 -106 710 -106 q 707 -106 708 -106 q 706 -106 707 -106 l 701 -106 l 696 -106 l 693 -107 q 693 -108 693 -107 q 692 -109 693 -109 l 688 -115 q 691 -118 689 -117 q 693 -122 692 -120 q 697 -123 695 -122 q 702 -123 700 -123 q 710 -125 707 -126 q 715 -124 713 -125 q 720 -123 718 -123 q 725 -121 723 -122 q 731 -118 727 -120 q 734 -114 734 -115 q 738 -109 735 -113 q 740 -104 738 -106 q 741 -99 741 -102 q 741 -93 741 -95 q 738 -89 740 -91 q 734 -82 738 -83 m 769 -85 q 766 -82 768 -82 q 764 -82 766 -82 q 762 -82 763 -82 q 758 -82 761 -82 l 753 -85 q 752 -88 752 -86 l 752 -89 q 751 -92 751 -90 l 751 -93 q 752 -95 751 -95 q 752 -96 752 -96 q 754 -101 752 -101 q 759 -104 755 -104 l 763 -104 q 768 -102 766 -104 q 770 -101 769 -102 q 772 -99 772 -101 l 772 -98 q 773 -96 772 -96 q 775 -95 775 -95 l 775 -93 q 772 -89 775 -89 q 769 -85 769 -85 m 577 -122 q 576 -119 576 -122 q 576 -118 576 -118 q 575 -117 575 -118 q 574 -115 575 -115 l 545 -73 q 543 -71 545 -72 q 537 -69 543 -69 l 531 -69 l 522 -69 l 523 -152 l 543 -151 l 543 -96 l 578 -151 l 595 -151 l 595 -69 l 575 -69 l 577 -122 m 405 -59 l 439 -71 l 444 -54 l 394 -36 l 365 -109 l 384 -117 l 394 -89 l 420 -99 l 427 -82 l 401 -71 l 405 -59 m 509 -79 l 503 -71 q 498 -68 501 -69 q 493 -65 496 -67 q 488 -64 490 -64 q 483 -62 486 -63 q 477 -61 479 -61 q 471 -61 474 -61 q 462 -64 464 -61 q 457 -65 459 -64 q 451 -68 454 -66 l 444 -75 q 437 -82 441 -81 q 434 -89 436 -86 q 433 -93 433 -91 l 433 -106 l 436 -116 l 439 -125 l 447 -133 q 452 -136 450 -135 q 457 -139 455 -137 q 467 -141 461 -141 q 473 -142 470 -142 q 477 -142 475 -142 q 487 -141 481 -142 q 493 -139 490 -140 q 497 -136 496 -138 q 505 -129 502 -135 l 511 -122 q 516 -109 514 -116 l 516 -99 q 515 -95 516 -97 q 513 -89 515 -92 q 511 -83 512 -85 q 509 -79 510 -82 m 497 -106 q 496 -111 497 -109 q 493 -115 495 -113 q 490 -118 491 -117 q 487 -122 489 -120 q 483 -123 484 -122 q 478 -123 481 -123 q 470 -123 474 -126 q 466 -123 468 -123 q 462 -122 464 -122 l 457 -115 q 454 -111 455 -113 q 454 -106 454 -109 q 454 -96 452 -102 q 457 -89 454 -92 l 462 -82 l 470 -79 l 478 -79 l 487 -82 l 493 -89 q 496 -92 495 -91 q 497 -96 497 -94 q 497 -106 498 -102 m 898 129 q 897 126 898 128 q 896 122 896 125 q 897 119 896 121 q 898 116 898 118 l 926 76 l 878 83 l 872 83 l 865 79 l 859 68 l 926 23 l 938 38 l 905 61 l 947 52 l 955 66 l 932 101 l 964 80 l 975 96 l 907 141 l 898 129 m 890 41 l 880 50 l 870 52 q 859 54 867 54 q 855 54 857 54 q 849 52 852 54 l 840 50 q 835 46 838 48 q 830 41 832 43 q 827 37 828 39 q 825 33 826 35 q 822 28 822 30 q 819 23 821 26 q 819 18 819 20 q 818 12 818 16 q 818 8 818 10 q 819 2 818 5 l 822 -8 l 829 -16 l 839 -23 q 844 -25 842 -23 q 849 -27 845 -27 q 855 -28 852 -27 q 859 -30 857 -30 q 864 -28 861 -30 q 870 -27 866 -27 q 874 -25 872 -27 q 879 -23 877 -23 q 888 -16 884 -21 l 895 -8 q 897 -4 896 -6 q 898 2 898 -2 q 899 12 899 5 l 899 23 l 895 31 q 892 37 894 34 q 890 41 890 41 m 880 4 q 875 -3 878 -2 q 868 -9 870 -8 q 864 -10 866 -10 q 859 -10 861 -10 q 855 -9 857 -10 q 852 -9 852 -9 l 844 -3 q 839 5 841 0 q 839 12 839 8 q 839 20 839 18 q 844 29 841 26 l 852 34 q 855 34 853 34 q 859 35 858 35 q 868 33 863 35 q 872 31 870 32 q 875 27 873 30 q 878 24 877 26 q 880 20 879 23 q 882 12 882 18 q 881 7 882 10 q 880 4 880 4 m 829 -37 l 825 -40 q 822 -42 823 -40 q 821 -45 821 -43 l 818 -51 l 812 -56 q 808 -58 809 -57 q 804 -59 806 -59 q 795 -59 799 -61 q 792 -57 793 -57 q 787 -56 790 -57 q 783 -48 783 -53 q 780 -40 780 -47 q 780 -30 776 -38 q 780 -28 780 -30 q 780 -23 780 -26 q 783 -20 782 -22 q 786 -18 785 -19 q 793 -16 792 -16 q 800 -15 795 -15 q 807 -12 801 -15 q 811 -9 808 -10 l 812 -4 l 812 2 q 804 5 810 5 l 794 5 l 785 2 l 777 -2 q 773 -5 776 -3 q 769 -10 771 -7 q 766 -13 767 -11 q 763 -19 765 -16 l 759 -30 l 759 -40 q 760 -45 759 -43 q 761 -50 761 -47 l 766 -61 q 770 -65 767 -63 q 773 -68 772 -66 l 783 -75 l 791 -76 q 802 -78 794 -78 q 807 -77 805 -78 q 812 -76 809 -76 q 818 -73 815 -75 q 822 -69 820 -71 q 826 -68 824 -69 q 829 -64 828 -67 q 833 -62 832 -64 q 836 -57 834 -60 l 839 -48 q 842 -39 842 -45 l 833 -37 l 829 -37 m 350 -10 l 280 -61 l 290 -68 q 292 -68 290 -68 q 293 -68 293 -68 q 296 -68 295 -68 q 297 -68 296 -69 l 300 -68 q 304 -68 303 -68 l 311 -61 l 339 -76 l 337 -87 l 337 -90 q 338 -92 337 -92 q 339 -93 338 -93 l 339 -95 q 339 -96 339 -96 l 342 -99 l 353 -106 l 365 -19 l 350 -10 m 342 -39 l 342 -40 l 342 -43 l 341 -57 l 328 -50 l 339 -40 l 341 -40 q 342 -40 342 -40 l 342 -39 l 342 -38 l 343 -38 q 345 -37 344 -37 l 342 -39 m 321 -13 l 333 1 l 286 42 l 272 27 l 290 12 l 250 -34 l 264 -47 l 306 2 l 321 -13 m 168 95 l 226 89 q 230 89 227 89 q 231 89 231 89 q 234 89 232 89 l 241 95 l 210 148 l 194 139 l 212 109 l 155 115 q 151 114 154 115 q 146 112 148 114 l 139 109 l 170 54 l 186 64 l 168 95 m 238 20 l 253 33 l 234 54 l 244 62 l 266 35 l 280 47 l 246 89 l 183 36 l 219 -4 l 232 9 l 210 34 l 221 42 l 238 20 m 122 325 l 157 327 q 160 324 158 326 q 162 321 161 323 q 165 318 164 320 q 166 314 166 316 q 168 306 167 310 q 169 302 168 304 q 169 299 169 300 q 169 289 169 293 q 167 281 168 285 q 164 273 166 276 q 159 266 161 269 q 146 257 155 260 q 130 252 138 252 l 118 252 q 113 254 115 253 q 108 257 110 255 q 103 259 105 258 q 99 262 102 260 q 95 266 97 264 q 92 271 93 268 q 89 275 90 273 q 87 280 89 277 q 86 286 86 283 q 85 293 85 289 q 85 297 85 294 q 85 300 85 299 q 87 310 87 306 q 89 313 89 312 q 92 318 90 315 q 94 321 93 319 q 96 325 95 323 l 99 321 q 102 320 101 321 q 102 319 102 319 q 103 314 103 318 q 103 312 103 313 q 102 310 103 311 q 99 302 99 306 q 99 293 99 299 q 101 281 99 287 q 104 276 102 279 q 108 273 106 274 q 117 267 111 269 q 129 266 122 265 q 137 267 134 266 q 140 269 139 268 q 143 271 141 269 q 146 273 144 273 q 149 276 148 273 q 151 278 150 277 q 154 281 152 280 q 154 286 154 284 q 155 290 155 287 q 156 297 156 293 q 155 302 155 299 q 154 307 155 304 q 150 314 154 309 l 137 313 l 137 310 l 137 306 q 135 303 137 305 q 134 301 135 302 q 133 300 134 300 q 128 299 131 299 l 124 299 l 122 325 m 173 387 l 167 335 l 85 343 l 90 395 l 103 394 l 99 356 l 120 352 l 123 385 l 137 384 l 134 352 l 155 350 l 159 390 l 173 387 m 103 401 l 92 405 l 107 467 l 120 464 l 113 438 l 181 422 l 178 409 l 110 425 l 103 401 m 132 496 l 120 502 l 148 559 l 160 554 l 149 531 l 211 500 l 206 488 l 143 519 l 132 496 m 262 578 l 254 567 l 227 588 l 202 555 l 231 534 l 223 523 l 155 572 l 163 582 l 191 563 l 215 595 l 188 616 l 195 627 l 262 578 m 306 620 l 269 584 l 211 644 l 248 681 l 258 670 l 231 643 l 245 628 l 267 650 l 276 641 l 254 620 l 269 603 l 297 630 l 306 620 m 346 706 l 353 694 l 326 677 l 343 648 l 333 641 l 290 710 l 333 738 l 339 727 l 307 707 l 319 688 l 346 706 m 380 706 q 384 699 380 701 q 391 694 385 696 q 394 693 391 693 q 398 693 396 693 q 405 694 401 693 q 411 699 410 696 q 416 706 415 702 q 417 713 417 707 q 416 720 417 717 l 398 766 l 409 773 l 429 725 q 430 719 430 721 q 431 713 431 716 q 429 700 431 706 q 425 694 427 696 q 420 689 424 692 q 416 684 418 686 q 411 682 414 683 q 404 680 407 681 q 398 679 401 679 q 385 682 391 679 q 379 684 381 683 q 374 689 377 686 q 367 700 370 694 l 346 746 l 359 752 l 380 706 m 450 696 l 429 777 l 443 780 l 458 714 l 492 720 l 495 707 l 450 696 m 497 707 l 489 790 l 503 791 l 510 723 l 545 727 l 545 713 l 497 707 m 589 710 l 576 713 l 585 794 l 615 791 q 625 788 620 791 q 633 781 631 785 q 637 773 635 780 q 639 762 640 767 q 637 757 637 760 q 635 752 637 755 q 629 744 631 746 q 620 739 627 741 q 610 738 617 738 l 593 740 l 589 710 m 611 752 l 616 752 q 621 755 618 752 q 623 759 623 755 q 626 764 624 760 q 625 769 626 767 q 624 771 624 770 q 623 773 623 773 q 621 775 622 774 q 619 776 620 776 q 616 777 617 777 q 615 778 615 777 l 597 780 l 594 753 l 611 752 m 650 702 l 637 706 l 658 784 l 688 776 q 696 773 693 776 q 703 766 700 769 q 706 756 706 762 q 706 750 707 753 q 706 746 706 748 q 702 739 704 742 q 698 734 700 735 q 691 731 693 731 q 688 729 689 729 q 685 727 686 728 l 700 688 l 689 689 q 687 691 688 690 q 685 693 686 693 q 681 699 682 694 l 668 731 l 658 734 l 650 702 m 668 767 l 661 746 l 679 741 q 681 741 680 741 q 682 741 681 741 q 685 742 684 741 q 688 742 686 742 q 689 743 689 742 q 689 745 689 745 q 693 749 693 748 q 693 754 693 752 q 693 757 693 755 q 692 759 693 758 q 690 760 691 760 q 689 762 689 760 q 685 764 687 764 l 668 767 m 710 727 q 712 733 710 731 q 716 738 714 735 q 719 741 717 740 q 724 745 721 743 q 728 747 726 747 q 734 749 731 748 q 744 752 737 752 l 754 752 q 766 747 760 751 q 776 741 771 745 q 780 737 778 739 q 783 734 781 734 q 785 729 784 731 q 787 724 786 727 q 789 718 788 720 q 790 714 790 716 q 790 708 790 710 q 788 702 790 706 q 787 697 787 700 q 785 692 786 694 q 782 687 783 689 q 780 682 781 685 q 775 678 777 680 q 772 674 773 677 q 767 671 769 673 q 762 668 765 670 q 751 668 758 668 q 739 668 742 668 q 728 672 735 668 q 716 682 720 675 q 707 696 710 688 q 706 704 706 701 q 706 713 706 707 q 710 727 706 720 m 721 723 q 720 719 720 720 q 718 714 720 717 l 718 707 q 719 704 718 707 q 720 701 720 702 q 723 694 720 696 q 725 691 724 693 q 727 689 727 689 q 734 685 730 686 q 741 682 739 682 l 749 682 q 758 682 754 682 q 763 686 760 686 q 767 688 766 687 q 769 690 768 689 q 772 694 771 693 q 773 697 773 696 q 776 703 775 700 q 776 709 776 706 q 776 714 776 712 q 776 720 776 717 q 773 725 774 722 q 769 728 771 727 q 760 735 765 734 q 757 737 759 737 q 752 738 754 738 l 745 738 q 738 737 740 738 q 734 735 735 735 q 731 734 733 734 q 729 731 730 733 q 727 728 727 730 q 721 723 721 723 m 839 706 l 845 700 q 846 697 845 699 q 849 695 847 696 q 847 689 849 692 l 828 630 l 885 656 q 891 657 886 657 q 895 655 894 657 l 902 649 l 821 612 l 811 620 l 839 706 m 878 549 l 845 588 l 908 641 l 942 602 l 932 592 l 906 622 l 891 609 l 911 584 l 899 576 l 880 601 l 864 586 l 888 557 l 878 549 m 888 531 l 882 543 l 952 585 l 968 559 q 970 555 970 557 q 971 549 970 553 q 970 541 973 544 q 967 532 969 535 q 964 529 965 530 q 959 525 962 527 q 955 524 957 524 q 952 523 954 523 q 948 522 950 523 q 945 523 947 522 q 938 524 943 523 q 934 526 936 525 q 932 528 933 526 l 916 487 l 910 496 q 907 501 907 497 q 909 507 907 505 l 923 540 l 918 549 l 888 531 m 949 566 l 929 555 l 938 542 q 940 537 939 538 q 944 536 941 537 l 949 536 q 952 537 950 536 q 957 540 953 537 q 957 543 957 542 q 957 544 957 543 q 958 549 958 545 q 957 550 957 549 q 957 553 957 551 l 949 566 m 987 483 q 988 488 988 484 q 987 491 988 490 q 985 496 985 493 q 982 498 984 496 q 978 499 981 499 q 975 499 977 500 q 974 498 974 498 q 972 497 973 497 q 971 495 971 496 q 970 494 970 495 l 970 489 l 970 482 l 970 480 l 970 478 l 970 471 q 969 469 970 470 q 969 465 969 467 q 956 451 966 456 q 951 449 953 450 q 944 450 948 448 q 935 451 940 450 q 930 454 932 453 q 926 458 928 456 q 923 462 924 460 q 920 467 922 464 q 918 477 918 474 q 920 487 918 480 q 922 490 920 489 q 924 493 924 493 q 925 496 924 496 q 927 497 928 497 l 930 496 q 933 491 932 492 q 934 490 933 490 q 934 488 934 489 q 932 484 934 485 l 932 483 l 932 477 q 933 471 932 474 q 934 470 933 470 q 936 467 935 469 q 938 466 937 467 q 940 464 939 464 q 942 464 941 464 q 944 462 943 464 q 948 462 946 462 q 951 464 950 462 q 954 465 952 464 q 956 469 956 468 q 957 474 957 470 l 957 479 l 957 482 l 957 490 q 957 499 957 496 q 959 503 958 501 q 962 506 960 504 q 965 509 964 508 q 970 511 967 510 q 979 512 975 513 q 988 510 984 512 q 992 507 990 509 q 996 503 995 506 q 1000 496 998 502 q 1002 489 1002 491 q 1001 482 1002 484 q 998 475 1001 479 q 998 472 998 474 q 997 470 998 470 l 992 472 q 990 474 990 473 q 988 477 989 475 q 987 480 987 478 q 987 483 987 483 m 937 422 l 933 434 l 1012 457 l 1016 444 l 937 422 m 981 422 l 994 422 q 1003 418 998 422 q 1009 417 1006 418 q 1012 413 1011 415 q 1017 410 1015 411 q 1021 405 1019 408 q 1026 398 1023 400 q 1030 385 1028 391 l 1030 374 q 1026 364 1028 367 q 1024 358 1025 360 q 1021 353 1023 356 l 1014 346 q 1009 343 1011 344 q 1004 341 1006 342 q 994 339 999 339 q 981 339 987 338 q 970 341 975 339 q 966 343 969 342 q 961 345 964 344 q 957 350 959 347 q 954 353 956 352 q 949 364 950 357 q 946 368 947 366 q 945 374 945 371 q 946 391 944 384 q 953 405 950 399 q 965 416 957 411 q 973 420 969 418 q 981 422 977 422 m 983 408 q 976 405 977 408 q 969 402 972 405 q 964 398 966 401 q 961 391 961 394 q 960 388 960 390 q 958 384 959 385 l 958 377 q 961 369 960 371 q 964 363 961 365 q 967 359 965 360 q 969 356 968 358 q 972 355 970 356 q 976 352 974 353 q 979 352 977 352 q 983 352 981 352 q 990 352 986 349 q 1002 355 998 352 q 1010 363 1005 356 q 1015 373 1015 368 q 1016 384 1016 378 q 1014 391 1016 388 q 1012 395 1012 393 q 1010 398 1011 396 q 1007 400 1009 398 q 1005 402 1006 401 q 998 405 1002 405 q 990 408 996 408 q 983 408 988 410 m 946 258 l 947 269 l 1014 311 l 951 314 l 951 328 l 1033 321 l 1033 313 q 1032 307 1033 310 q 1030 304 1030 306 l 973 269 l 1030 265 l 1029 252 l 946 258 z "},"5":{"ha":1161,"x_min":85,"x_max":1033,"o":"m 561 23 q 668 44 617 23 q 759 99 719 65 l 363 99 q 453 44 403 65 q 561 23 503 23 m 397 131 l 788 131 q 837 217 819 169 q 854 319 854 266 q 836 424 854 375 q 780 520 818 472 l 397 131 m 561 679 q 423 651 488 679 q 309 575 359 623 q 231 461 260 527 q 202 319 202 396 q 230 184 202 248 q 305 70 257 119 q 418 -8 352 21 q 561 -37 484 -37 q 609 -33 585 -37 q 656 -23 634 -30 q 758 24 710 -7 q 841 100 806 56 q 897 200 877 144 q 918 319 918 255 q 891 454 918 390 q 816 569 864 519 q 703 649 769 619 q 561 679 637 679 m 561 -10 q 431 17 491 -10 q 327 89 372 43 q 258 194 283 134 q 234 319 234 253 q 258 444 234 385 q 326 549 282 503 q 430 621 370 595 q 561 648 490 648 q 647 636 607 648 q 740 595 696 623 q 817 525 784 566 q 869 432 850 484 q 888 319 888 380 q 862 191 888 252 q 792 86 837 131 q 688 16 747 42 q 561 -10 628 -10 m 332 507 q 283 422 300 469 q 265 319 265 375 q 284 212 265 262 q 339 121 304 161 l 724 507 l 332 507 m 561 616 q 452 596 503 616 q 362 540 402 576 l 755 540 q 667 595 717 575 q 561 616 617 616 m 665 -57 l 602 -69 l 605 -87 l 628 -82 l 640 -144 l 658 -141 l 647 -79 l 668 -75 l 665 -57 m 734 -82 q 728 -76 734 -77 l 720 -72 l 710 -72 l 706 -72 l 700 -72 l 698 -72 l 698 -71 q 696 -69 696 -69 l 694 -68 q 696 -65 696 -68 q 696 -64 696 -64 l 698 -64 q 701 -64 698 -64 l 701 -62 l 702 -62 l 706 -62 l 707 -62 q 710 -61 710 -62 q 716 -61 714 -61 q 717 -58 716 -59 q 717 -57 717 -57 l 720 -50 l 716 -48 q 707 -45 710 -45 q 705 -44 707 -45 q 701 -43 703 -43 q 697 -44 699 -43 q 694 -45 696 -45 l 686 -50 q 683 -53 684 -51 q 681 -57 681 -55 q 675 -68 675 -62 q 675 -71 675 -69 q 677 -76 675 -73 q 684 -85 679 -82 q 687 -86 685 -85 q 689 -89 688 -88 q 694 -89 692 -89 q 698 -90 696 -90 l 707 -90 l 714 -90 l 714 -90 q 717 -92 716 -90 q 720 -93 720 -92 l 721 -93 l 721 -96 q 721 -99 721 -98 q 720 -100 720 -99 l 720 -101 q 719 -102 720 -101 q 717 -104 718 -104 q 714 -106 716 -106 q 712 -106 714 -106 q 710 -106 710 -106 q 707 -106 708 -106 q 706 -106 707 -106 l 701 -106 l 696 -106 l 693 -107 q 693 -108 693 -107 q 692 -109 693 -109 l 688 -115 q 691 -118 689 -117 q 693 -122 692 -120 q 697 -123 695 -122 q 702 -123 700 -123 q 710 -125 707 -126 q 715 -124 713 -125 q 720 -123 718 -123 q 725 -121 723 -122 q 731 -118 727 -120 q 734 -114 734 -115 q 738 -109 735 -113 q 740 -104 738 -106 q 741 -99 741 -102 q 741 -93 741 -95 q 738 -89 740 -91 q 734 -82 738 -83 m 769 -85 q 766 -82 768 -82 q 764 -82 766 -82 q 762 -82 763 -82 q 758 -82 761 -82 l 753 -85 q 752 -88 752 -86 l 752 -89 q 751 -92 751 -90 l 751 -93 q 752 -95 751 -95 q 752 -96 752 -96 q 754 -101 752 -101 q 759 -104 755 -104 l 763 -104 q 768 -102 766 -104 q 770 -101 769 -102 q 772 -99 772 -101 l 772 -98 q 773 -96 772 -96 q 775 -95 775 -95 l 775 -93 q 772 -89 775 -89 q 769 -85 769 -85 m 577 -122 q 576 -119 576 -122 q 576 -118 576 -118 q 575 -117 575 -118 q 574 -115 575 -115 l 545 -73 q 543 -71 545 -72 q 537 -69 543 -69 l 531 -69 l 522 -69 l 523 -152 l 543 -151 l 543 -96 l 578 -151 l 595 -151 l 595 -69 l 575 -69 l 577 -122 m 405 -59 l 439 -71 l 444 -54 l 394 -36 l 365 -109 l 384 -117 l 394 -89 l 420 -99 l 427 -82 l 401 -71 l 405 -59 m 509 -79 l 503 -71 q 498 -68 501 -69 q 493 -65 496 -67 q 488 -64 490 -64 q 483 -62 486 -63 q 477 -61 479 -61 q 471 -61 474 -61 q 462 -64 464 -61 q 457 -65 459 -64 q 451 -68 454 -66 l 444 -75 q 437 -82 441 -81 q 434 -89 436 -86 q 433 -93 433 -91 l 433 -106 l 436 -116 l 439 -125 l 447 -133 q 452 -136 450 -135 q 457 -139 455 -137 q 467 -141 461 -141 q 473 -142 470 -142 q 477 -142 475 -142 q 487 -141 481 -142 q 493 -139 490 -140 q 497 -136 496 -138 q 505 -129 502 -135 l 511 -122 q 516 -109 514 -116 l 516 -99 q 515 -95 516 -97 q 513 -89 515 -92 q 511 -83 512 -85 q 509 -79 510 -82 m 497 -106 q 496 -111 497 -109 q 493 -115 495 -113 q 490 -118 491 -117 q 487 -122 489 -120 q 483 -123 484 -122 q 478 -123 481 -123 q 470 -123 474 -126 q 466 -123 468 -123 q 462 -122 464 -122 l 457 -115 q 454 -111 455 -113 q 454 -106 454 -109 q 454 -96 452 -102 q 457 -89 454 -92 l 462 -82 l 470 -79 l 478 -79 l 487 -82 l 493 -89 q 496 -92 495 -91 q 497 -96 497 -94 q 497 -106 498 -102 m 898 129 q 897 126 898 128 q 896 122 896 125 q 897 119 896 121 q 898 116 898 118 l 926 76 l 878 83 l 872 83 l 865 79 l 859 68 l 926 23 l 938 38 l 905 61 l 947 52 l 955 66 l 932 101 l 964 80 l 975 96 l 907 141 l 898 129 m 890 41 l 880 50 l 870 52 q 859 54 867 54 q 855 54 857 54 q 849 52 852 54 l 840 50 q 835 46 838 48 q 830 41 832 43 q 827 37 828 39 q 825 33 826 35 q 822 28 822 30 q 819 23 821 26 q 819 18 819 20 q 818 12 818 16 q 818 8 818 10 q 819 2 818 5 l 822 -8 l 829 -16 l 839 -23 q 844 -25 842 -23 q 849 -27 845 -27 q 855 -28 852 -27 q 859 -30 857 -30 q 864 -28 861 -30 q 870 -27 866 -27 q 874 -25 872 -27 q 879 -23 877 -23 q 888 -16 884 -21 l 895 -8 q 897 -4 896 -6 q 898 2 898 -2 q 899 12 899 5 l 899 23 l 895 31 q 892 37 894 34 q 890 41 890 41 m 880 4 q 875 -3 878 -2 q 868 -9 870 -8 q 864 -10 866 -10 q 859 -10 861 -10 q 855 -9 857 -10 q 852 -9 852 -9 l 844 -3 q 839 5 841 0 q 839 12 839 8 q 839 20 839 18 q 844 29 841 26 l 852 34 q 855 34 853 34 q 859 35 858 35 q 868 33 863 35 q 872 31 870 32 q 875 27 873 30 q 878 24 877 26 q 880 20 879 23 q 882 12 882 18 q 881 7 882 10 q 880 4 880 4 m 829 -37 l 825 -40 q 822 -42 823 -40 q 821 -45 821 -43 l 818 -51 l 812 -56 q 808 -58 809 -57 q 804 -59 806 -59 q 795 -59 799 -61 q 792 -57 793 -57 q 787 -56 790 -57 q 783 -48 783 -53 q 780 -40 780 -47 q 780 -30 776 -38 q 780 -28 780 -30 q 780 -23 780 -26 q 783 -20 782 -22 q 786 -18 785 -19 q 793 -16 792 -16 q 800 -15 795 -15 q 807 -12 801 -15 q 811 -9 808 -10 l 812 -4 l 812 2 q 804 5 810 5 l 794 5 l 785 2 l 777 -2 q 773 -5 776 -3 q 769 -10 771 -7 q 766 -13 767 -11 q 763 -19 765 -16 l 759 -30 l 759 -40 q 760 -45 759 -43 q 761 -50 761 -47 l 766 -61 q 770 -65 767 -63 q 773 -68 772 -66 l 783 -75 l 791 -76 q 802 -78 794 -78 q 807 -77 805 -78 q 812 -76 809 -76 q 818 -73 815 -75 q 822 -69 820 -71 q 826 -68 824 -69 q 829 -64 828 -67 q 833 -62 832 -64 q 836 -57 834 -60 l 839 -48 q 842 -39 842 -45 l 833 -37 l 829 -37 m 350 -10 l 280 -61 l 290 -68 q 292 -68 290 -68 q 293 -68 293 -68 q 296 -68 295 -68 q 297 -68 296 -69 l 300 -68 q 304 -68 303 -68 l 311 -61 l 339 -76 l 337 -87 l 337 -90 q 338 -92 337 -92 q 339 -93 338 -93 l 339 -95 q 339 -96 339 -96 l 342 -99 l 353 -106 l 365 -19 l 350 -10 m 342 -39 l 342 -40 l 342 -43 l 341 -57 l 328 -50 l 339 -40 l 341 -40 q 342 -40 342 -40 l 342 -39 l 342 -38 l 343 -38 q 345 -37 344 -37 l 342 -39 m 321 -13 l 333 1 l 286 42 l 272 27 l 290 12 l 250 -34 l 264 -47 l 306 2 l 321 -13 m 168 95 l 226 89 q 230 89 227 89 q 231 89 231 89 q 234 89 232 89 l 241 95 l 210 148 l 194 139 l 212 109 l 155 115 q 151 114 154 115 q 146 112 148 114 l 139 109 l 170 54 l 186 64 l 168 95 m 238 20 l 253 33 l 234 54 l 244 62 l 266 35 l 280 47 l 246 89 l 183 36 l 219 -4 l 232 9 l 210 34 l 221 42 l 238 20 m 122 325 l 157 327 q 160 324 158 326 q 162 321 161 323 q 165 318 164 320 q 166 314 166 316 q 168 306 167 310 q 169 302 168 304 q 169 299 169 300 q 169 289 169 293 q 167 281 168 285 q 164 273 166 276 q 159 266 161 269 q 146 257 155 260 q 130 252 138 252 l 118 252 q 113 254 115 253 q 108 257 110 255 q 103 259 105 258 q 99 262 102 260 q 95 266 97 264 q 92 271 93 268 q 89 275 90 273 q 87 280 89 277 q 86 286 86 283 q 85 293 85 289 q 85 297 85 294 q 85 300 85 299 q 87 310 87 306 q 89 313 89 312 q 92 318 90 315 q 94 321 93 319 q 96 325 95 323 l 99 321 q 102 320 101 321 q 102 319 102 319 q 103 314 103 318 q 103 312 103 313 q 102 310 103 311 q 99 302 99 306 q 99 293 99 299 q 101 281 99 287 q 104 276 102 279 q 108 273 106 274 q 117 267 111 269 q 129 266 122 265 q 137 267 134 266 q 140 269 139 268 q 143 271 141 269 q 146 273 144 273 q 149 276 148 273 q 151 278 150 277 q 154 281 152 280 q 154 286 154 284 q 155 290 155 287 q 156 297 156 293 q 155 302 155 299 q 154 307 155 304 q 150 314 154 309 l 137 313 l 137 310 l 137 306 q 135 303 137 305 q 134 301 135 302 q 133 300 134 300 q 128 299 131 299 l 124 299 l 122 325 m 173 387 l 167 335 l 85 343 l 90 395 l 103 394 l 99 356 l 120 352 l 123 385 l 137 384 l 134 352 l 155 350 l 159 390 l 173 387 m 103 401 l 92 405 l 107 467 l 120 464 l 113 438 l 181 422 l 178 409 l 110 425 l 103 401 m 132 496 l 120 502 l 148 559 l 160 554 l 149 531 l 211 500 l 206 488 l 143 519 l 132 496 m 262 578 l 254 567 l 227 588 l 202 555 l 231 534 l 223 523 l 155 572 l 163 582 l 191 563 l 215 595 l 188 616 l 195 627 l 262 578 m 306 620 l 269 584 l 211 644 l 248 681 l 258 670 l 231 643 l 245 628 l 267 650 l 276 641 l 254 620 l 269 603 l 297 630 l 306 620 m 346 706 l 353 694 l 326 677 l 343 648 l 333 641 l 290 710 l 333 738 l 339 727 l 307 707 l 319 688 l 346 706 m 380 706 q 384 699 380 701 q 391 694 385 696 q 394 693 391 693 q 398 693 396 693 q 405 694 401 693 q 411 699 410 696 q 416 706 415 702 q 417 713 417 707 q 416 720 417 717 l 398 766 l 409 773 l 429 725 q 430 719 430 721 q 431 713 431 716 q 429 700 431 706 q 425 694 427 696 q 420 689 424 692 q 416 684 418 686 q 411 682 414 683 q 404 680 407 681 q 398 679 401 679 q 385 682 391 679 q 379 684 381 683 q 374 689 377 686 q 367 700 370 694 l 346 746 l 359 752 l 380 706 m 450 696 l 429 777 l 443 780 l 458 714 l 492 720 l 495 707 l 450 696 m 497 707 l 489 790 l 503 791 l 510 723 l 545 727 l 545 713 l 497 707 m 589 710 l 576 713 l 585 794 l 615 791 q 625 788 620 791 q 633 781 631 785 q 637 773 635 780 q 639 762 640 767 q 637 757 637 760 q 635 752 637 755 q 629 744 631 746 q 620 739 627 741 q 610 738 617 738 l 593 740 l 589 710 m 611 752 l 616 752 q 621 755 618 752 q 623 759 623 755 q 626 764 624 760 q 625 769 626 767 q 624 771 624 770 q 623 773 623 773 q 621 775 622 774 q 619 776 620 776 q 616 777 617 777 q 615 778 615 777 l 597 780 l 594 753 l 611 752 m 650 702 l 637 706 l 658 784 l 688 776 q 696 773 693 776 q 703 766 700 769 q 706 756 706 762 q 706 750 707 753 q 706 746 706 748 q 702 739 704 742 q 698 734 700 735 q 691 731 693 731 q 688 729 689 729 q 685 727 686 728 l 700 688 l 689 689 q 687 691 688 690 q 685 693 686 693 q 681 699 682 694 l 668 731 l 658 734 l 650 702 m 668 767 l 661 746 l 679 741 q 681 741 680 741 q 682 741 681 741 q 685 742 684 741 q 688 742 686 742 q 689 743 689 742 q 689 745 689 745 q 693 749 693 748 q 693 754 693 752 q 693 757 693 755 q 692 759 693 758 q 690 760 691 760 q 689 762 689 760 q 685 764 687 764 l 668 767 m 710 727 q 712 733 710 731 q 716 738 714 735 q 719 741 717 740 q 724 745 721 743 q 728 747 726 747 q 734 749 731 748 q 744 752 737 752 l 754 752 q 766 747 760 751 q 776 741 771 745 q 780 737 778 739 q 783 734 781 734 q 785 729 784 731 q 787 724 786 727 q 789 718 788 720 q 790 714 790 716 q 790 708 790 710 q 788 702 790 706 q 787 697 787 700 q 785 692 786 694 q 782 687 783 689 q 780 682 781 685 q 775 678 777 680 q 772 674 773 677 q 767 671 769 673 q 762 668 765 670 q 751 668 758 668 q 739 668 742 668 q 728 672 735 668 q 716 682 720 675 q 707 696 710 688 q 706 704 706 701 q 706 713 706 707 q 710 727 706 720 m 721 723 q 720 719 720 720 q 718 714 720 717 l 718 707 q 719 704 718 707 q 720 701 720 702 q 723 694 720 696 q 725 691 724 693 q 727 689 727 689 q 734 685 730 686 q 741 682 739 682 l 749 682 q 758 682 754 682 q 763 686 760 686 q 767 688 766 687 q 769 690 768 689 q 772 694 771 693 q 773 697 773 696 q 776 703 775 700 q 776 709 776 706 q 776 714 776 712 q 776 720 776 717 q 773 725 774 722 q 769 728 771 727 q 760 735 765 734 q 757 737 759 737 q 752 738 754 738 l 745 738 q 738 737 740 738 q 734 735 735 735 q 731 734 733 734 q 729 731 730 733 q 727 728 727 730 q 721 723 721 723 m 839 706 l 845 700 q 846 697 845 699 q 849 695 847 696 q 847 689 849 692 l 828 630 l 885 656 q 891 657 886 657 q 895 655 894 657 l 902 649 l 821 612 l 811 620 l 839 706 m 878 549 l 845 588 l 908 641 l 942 602 l 932 592 l 906 622 l 891 609 l 911 584 l 899 576 l 880 601 l 864 586 l 888 557 l 878 549 m 888 531 l 882 543 l 952 585 l 968 559 q 970 555 970 557 q 971 549 970 553 q 970 541 973 544 q 967 532 969 535 q 964 529 965 530 q 959 525 962 527 q 955 524 957 524 q 952 523 954 523 q 948 522 950 523 q 945 523 947 522 q 938 524 943 523 q 934 526 936 525 q 932 528 933 526 l 916 487 l 910 496 q 907 501 907 497 q 909 507 907 505 l 923 540 l 918 549 l 888 531 m 949 566 l 929 555 l 938 542 q 940 537 939 538 q 944 536 941 537 l 949 536 q 952 537 950 536 q 957 540 953 537 q 957 543 957 542 q 957 544 957 543 q 958 549 958 545 q 957 550 957 549 q 957 553 957 551 l 949 566 m 987 483 q 988 488 988 484 q 987 491 988 490 q 985 496 985 493 q 982 498 984 496 q 978 499 981 499 q 975 499 977 500 q 974 498 974 498 q 972 497 973 497 q 971 495 971 496 q 970 494 970 495 l 970 489 l 970 482 l 970 480 l 970 478 l 970 471 q 969 469 970 470 q 969 465 969 467 q 956 451 966 456 q 951 449 953 450 q 944 450 948 448 q 935 451 940 450 q 930 454 932 453 q 926 458 928 456 q 923 462 924 460 q 920 467 922 464 q 918 477 918 474 q 920 487 918 480 q 922 490 920 489 q 924 493 924 493 q 925 496 924 496 q 927 497 928 497 l 930 496 q 933 491 932 492 q 934 490 933 490 q 934 488 934 489 q 932 484 934 485 l 932 483 l 932 477 q 933 471 932 474 q 934 470 933 470 q 936 467 935 469 q 938 466 937 467 q 940 464 939 464 q 942 464 941 464 q 944 462 943 464 q 948 462 946 462 q 951 464 950 462 q 954 465 952 464 q 956 469 956 468 q 957 474 957 470 l 957 479 l 957 482 l 957 490 q 957 499 957 496 q 959 503 958 501 q 962 506 960 504 q 965 509 964 508 q 970 511 967 510 q 979 512 975 513 q 988 510 984 512 q 992 507 990 509 q 996 503 995 506 q 1000 496 998 502 q 1002 489 1002 491 q 1001 482 1002 484 q 998 475 1001 479 q 998 472 998 474 q 997 470 998 470 l 992 472 q 990 474 990 473 q 988 477 989 475 q 987 480 987 478 q 987 483 987 483 m 937 422 l 933 434 l 1012 457 l 1016 444 l 937 422 m 981 422 l 994 422 q 1003 418 998 422 q 1009 417 1006 418 q 1012 413 1011 415 q 1017 410 1015 411 q 1021 405 1019 408 q 1026 398 1023 400 q 1030 385 1028 391 l 1030 374 q 1026 364 1028 367 q 1024 358 1025 360 q 1021 353 1023 356 l 1014 346 q 1009 343 1011 344 q 1004 341 1006 342 q 994 339 999 339 q 981 339 987 338 q 970 341 975 339 q 966 343 969 342 q 961 345 964 344 q 957 350 959 347 q 954 353 956 352 q 949 364 950 357 q 946 368 947 366 q 945 374 945 371 q 946 391 944 384 q 953 405 950 399 q 965 416 957 411 q 973 420 969 418 q 981 422 977 422 m 983 408 q 976 405 977 408 q 969 402 972 405 q 964 398 966 401 q 961 391 961 394 q 960 388 960 390 q 958 384 959 385 l 958 377 q 961 369 960 371 q 964 363 961 365 q 967 359 965 360 q 969 356 968 358 q 972 355 970 356 q 976 352 974 353 q 979 352 977 352 q 983 352 981 352 q 990 352 986 349 q 1002 355 998 352 q 1010 363 1005 356 q 1015 373 1015 368 q 1016 384 1016 378 q 1014 391 1016 388 q 1012 395 1012 393 q 1010 398 1011 396 q 1007 400 1009 398 q 1005 402 1006 401 q 998 405 1002 405 q 990 408 996 408 q 983 408 988 410 m 946 258 l 947 269 l 1014 311 l 951 314 l 951 328 l 1033 321 l 1033 313 q 1032 307 1033 310 q 1030 304 1030 306 l 973 269 l 1030 265 l 1029 252 l 946 258 z "},"6":{"ha":1161,"x_min":85,"x_max":1033,"o":"m 561 23 q 668 44 617 23 q 759 99 719 65 l 363 99 q 453 44 403 65 q 561 23 503 23 m 397 131 l 788 131 q 837 217 819 169 q 854 319 854 266 q 836 424 854 375 q 780 520 818 472 l 397 131 m 561 679 q 423 651 488 679 q 309 575 359 623 q 231 461 260 527 q 202 319 202 396 q 230 184 202 248 q 305 70 257 119 q 418 -8 352 21 q 561 -37 484 -37 q 609 -33 585 -37 q 656 -23 634 -30 q 758 24 710 -7 q 841 100 806 56 q 897 200 877 144 q 918 319 918 255 q 891 454 918 390 q 816 569 864 519 q 703 649 769 619 q 561 679 637 679 m 561 -10 q 431 17 491 -10 q 327 89 372 43 q 258 194 283 134 q 234 319 234 253 q 258 444 234 385 q 326 549 282 503 q 430 621 370 595 q 561 648 490 648 q 647 636 607 648 q 740 595 696 623 q 817 525 784 566 q 869 432 850 484 q 888 319 888 380 q 862 191 888 252 q 792 86 837 131 q 688 16 747 42 q 561 -10 628 -10 m 332 507 q 283 422 300 469 q 265 319 265 375 q 284 212 265 262 q 339 121 304 161 l 724 507 l 332 507 m 561 616 q 452 596 503 616 q 362 540 402 576 l 755 540 q 667 595 717 575 q 561 616 617 616 m 665 -57 l 602 -69 l 605 -87 l 628 -82 l 640 -144 l 658 -141 l 647 -79 l 668 -75 l 665 -57 m 734 -82 q 728 -76 734 -77 l 720 -72 l 710 -72 l 706 -72 l 700 -72 l 698 -72 l 698 -71 q 696 -69 696 -69 l 694 -68 q 696 -65 696 -68 q 696 -64 696 -64 l 698 -64 q 701 -64 698 -64 l 701 -62 l 702 -62 l 706 -62 l 707 -62 q 710 -61 710 -62 q 716 -61 714 -61 q 717 -58 716 -59 q 717 -57 717 -57 l 720 -50 l 716 -48 q 707 -45 710 -45 q 705 -44 707 -45 q 701 -43 703 -43 q 697 -44 699 -43 q 694 -45 696 -45 l 686 -50 q 683 -53 684 -51 q 681 -57 681 -55 q 675 -68 675 -62 q 675 -71 675 -69 q 677 -76 675 -73 q 684 -85 679 -82 q 687 -86 685 -85 q 689 -89 688 -88 q 694 -89 692 -89 q 698 -90 696 -90 l 707 -90 l 714 -90 l 714 -90 q 717 -92 716 -90 q 720 -93 720 -92 l 721 -93 l 721 -96 q 721 -99 721 -98 q 720 -100 720 -99 l 720 -101 q 719 -102 720 -101 q 717 -104 718 -104 q 714 -106 716 -106 q 712 -106 714 -106 q 710 -106 710 -106 q 707 -106 708 -106 q 706 -106 707 -106 l 701 -106 l 696 -106 l 693 -107 q 693 -108 693 -107 q 692 -109 693 -109 l 688 -115 q 691 -118 689 -117 q 693 -122 692 -120 q 697 -123 695 -122 q 702 -123 700 -123 q 710 -125 707 -126 q 715 -124 713 -125 q 720 -123 718 -123 q 725 -121 723 -122 q 731 -118 727 -120 q 734 -114 734 -115 q 738 -109 735 -113 q 740 -104 738 -106 q 741 -99 741 -102 q 741 -93 741 -95 q 738 -89 740 -91 q 734 -82 738 -83 m 769 -85 q 766 -82 768 -82 q 764 -82 766 -82 q 762 -82 763 -82 q 758 -82 761 -82 l 753 -85 q 752 -88 752 -86 l 752 -89 q 751 -92 751 -90 l 751 -93 q 752 -95 751 -95 q 752 -96 752 -96 q 754 -101 752 -101 q 759 -104 755 -104 l 763 -104 q 768 -102 766 -104 q 770 -101 769 -102 q 772 -99 772 -101 l 772 -98 q 773 -96 772 -96 q 775 -95 775 -95 l 775 -93 q 772 -89 775 -89 q 769 -85 769 -85 m 577 -122 q 576 -119 576 -122 q 576 -118 576 -118 q 575 -117 575 -118 q 574 -115 575 -115 l 545 -73 q 543 -71 545 -72 q 537 -69 543 -69 l 531 -69 l 522 -69 l 523 -152 l 543 -151 l 543 -96 l 578 -151 l 595 -151 l 595 -69 l 575 -69 l 577 -122 m 405 -59 l 439 -71 l 444 -54 l 394 -36 l 365 -109 l 384 -117 l 394 -89 l 420 -99 l 427 -82 l 401 -71 l 405 -59 m 509 -79 l 503 -71 q 498 -68 501 -69 q 493 -65 496 -67 q 488 -64 490 -64 q 483 -62 486 -63 q 477 -61 479 -61 q 471 -61 474 -61 q 462 -64 464 -61 q 457 -65 459 -64 q 451 -68 454 -66 l 444 -75 q 437 -82 441 -81 q 434 -89 436 -86 q 433 -93 433 -91 l 433 -106 l 436 -116 l 439 -125 l 447 -133 q 452 -136 450 -135 q 457 -139 455 -137 q 467 -141 461 -141 q 473 -142 470 -142 q 477 -142 475 -142 q 487 -141 481 -142 q 493 -139 490 -140 q 497 -136 496 -138 q 505 -129 502 -135 l 511 -122 q 516 -109 514 -116 l 516 -99 q 515 -95 516 -97 q 513 -89 515 -92 q 511 -83 512 -85 q 509 -79 510 -82 m 497 -106 q 496 -111 497 -109 q 493 -115 495 -113 q 490 -118 491 -117 q 487 -122 489 -120 q 483 -123 484 -122 q 478 -123 481 -123 q 470 -123 474 -126 q 466 -123 468 -123 q 462 -122 464 -122 l 457 -115 q 454 -111 455 -113 q 454 -106 454 -109 q 454 -96 452 -102 q 457 -89 454 -92 l 462 -82 l 470 -79 l 478 -79 l 487 -82 l 493 -89 q 496 -92 495 -91 q 497 -96 497 -94 q 497 -106 498 -102 m 898 129 q 897 126 898 128 q 896 122 896 125 q 897 119 896 121 q 898 116 898 118 l 926 76 l 878 83 l 872 83 l 865 79 l 859 68 l 926 23 l 938 38 l 905 61 l 947 52 l 955 66 l 932 101 l 964 80 l 975 96 l 907 141 l 898 129 m 890 41 l 880 50 l 870 52 q 859 54 867 54 q 855 54 857 54 q 849 52 852 54 l 840 50 q 835 46 838 48 q 830 41 832 43 q 827 37 828 39 q 825 33 826 35 q 822 28 822 30 q 819 23 821 26 q 819 18 819 20 q 818 12 818 16 q 818 8 818 10 q 819 2 818 5 l 822 -8 l 829 -16 l 839 -23 q 844 -25 842 -23 q 849 -27 845 -27 q 855 -28 852 -27 q 859 -30 857 -30 q 864 -28 861 -30 q 870 -27 866 -27 q 874 -25 872 -27 q 879 -23 877 -23 q 888 -16 884 -21 l 895 -8 q 897 -4 896 -6 q 898 2 898 -2 q 899 12 899 5 l 899 23 l 895 31 q 892 37 894 34 q 890 41 890 41 m 880 4 q 875 -3 878 -2 q 868 -9 870 -8 q 864 -10 866 -10 q 859 -10 861 -10 q 855 -9 857 -10 q 852 -9 852 -9 l 844 -3 q 839 5 841 0 q 839 12 839 8 q 839 20 839 18 q 844 29 841 26 l 852 34 q 855 34 853 34 q 859 35 858 35 q 868 33 863 35 q 872 31 870 32 q 875 27 873 30 q 878 24 877 26 q 880 20 879 23 q 882 12 882 18 q 881 7 882 10 q 880 4 880 4 m 829 -37 l 825 -40 q 822 -42 823 -40 q 821 -45 821 -43 l 818 -51 l 812 -56 q 808 -58 809 -57 q 804 -59 806 -59 q 795 -59 799 -61 q 792 -57 793 -57 q 787 -56 790 -57 q 783 -48 783 -53 q 780 -40 780 -47 q 780 -30 776 -38 q 780 -28 780 -30 q 780 -23 780 -26 q 783 -20 782 -22 q 786 -18 785 -19 q 793 -16 792 -16 q 800 -15 795 -15 q 807 -12 801 -15 q 811 -9 808 -10 l 812 -4 l 812 2 q 804 5 810 5 l 794 5 l 785 2 l 777 -2 q 773 -5 776 -3 q 769 -10 771 -7 q 766 -13 767 -11 q 763 -19 765 -16 l 759 -30 l 759 -40 q 760 -45 759 -43 q 761 -50 761 -47 l 766 -61 q 770 -65 767 -63 q 773 -68 772 -66 l 783 -75 l 791 -76 q 802 -78 794 -78 q 807 -77 805 -78 q 812 -76 809 -76 q 818 -73 815 -75 q 822 -69 820 -71 q 826 -68 824 -69 q 829 -64 828 -67 q 833 -62 832 -64 q 836 -57 834 -60 l 839 -48 q 842 -39 842 -45 l 833 -37 l 829 -37 m 350 -10 l 280 -61 l 290 -68 q 292 -68 290 -68 q 293 -68 293 -68 q 296 -68 295 -68 q 297 -68 296 -69 l 300 -68 q 304 -68 303 -68 l 311 -61 l 339 -76 l 337 -87 l 337 -90 q 338 -92 337 -92 q 339 -93 338 -93 l 339 -95 q 339 -96 339 -96 l 342 -99 l 353 -106 l 365 -19 l 350 -10 m 342 -39 l 342 -40 l 342 -43 l 341 -57 l 328 -50 l 339 -40 l 341 -40 q 342 -40 342 -40 l 342 -39 l 342 -38 l 343 -38 q 345 -37 344 -37 l 342 -39 m 321 -13 l 333 1 l 286 42 l 272 27 l 290 12 l 250 -34 l 264 -47 l 306 2 l 321 -13 m 168 95 l 226 89 q 230 89 227 89 q 231 89 231 89 q 234 89 232 89 l 241 95 l 210 148 l 194 139 l 212 109 l 155 115 q 151 114 154 115 q 146 112 148 114 l 139 109 l 170 54 l 186 64 l 168 95 m 238 20 l 253 33 l 234 54 l 244 62 l 266 35 l 280 47 l 246 89 l 183 36 l 219 -4 l 232 9 l 210 34 l 221 42 l 238 20 m 122 325 l 157 327 q 160 324 158 326 q 162 321 161 323 q 165 318 164 320 q 166 314 166 316 q 168 306 167 310 q 169 302 168 304 q 169 299 169 300 q 169 289 169 293 q 167 281 168 285 q 164 273 166 276 q 159 266 161 269 q 146 257 155 260 q 130 252 138 252 l 118 252 q 113 254 115 253 q 108 257 110 255 q 103 259 105 258 q 99 262 102 260 q 95 266 97 264 q 92 271 93 268 q 89 275 90 273 q 87 280 89 277 q 86 286 86 283 q 85 293 85 289 q 85 297 85 294 q 85 300 85 299 q 87 310 87 306 q 89 313 89 312 q 92 318 90 315 q 94 321 93 319 q 96 325 95 323 l 99 321 q 102 320 101 321 q 102 319 102 319 q 103 314 103 318 q 103 312 103 313 q 102 310 103 311 q 99 302 99 306 q 99 293 99 299 q 101 281 99 287 q 104 276 102 279 q 108 273 106 274 q 117 267 111 269 q 129 266 122 265 q 137 267 134 266 q 140 269 139 268 q 143 271 141 269 q 146 273 144 273 q 149 276 148 273 q 151 278 150 277 q 154 281 152 280 q 154 286 154 284 q 155 290 155 287 q 156 297 156 293 q 155 302 155 299 q 154 307 155 304 q 150 314 154 309 l 137 313 l 137 310 l 137 306 q 135 303 137 305 q 134 301 135 302 q 133 300 134 300 q 128 299 131 299 l 124 299 l 122 325 m 173 387 l 167 335 l 85 343 l 90 395 l 103 394 l 99 356 l 120 352 l 123 385 l 137 384 l 134 352 l 155 350 l 159 390 l 173 387 m 103 401 l 92 405 l 107 467 l 120 464 l 113 438 l 181 422 l 178 409 l 110 425 l 103 401 m 132 496 l 120 502 l 148 559 l 160 554 l 149 531 l 211 500 l 206 488 l 143 519 l 132 496 m 262 578 l 254 567 l 227 588 l 202 555 l 231 534 l 223 523 l 155 572 l 163 582 l 191 563 l 215 595 l 188 616 l 195 627 l 262 578 m 306 620 l 269 584 l 211 644 l 248 681 l 258 670 l 231 643 l 245 628 l 267 650 l 276 641 l 254 620 l 269 603 l 297 630 l 306 620 m 346 706 l 353 694 l 326 677 l 343 648 l 333 641 l 290 710 l 333 738 l 339 727 l 307 707 l 319 688 l 346 706 m 380 706 q 384 699 380 701 q 391 694 385 696 q 394 693 391 693 q 398 693 396 693 q 405 694 401 693 q 411 699 410 696 q 416 706 415 702 q 417 713 417 707 q 416 720 417 717 l 398 766 l 409 773 l 429 725 q 430 719 430 721 q 431 713 431 716 q 429 700 431 706 q 425 694 427 696 q 420 689 424 692 q 416 684 418 686 q 411 682 414 683 q 404 680 407 681 q 398 679 401 679 q 385 682 391 679 q 379 684 381 683 q 374 689 377 686 q 367 700 370 694 l 346 746 l 359 752 l 380 706 m 450 696 l 429 777 l 443 780 l 458 714 l 492 720 l 495 707 l 450 696 m 497 707 l 489 790 l 503 791 l 510 723 l 545 727 l 545 713 l 497 707 m 589 710 l 576 713 l 585 794 l 615 791 q 625 788 620 791 q 633 781 631 785 q 637 773 635 780 q 639 762 640 767 q 637 757 637 760 q 635 752 637 755 q 629 744 631 746 q 620 739 627 741 q 610 738 617 738 l 593 740 l 589 710 m 611 752 l 616 752 q 621 755 618 752 q 623 759 623 755 q 626 764 624 760 q 625 769 626 767 q 624 771 624 770 q 623 773 623 773 q 621 775 622 774 q 619 776 620 776 q 616 777 617 777 q 615 778 615 777 l 597 780 l 594 753 l 611 752 m 650 702 l 637 706 l 658 784 l 688 776 q 696 773 693 776 q 703 766 700 769 q 706 756 706 762 q 706 750 707 753 q 706 746 706 748 q 702 739 704 742 q 698 734 700 735 q 691 731 693 731 q 688 729 689 729 q 685 727 686 728 l 700 688 l 689 689 q 687 691 688 690 q 685 693 686 693 q 681 699 682 694 l 668 731 l 658 734 l 650 702 m 668 767 l 661 746 l 679 741 q 681 741 680 741 q 682 741 681 741 q 685 742 684 741 q 688 742 686 742 q 689 743 689 742 q 689 745 689 745 q 693 749 693 748 q 693 754 693 752 q 693 757 693 755 q 692 759 693 758 q 690 760 691 760 q 689 762 689 760 q 685 764 687 764 l 668 767 m 710 727 q 712 733 710 731 q 716 738 714 735 q 719 741 717 740 q 724 745 721 743 q 728 747 726 747 q 734 749 731 748 q 744 752 737 752 l 754 752 q 766 747 760 751 q 776 741 771 745 q 780 737 778 739 q 783 734 781 734 q 785 729 784 731 q 787 724 786 727 q 789 718 788 720 q 790 714 790 716 q 790 708 790 710 q 788 702 790 706 q 787 697 787 700 q 785 692 786 694 q 782 687 783 689 q 780 682 781 685 q 775 678 777 680 q 772 674 773 677 q 767 671 769 673 q 762 668 765 670 q 751 668 758 668 q 739 668 742 668 q 728 672 735 668 q 716 682 720 675 q 707 696 710 688 q 706 704 706 701 q 706 713 706 707 q 710 727 706 720 m 721 723 q 720 719 720 720 q 718 714 720 717 l 718 707 q 719 704 718 707 q 720 701 720 702 q 723 694 720 696 q 725 691 724 693 q 727 689 727 689 q 734 685 730 686 q 741 682 739 682 l 749 682 q 758 682 754 682 q 763 686 760 686 q 767 688 766 687 q 769 690 768 689 q 772 694 771 693 q 773 697 773 696 q 776 703 775 700 q 776 709 776 706 q 776 714 776 712 q 776 720 776 717 q 773 725 774 722 q 769 728 771 727 q 760 735 765 734 q 757 737 759 737 q 752 738 754 738 l 745 738 q 738 737 740 738 q 734 735 735 735 q 731 734 733 734 q 729 731 730 733 q 727 728 727 730 q 721 723 721 723 m 839 706 l 845 700 q 846 697 845 699 q 849 695 847 696 q 847 689 849 692 l 828 630 l 885 656 q 891 657 886 657 q 895 655 894 657 l 902 649 l 821 612 l 811 620 l 839 706 m 878 549 l 845 588 l 908 641 l 942 602 l 932 592 l 906 622 l 891 609 l 911 584 l 899 576 l 880 601 l 864 586 l 888 557 l 878 549 m 888 531 l 882 543 l 952 585 l 968 559 q 970 555 970 557 q 971 549 970 553 q 970 541 973 544 q 967 532 969 535 q 964 529 965 530 q 959 525 962 527 q 955 524 957 524 q 952 523 954 523 q 948 522 950 523 q 945 523 947 522 q 938 524 943 523 q 934 526 936 525 q 932 528 933 526 l 916 487 l 910 496 q 907 501 907 497 q 909 507 907 505 l 923 540 l 918 549 l 888 531 m 949 566 l 929 555 l 938 542 q 940 537 939 538 q 944 536 941 537 l 949 536 q 952 537 950 536 q 957 540 953 537 q 957 543 957 542 q 957 544 957 543 q 958 549 958 545 q 957 550 957 549 q 957 553 957 551 l 949 566 m 987 483 q 988 488 988 484 q 987 491 988 490 q 985 496 985 493 q 982 498 984 496 q 978 499 981 499 q 975 499 977 500 q 974 498 974 498 q 972 497 973 497 q 971 495 971 496 q 970 494 970 495 l 970 489 l 970 482 l 970 480 l 970 478 l 970 471 q 969 469 970 470 q 969 465 969 467 q 956 451 966 456 q 951 449 953 450 q 944 450 948 448 q 935 451 940 450 q 930 454 932 453 q 926 458 928 456 q 923 462 924 460 q 920 467 922 464 q 918 477 918 474 q 920 487 918 480 q 922 490 920 489 q 924 493 924 493 q 925 496 924 496 q 927 497 928 497 l 930 496 q 933 491 932 492 q 934 490 933 490 q 934 488 934 489 q 932 484 934 485 l 932 483 l 932 477 q 933 471 932 474 q 934 470 933 470 q 936 467 935 469 q 938 466 937 467 q 940 464 939 464 q 942 464 941 464 q 944 462 943 464 q 948 462 946 462 q 951 464 950 462 q 954 465 952 464 q 956 469 956 468 q 957 474 957 470 l 957 479 l 957 482 l 957 490 q 957 499 957 496 q 959 503 958 501 q 962 506 960 504 q 965 509 964 508 q 970 511 967 510 q 979 512 975 513 q 988 510 984 512 q 992 507 990 509 q 996 503 995 506 q 1000 496 998 502 q 1002 489 1002 491 q 1001 482 1002 484 q 998 475 1001 479 q 998 472 998 474 q 997 470 998 470 l 992 472 q 990 474 990 473 q 988 477 989 475 q 987 480 987 478 q 987 483 987 483 m 937 422 l 933 434 l 1012 457 l 1016 444 l 937 422 m 981 422 l 994 422 q 1003 418 998 422 q 1009 417 1006 418 q 1012 413 1011 415 q 1017 410 1015 411 q 1021 405 1019 408 q 1026 398 1023 400 q 1030 385 1028 391 l 1030 374 q 1026 364 1028 367 q 1024 358 1025 360 q 1021 353 1023 356 l 1014 346 q 1009 343 1011 344 q 1004 341 1006 342 q 994 339 999 339 q 981 339 987 338 q 970 341 975 339 q 966 343 969 342 q 961 345 964 344 q 957 350 959 347 q 954 353 956 352 q 949 364 950 357 q 946 368 947 366 q 945 374 945 371 q 946 391 944 384 q 953 405 950 399 q 965 416 957 411 q 973 420 969 418 q 981 422 977 422 m 983 408 q 976 405 977 408 q 969 402 972 405 q 964 398 966 401 q 961 391 961 394 q 960 388 960 390 q 958 384 959 385 l 958 377 q 961 369 960 371 q 964 363 961 365 q 967 359 965 360 q 969 356 968 358 q 972 355 970 356 q 976 352 974 353 q 979 352 977 352 q 983 352 981 352 q 990 352 986 349 q 1002 355 998 352 q 1010 363 1005 356 q 1015 373 1015 368 q 1016 384 1016 378 q 1014 391 1016 388 q 1012 395 1012 393 q 1010 398 1011 396 q 1007 400 1009 398 q 1005 402 1006 401 q 998 405 1002 405 q 990 408 996 408 q 983 408 988 410 m 946 258 l 947 269 l 1014 311 l 951 314 l 951 328 l 1033 321 l 1033 313 q 1032 307 1033 310 q 1030 304 1030 306 l 973 269 l 1030 265 l 1029 252 l 946 258 z "},"7":{"ha":1161,"x_min":85,"x_max":1033,"o":"m 561 23 q 668 44 617 23 q 759 99 719 65 l 363 99 q 453 44 403 65 q 561 23 503 23 m 397 131 l 788 131 q 837 217 819 169 q 854 319 854 266 q 836 424 854 375 q 780 520 818 472 l 397 131 m 561 679 q 423 651 488 679 q 309 575 359 623 q 231 461 260 527 q 202 319 202 396 q 230 184 202 248 q 305 70 257 119 q 418 -8 352 21 q 561 -37 484 -37 q 609 -33 585 -37 q 656 -23 634 -30 q 758 24 710 -7 q 841 100 806 56 q 897 200 877 144 q 918 319 918 255 q 891 454 918 390 q 816 569 864 519 q 703 649 769 619 q 561 679 637 679 m 561 -10 q 431 17 491 -10 q 327 89 372 43 q 258 194 283 134 q 234 319 234 253 q 258 444 234 385 q 326 549 282 503 q 430 621 370 595 q 561 648 490 648 q 647 636 607 648 q 740 595 696 623 q 817 525 784 566 q 869 432 850 484 q 888 319 888 380 q 862 191 888 252 q 792 86 837 131 q 688 16 747 42 q 561 -10 628 -10 m 332 507 q 283 422 300 469 q 265 319 265 375 q 284 212 265 262 q 339 121 304 161 l 724 507 l 332 507 m 561 616 q 452 596 503 616 q 362 540 402 576 l 755 540 q 667 595 717 575 q 561 616 617 616 m 665 -57 l 602 -69 l 605 -87 l 628 -82 l 640 -144 l 658 -141 l 647 -79 l 668 -75 l 665 -57 m 734 -82 q 728 -76 734 -77 l 720 -72 l 710 -72 l 706 -72 l 700 -72 l 698 -72 l 698 -71 q 696 -69 696 -69 l 694 -68 q 696 -65 696 -68 q 696 -64 696 -64 l 698 -64 q 701 -64 698 -64 l 701 -62 l 702 -62 l 706 -62 l 707 -62 q 710 -61 710 -62 q 716 -61 714 -61 q 717 -58 716 -59 q 717 -57 717 -57 l 720 -50 l 716 -48 q 707 -45 710 -45 q 705 -44 707 -45 q 701 -43 703 -43 q 697 -44 699 -43 q 694 -45 696 -45 l 686 -50 q 683 -53 684 -51 q 681 -57 681 -55 q 675 -68 675 -62 q 675 -71 675 -69 q 677 -76 675 -73 q 684 -85 679 -82 q 687 -86 685 -85 q 689 -89 688 -88 q 694 -89 692 -89 q 698 -90 696 -90 l 707 -90 l 714 -90 l 714 -90 q 717 -92 716 -90 q 720 -93 720 -92 l 721 -93 l 721 -96 q 721 -99 721 -98 q 720 -100 720 -99 l 720 -101 q 719 -102 720 -101 q 717 -104 718 -104 q 714 -106 716 -106 q 712 -106 714 -106 q 710 -106 710 -106 q 707 -106 708 -106 q 706 -106 707 -106 l 701 -106 l 696 -106 l 693 -107 q 693 -108 693 -107 q 692 -109 693 -109 l 688 -115 q 691 -118 689 -117 q 693 -122 692 -120 q 697 -123 695 -122 q 702 -123 700 -123 q 710 -125 707 -126 q 715 -124 713 -125 q 720 -123 718 -123 q 725 -121 723 -122 q 731 -118 727 -120 q 734 -114 734 -115 q 738 -109 735 -113 q 740 -104 738 -106 q 741 -99 741 -102 q 741 -93 741 -95 q 738 -89 740 -91 q 734 -82 738 -83 m 769 -85 q 766 -82 768 -82 q 764 -82 766 -82 q 762 -82 763 -82 q 758 -82 761 -82 l 753 -85 q 752 -88 752 -86 l 752 -89 q 751 -92 751 -90 l 751 -93 q 752 -95 751 -95 q 752 -96 752 -96 q 754 -101 752 -101 q 759 -104 755 -104 l 763 -104 q 768 -102 766 -104 q 770 -101 769 -102 q 772 -99 772 -101 l 772 -98 q 773 -96 772 -96 q 775 -95 775 -95 l 775 -93 q 772 -89 775 -89 q 769 -85 769 -85 m 577 -122 q 576 -119 576 -122 q 576 -118 576 -118 q 575 -117 575 -118 q 574 -115 575 -115 l 545 -73 q 543 -71 545 -72 q 537 -69 543 -69 l 531 -69 l 522 -69 l 523 -152 l 543 -151 l 543 -96 l 578 -151 l 595 -151 l 595 -69 l 575 -69 l 577 -122 m 405 -59 l 439 -71 l 444 -54 l 394 -36 l 365 -109 l 384 -117 l 394 -89 l 420 -99 l 427 -82 l 401 -71 l 405 -59 m 509 -79 l 503 -71 q 498 -68 501 -69 q 493 -65 496 -67 q 488 -64 490 -64 q 483 -62 486 -63 q 477 -61 479 -61 q 471 -61 474 -61 q 462 -64 464 -61 q 457 -65 459 -64 q 451 -68 454 -66 l 444 -75 q 437 -82 441 -81 q 434 -89 436 -86 q 433 -93 433 -91 l 433 -106 l 436 -116 l 439 -125 l 447 -133 q 452 -136 450 -135 q 457 -139 455 -137 q 467 -141 461 -141 q 473 -142 470 -142 q 477 -142 475 -142 q 487 -141 481 -142 q 493 -139 490 -140 q 497 -136 496 -138 q 505 -129 502 -135 l 511 -122 q 516 -109 514 -116 l 516 -99 q 515 -95 516 -97 q 513 -89 515 -92 q 511 -83 512 -85 q 509 -79 510 -82 m 497 -106 q 496 -111 497 -109 q 493 -115 495 -113 q 490 -118 491 -117 q 487 -122 489 -120 q 483 -123 484 -122 q 478 -123 481 -123 q 470 -123 474 -126 q 466 -123 468 -123 q 462 -122 464 -122 l 457 -115 q 454 -111 455 -113 q 454 -106 454 -109 q 454 -96 452 -102 q 457 -89 454 -92 l 462 -82 l 470 -79 l 478 -79 l 487 -82 l 493 -89 q 496 -92 495 -91 q 497 -96 497 -94 q 497 -106 498 -102 m 898 129 q 897 126 898 128 q 896 122 896 125 q 897 119 896 121 q 898 116 898 118 l 926 76 l 878 83 l 872 83 l 865 79 l 859 68 l 926 23 l 938 38 l 905 61 l 947 52 l 955 66 l 932 101 l 964 80 l 975 96 l 907 141 l 898 129 m 890 41 l 880 50 l 870 52 q 859 54 867 54 q 855 54 857 54 q 849 52 852 54 l 840 50 q 835 46 838 48 q 830 41 832 43 q 827 37 828 39 q 825 33 826 35 q 822 28 822 30 q 819 23 821 26 q 819 18 819 20 q 818 12 818 16 q 818 8 818 10 q 819 2 818 5 l 822 -8 l 829 -16 l 839 -23 q 844 -25 842 -23 q 849 -27 845 -27 q 855 -28 852 -27 q 859 -30 857 -30 q 864 -28 861 -30 q 870 -27 866 -27 q 874 -25 872 -27 q 879 -23 877 -23 q 888 -16 884 -21 l 895 -8 q 897 -4 896 -6 q 898 2 898 -2 q 899 12 899 5 l 899 23 l 895 31 q 892 37 894 34 q 890 41 890 41 m 880 4 q 875 -3 878 -2 q 868 -9 870 -8 q 864 -10 866 -10 q 859 -10 861 -10 q 855 -9 857 -10 q 852 -9 852 -9 l 844 -3 q 839 5 841 0 q 839 12 839 8 q 839 20 839 18 q 844 29 841 26 l 852 34 q 855 34 853 34 q 859 35 858 35 q 868 33 863 35 q 872 31 870 32 q 875 27 873 30 q 878 24 877 26 q 880 20 879 23 q 882 12 882 18 q 881 7 882 10 q 880 4 880 4 m 829 -37 l 825 -40 q 822 -42 823 -40 q 821 -45 821 -43 l 818 -51 l 812 -56 q 808 -58 809 -57 q 804 -59 806 -59 q 795 -59 799 -61 q 792 -57 793 -57 q 787 -56 790 -57 q 783 -48 783 -53 q 780 -40 780 -47 q 780 -30 776 -38 q 780 -28 780 -30 q 780 -23 780 -26 q 783 -20 782 -22 q 786 -18 785 -19 q 793 -16 792 -16 q 800 -15 795 -15 q 807 -12 801 -15 q 811 -9 808 -10 l 812 -4 l 812 2 q 804 5 810 5 l 794 5 l 785 2 l 777 -2 q 773 -5 776 -3 q 769 -10 771 -7 q 766 -13 767 -11 q 763 -19 765 -16 l 759 -30 l 759 -40 q 760 -45 759 -43 q 761 -50 761 -47 l 766 -61 q 770 -65 767 -63 q 773 -68 772 -66 l 783 -75 l 791 -76 q 802 -78 794 -78 q 807 -77 805 -78 q 812 -76 809 -76 q 818 -73 815 -75 q 822 -69 820 -71 q 826 -68 824 -69 q 829 -64 828 -67 q 833 -62 832 -64 q 836 -57 834 -60 l 839 -48 q 842 -39 842 -45 l 833 -37 l 829 -37 m 350 -10 l 280 -61 l 290 -68 q 292 -68 290 -68 q 293 -68 293 -68 q 296 -68 295 -68 q 297 -68 296 -69 l 300 -68 q 304 -68 303 -68 l 311 -61 l 339 -76 l 337 -87 l 337 -90 q 338 -92 337 -92 q 339 -93 338 -93 l 339 -95 q 339 -96 339 -96 l 342 -99 l 353 -106 l 365 -19 l 350 -10 m 342 -39 l 342 -40 l 342 -43 l 341 -57 l 328 -50 l 339 -40 l 341 -40 q 342 -40 342 -40 l 342 -39 l 342 -38 l 343 -38 q 345 -37 344 -37 l 342 -39 m 321 -13 l 333 1 l 286 42 l 272 27 l 290 12 l 250 -34 l 264 -47 l 306 2 l 321 -13 m 168 95 l 226 89 q 230 89 227 89 q 231 89 231 89 q 234 89 232 89 l 241 95 l 210 148 l 194 139 l 212 109 l 155 115 q 151 114 154 115 q 146 112 148 114 l 139 109 l 170 54 l 186 64 l 168 95 m 238 20 l 253 33 l 234 54 l 244 62 l 266 35 l 280 47 l 246 89 l 183 36 l 219 -4 l 232 9 l 210 34 l 221 42 l 238 20 m 122 325 l 157 327 q 160 324 158 326 q 162 321 161 323 q 165 318 164 320 q 166 314 166 316 q 168 306 167 310 q 169 302 168 304 q 169 299 169 300 q 169 289 169 293 q 167 281 168 285 q 164 273 166 276 q 159 266 161 269 q 146 257 155 260 q 130 252 138 252 l 118 252 q 113 254 115 253 q 108 257 110 255 q 103 259 105 258 q 99 262 102 260 q 95 266 97 264 q 92 271 93 268 q 89 275 90 273 q 87 280 89 277 q 86 286 86 283 q 85 293 85 289 q 85 297 85 294 q 85 300 85 299 q 87 310 87 306 q 89 313 89 312 q 92 318 90 315 q 94 321 93 319 q 96 325 95 323 l 99 321 q 102 320 101 321 q 102 319 102 319 q 103 314 103 318 q 103 312 103 313 q 102 310 103 311 q 99 302 99 306 q 99 293 99 299 q 101 281 99 287 q 104 276 102 279 q 108 273 106 274 q 117 267 111 269 q 129 266 122 265 q 137 267 134 266 q 140 269 139 268 q 143 271 141 269 q 146 273 144 273 q 149 276 148 273 q 151 278 150 277 q 154 281 152 280 q 154 286 154 284 q 155 290 155 287 q 156 297 156 293 q 155 302 155 299 q 154 307 155 304 q 150 314 154 309 l 137 313 l 137 310 l 137 306 q 135 303 137 305 q 134 301 135 302 q 133 300 134 300 q 128 299 131 299 l 124 299 l 122 325 m 173 387 l 167 335 l 85 343 l 90 395 l 103 394 l 99 356 l 120 352 l 123 385 l 137 384 l 134 352 l 155 350 l 159 390 l 173 387 m 103 401 l 92 405 l 107 467 l 120 464 l 113 438 l 181 422 l 178 409 l 110 425 l 103 401 m 132 496 l 120 502 l 148 559 l 160 554 l 149 531 l 211 500 l 206 488 l 143 519 l 132 496 m 262 578 l 254 567 l 227 588 l 202 555 l 231 534 l 223 523 l 155 572 l 163 582 l 191 563 l 215 595 l 188 616 l 195 627 l 262 578 m 306 620 l 269 584 l 211 644 l 248 681 l 258 670 l 231 643 l 245 628 l 267 650 l 276 641 l 254 620 l 269 603 l 297 630 l 306 620 m 346 706 l 353 694 l 326 677 l 343 648 l 333 641 l 290 710 l 333 738 l 339 727 l 307 707 l 319 688 l 346 706 m 380 706 q 384 699 380 701 q 391 694 385 696 q 394 693 391 693 q 398 693 396 693 q 405 694 401 693 q 411 699 410 696 q 416 706 415 702 q 417 713 417 707 q 416 720 417 717 l 398 766 l 409 773 l 429 725 q 430 719 430 721 q 431 713 431 716 q 429 700 431 706 q 425 694 427 696 q 420 689 424 692 q 416 684 418 686 q 411 682 414 683 q 404 680 407 681 q 398 679 401 679 q 385 682 391 679 q 379 684 381 683 q 374 689 377 686 q 367 700 370 694 l 346 746 l 359 752 l 380 706 m 450 696 l 429 777 l 443 780 l 458 714 l 492 720 l 495 707 l 450 696 m 497 707 l 489 790 l 503 791 l 510 723 l 545 727 l 545 713 l 497 707 m 589 710 l 576 713 l 585 794 l 615 791 q 625 788 620 791 q 633 781 631 785 q 637 773 635 780 q 639 762 640 767 q 637 757 637 760 q 635 752 637 755 q 629 744 631 746 q 620 739 627 741 q 610 738 617 738 l 593 740 l 589 710 m 611 752 l 616 752 q 621 755 618 752 q 623 759 623 755 q 626 764 624 760 q 625 769 626 767 q 624 771 624 770 q 623 773 623 773 q 621 775 622 774 q 619 776 620 776 q 616 777 617 777 q 615 778 615 777 l 597 780 l 594 753 l 611 752 m 650 702 l 637 706 l 658 784 l 688 776 q 696 773 693 776 q 703 766 700 769 q 706 756 706 762 q 706 750 707 753 q 706 746 706 748 q 702 739 704 742 q 698 734 700 735 q 691 731 693 731 q 688 729 689 729 q 685 727 686 728 l 700 688 l 689 689 q 687 691 688 690 q 685 693 686 693 q 681 699 682 694 l 668 731 l 658 734 l 650 702 m 668 767 l 661 746 l 679 741 q 681 741 680 741 q 682 741 681 741 q 685 742 684 741 q 688 742 686 742 q 689 743 689 742 q 689 745 689 745 q 693 749 693 748 q 693 754 693 752 q 693 757 693 755 q 692 759 693 758 q 690 760 691 760 q 689 762 689 760 q 685 764 687 764 l 668 767 m 710 727 q 712 733 710 731 q 716 738 714 735 q 719 741 717 740 q 724 745 721 743 q 728 747 726 747 q 734 749 731 748 q 744 752 737 752 l 754 752 q 766 747 760 751 q 776 741 771 745 q 780 737 778 739 q 783 734 781 734 q 785 729 784 731 q 787 724 786 727 q 789 718 788 720 q 790 714 790 716 q 790 708 790 710 q 788 702 790 706 q 787 697 787 700 q 785 692 786 694 q 782 687 783 689 q 780 682 781 685 q 775 678 777 680 q 772 674 773 677 q 767 671 769 673 q 762 668 765 670 q 751 668 758 668 q 739 668 742 668 q 728 672 735 668 q 716 682 720 675 q 707 696 710 688 q 706 704 706 701 q 706 713 706 707 q 710 727 706 720 m 721 723 q 720 719 720 720 q 718 714 720 717 l 718 707 q 719 704 718 707 q 720 701 720 702 q 723 694 720 696 q 725 691 724 693 q 727 689 727 689 q 734 685 730 686 q 741 682 739 682 l 749 682 q 758 682 754 682 q 763 686 760 686 q 767 688 766 687 q 769 690 768 689 q 772 694 771 693 q 773 697 773 696 q 776 703 775 700 q 776 709 776 706 q 776 714 776 712 q 776 720 776 717 q 773 725 774 722 q 769 728 771 727 q 760 735 765 734 q 757 737 759 737 q 752 738 754 738 l 745 738 q 738 737 740 738 q 734 735 735 735 q 731 734 733 734 q 729 731 730 733 q 727 728 727 730 q 721 723 721 723 m 839 706 l 845 700 q 846 697 845 699 q 849 695 847 696 q 847 689 849 692 l 828 630 l 885 656 q 891 657 886 657 q 895 655 894 657 l 902 649 l 821 612 l 811 620 l 839 706 m 878 549 l 845 588 l 908 641 l 942 602 l 932 592 l 906 622 l 891 609 l 911 584 l 899 576 l 880 601 l 864 586 l 888 557 l 878 549 m 888 531 l 882 543 l 952 585 l 968 559 q 970 555 970 557 q 971 549 970 553 q 970 541 973 544 q 967 532 969 535 q 964 529 965 530 q 959 525 962 527 q 955 524 957 524 q 952 523 954 523 q 948 522 950 523 q 945 523 947 522 q 938 524 943 523 q 934 526 936 525 q 932 528 933 526 l 916 487 l 910 496 q 907 501 907 497 q 909 507 907 505 l 923 540 l 918 549 l 888 531 m 949 566 l 929 555 l 938 542 q 940 537 939 538 q 944 536 941 537 l 949 536 q 952 537 950 536 q 957 540 953 537 q 957 543 957 542 q 957 544 957 543 q 958 549 958 545 q 957 550 957 549 q 957 553 957 551 l 949 566 m 987 483 q 988 488 988 484 q 987 491 988 490 q 985 496 985 493 q 982 498 984 496 q 978 499 981 499 q 975 499 977 500 q 974 498 974 498 q 972 497 973 497 q 971 495 971 496 q 970 494 970 495 l 970 489 l 970 482 l 970 480 l 970 478 l 970 471 q 969 469 970 470 q 969 465 969 467 q 956 451 966 456 q 951 449 953 450 q 944 450 948 448 q 935 451 940 450 q 930 454 932 453 q 926 458 928 456 q 923 462 924 460 q 920 467 922 464 q 918 477 918 474 q 920 487 918 480 q 922 490 920 489 q 924 493 924 493 q 925 496 924 496 q 927 497 928 497 l 930 496 q 933 491 932 492 q 934 490 933 490 q 934 488 934 489 q 932 484 934 485 l 932 483 l 932 477 q 933 471 932 474 q 934 470 933 470 q 936 467 935 469 q 938 466 937 467 q 940 464 939 464 q 942 464 941 464 q 944 462 943 464 q 948 462 946 462 q 951 464 950 462 q 954 465 952 464 q 956 469 956 468 q 957 474 957 470 l 957 479 l 957 482 l 957 490 q 957 499 957 496 q 959 503 958 501 q 962 506 960 504 q 965 509 964 508 q 970 511 967 510 q 979 512 975 513 q 988 510 984 512 q 992 507 990 509 q 996 503 995 506 q 1000 496 998 502 q 1002 489 1002 491 q 1001 482 1002 484 q 998 475 1001 479 q 998 472 998 474 q 997 470 998 470 l 992 472 q 990 474 990 473 q 988 477 989 475 q 987 480 987 478 q 987 483 987 483 m 937 422 l 933 434 l 1012 457 l 1016 444 l 937 422 m 981 422 l 994 422 q 1003 418 998 422 q 1009 417 1006 418 q 1012 413 1011 415 q 1017 410 1015 411 q 1021 405 1019 408 q 1026 398 1023 400 q 1030 385 1028 391 l 1030 374 q 1026 364 1028 367 q 1024 358 1025 360 q 1021 353 1023 356 l 1014 346 q 1009 343 1011 344 q 1004 341 1006 342 q 994 339 999 339 q 981 339 987 338 q 970 341 975 339 q 966 343 969 342 q 961 345 964 344 q 957 350 959 347 q 954 353 956 352 q 949 364 950 357 q 946 368 947 366 q 945 374 945 371 q 946 391 944 384 q 953 405 950 399 q 965 416 957 411 q 973 420 969 418 q 981 422 977 422 m 983 408 q 976 405 977 408 q 969 402 972 405 q 964 398 966 401 q 961 391 961 394 q 960 388 960 390 q 958 384 959 385 l 958 377 q 961 369 960 371 q 964 363 961 365 q 967 359 965 360 q 969 356 968 358 q 972 355 970 356 q 976 352 974 353 q 979 352 977 352 q 983 352 981 352 q 990 352 986 349 q 1002 355 998 352 q 1010 363 1005 356 q 1015 373 1015 368 q 1016 384 1016 378 q 1014 391 1016 388 q 1012 395 1012 393 q 1010 398 1011 396 q 1007 400 1009 398 q 1005 402 1006 401 q 998 405 1002 405 q 990 408 996 408 q 983 408 988 410 m 946 258 l 947 269 l 1014 311 l 951 314 l 951 328 l 1033 321 l 1033 313 q 1032 307 1033 310 q 1030 304 1030 306 l 973 269 l 1030 265 l 1029 252 l 946 258 z "},"8":{"ha":1161,"x_min":85,"x_max":1033,"o":"m 561 23 q 668 44 617 23 q 759 99 719 65 l 363 99 q 453 44 403 65 q 561 23 503 23 m 397 131 l 788 131 q 837 217 819 169 q 854 319 854 266 q 836 424 854 375 q 780 520 818 472 l 397 131 m 561 679 q 423 651 488 679 q 309 575 359 623 q 231 461 260 527 q 202 319 202 396 q 230 184 202 248 q 305 70 257 119 q 418 -8 352 21 q 561 -37 484 -37 q 609 -33 585 -37 q 656 -23 634 -30 q 758 24 710 -7 q 841 100 806 56 q 897 200 877 144 q 918 319 918 255 q 891 454 918 390 q 816 569 864 519 q 703 649 769 619 q 561 679 637 679 m 561 -10 q 431 17 491 -10 q 327 89 372 43 q 258 194 283 134 q 234 319 234 253 q 258 444 234 385 q 326 549 282 503 q 430 621 370 595 q 561 648 490 648 q 647 636 607 648 q 740 595 696 623 q 817 525 784 566 q 869 432 850 484 q 888 319 888 380 q 862 191 888 252 q 792 86 837 131 q 688 16 747 42 q 561 -10 628 -10 m 332 507 q 283 422 300 469 q 265 319 265 375 q 284 212 265 262 q 339 121 304 161 l 724 507 l 332 507 m 561 616 q 452 596 503 616 q 362 540 402 576 l 755 540 q 667 595 717 575 q 561 616 617 616 m 665 -57 l 602 -69 l 605 -87 l 628 -82 l 640 -144 l 658 -141 l 647 -79 l 668 -75 l 665 -57 m 734 -82 q 728 -76 734 -77 l 720 -72 l 710 -72 l 706 -72 l 700 -72 l 698 -72 l 698 -71 q 696 -69 696 -69 l 694 -68 q 696 -65 696 -68 q 696 -64 696 -64 l 698 -64 q 701 -64 698 -64 l 701 -62 l 702 -62 l 706 -62 l 707 -62 q 710 -61 710 -62 q 716 -61 714 -61 q 717 -58 716 -59 q 717 -57 717 -57 l 720 -50 l 716 -48 q 707 -45 710 -45 q 705 -44 707 -45 q 701 -43 703 -43 q 697 -44 699 -43 q 694 -45 696 -45 l 686 -50 q 683 -53 684 -51 q 681 -57 681 -55 q 675 -68 675 -62 q 675 -71 675 -69 q 677 -76 675 -73 q 684 -85 679 -82 q 687 -86 685 -85 q 689 -89 688 -88 q 694 -89 692 -89 q 698 -90 696 -90 l 707 -90 l 714 -90 l 714 -90 q 717 -92 716 -90 q 720 -93 720 -92 l 721 -93 l 721 -96 q 721 -99 721 -98 q 720 -100 720 -99 l 720 -101 q 719 -102 720 -101 q 717 -104 718 -104 q 714 -106 716 -106 q 712 -106 714 -106 q 710 -106 710 -106 q 707 -106 708 -106 q 706 -106 707 -106 l 701 -106 l 696 -106 l 693 -107 q 693 -108 693 -107 q 692 -109 693 -109 l 688 -115 q 691 -118 689 -117 q 693 -122 692 -120 q 697 -123 695 -122 q 702 -123 700 -123 q 710 -125 707 -126 q 715 -124 713 -125 q 720 -123 718 -123 q 725 -121 723 -122 q 731 -118 727 -120 q 734 -114 734 -115 q 738 -109 735 -113 q 740 -104 738 -106 q 741 -99 741 -102 q 741 -93 741 -95 q 738 -89 740 -91 q 734 -82 738 -83 m 769 -85 q 766 -82 768 -82 q 764 -82 766 -82 q 762 -82 763 -82 q 758 -82 761 -82 l 753 -85 q 752 -88 752 -86 l 752 -89 q 751 -92 751 -90 l 751 -93 q 752 -95 751 -95 q 752 -96 752 -96 q 754 -101 752 -101 q 759 -104 755 -104 l 763 -104 q 768 -102 766 -104 q 770 -101 769 -102 q 772 -99 772 -101 l 772 -98 q 773 -96 772 -96 q 775 -95 775 -95 l 775 -93 q 772 -89 775 -89 q 769 -85 769 -85 m 577 -122 q 576 -119 576 -122 q 576 -118 576 -118 q 575 -117 575 -118 q 574 -115 575 -115 l 545 -73 q 543 -71 545 -72 q 537 -69 543 -69 l 531 -69 l 522 -69 l 523 -152 l 543 -151 l 543 -96 l 578 -151 l 595 -151 l 595 -69 l 575 -69 l 577 -122 m 405 -59 l 439 -71 l 444 -54 l 394 -36 l 365 -109 l 384 -117 l 394 -89 l 420 -99 l 427 -82 l 401 -71 l 405 -59 m 509 -79 l 503 -71 q 498 -68 501 -69 q 493 -65 496 -67 q 488 -64 490 -64 q 483 -62 486 -63 q 477 -61 479 -61 q 471 -61 474 -61 q 462 -64 464 -61 q 457 -65 459 -64 q 451 -68 454 -66 l 444 -75 q 437 -82 441 -81 q 434 -89 436 -86 q 433 -93 433 -91 l 433 -106 l 436 -116 l 439 -125 l 447 -133 q 452 -136 450 -135 q 457 -139 455 -137 q 467 -141 461 -141 q 473 -142 470 -142 q 477 -142 475 -142 q 487 -141 481 -142 q 493 -139 490 -140 q 497 -136 496 -138 q 505 -129 502 -135 l 511 -122 q 516 -109 514 -116 l 516 -99 q 515 -95 516 -97 q 513 -89 515 -92 q 511 -83 512 -85 q 509 -79 510 -82 m 497 -106 q 496 -111 497 -109 q 493 -115 495 -113 q 490 -118 491 -117 q 487 -122 489 -120 q 483 -123 484 -122 q 478 -123 481 -123 q 470 -123 474 -126 q 466 -123 468 -123 q 462 -122 464 -122 l 457 -115 q 454 -111 455 -113 q 454 -106 454 -109 q 454 -96 452 -102 q 457 -89 454 -92 l 462 -82 l 470 -79 l 478 -79 l 487 -82 l 493 -89 q 496 -92 495 -91 q 497 -96 497 -94 q 497 -106 498 -102 m 898 129 q 897 126 898 128 q 896 122 896 125 q 897 119 896 121 q 898 116 898 118 l 926 76 l 878 83 l 872 83 l 865 79 l 859 68 l 926 23 l 938 38 l 905 61 l 947 52 l 955 66 l 932 101 l 964 80 l 975 96 l 907 141 l 898 129 m 890 41 l 880 50 l 870 52 q 859 54 867 54 q 855 54 857 54 q 849 52 852 54 l 840 50 q 835 46 838 48 q 830 41 832 43 q 827 37 828 39 q 825 33 826 35 q 822 28 822 30 q 819 23 821 26 q 819 18 819 20 q 818 12 818 16 q 818 8 818 10 q 819 2 818 5 l 822 -8 l 829 -16 l 839 -23 q 844 -25 842 -23 q 849 -27 845 -27 q 855 -28 852 -27 q 859 -30 857 -30 q 864 -28 861 -30 q 870 -27 866 -27 q 874 -25 872 -27 q 879 -23 877 -23 q 888 -16 884 -21 l 895 -8 q 897 -4 896 -6 q 898 2 898 -2 q 899 12 899 5 l 899 23 l 895 31 q 892 37 894 34 q 890 41 890 41 m 880 4 q 875 -3 878 -2 q 868 -9 870 -8 q 864 -10 866 -10 q 859 -10 861 -10 q 855 -9 857 -10 q 852 -9 852 -9 l 844 -3 q 839 5 841 0 q 839 12 839 8 q 839 20 839 18 q 844 29 841 26 l 852 34 q 855 34 853 34 q 859 35 858 35 q 868 33 863 35 q 872 31 870 32 q 875 27 873 30 q 878 24 877 26 q 880 20 879 23 q 882 12 882 18 q 881 7 882 10 q 880 4 880 4 m 829 -37 l 825 -40 q 822 -42 823 -40 q 821 -45 821 -43 l 818 -51 l 812 -56 q 808 -58 809 -57 q 804 -59 806 -59 q 795 -59 799 -61 q 792 -57 793 -57 q 787 -56 790 -57 q 783 -48 783 -53 q 780 -40 780 -47 q 780 -30 776 -38 q 780 -28 780 -30 q 780 -23 780 -26 q 783 -20 782 -22 q 786 -18 785 -19 q 793 -16 792 -16 q 800 -15 795 -15 q 807 -12 801 -15 q 811 -9 808 -10 l 812 -4 l 812 2 q 804 5 810 5 l 794 5 l 785 2 l 777 -2 q 773 -5 776 -3 q 769 -10 771 -7 q 766 -13 767 -11 q 763 -19 765 -16 l 759 -30 l 759 -40 q 760 -45 759 -43 q 761 -50 761 -47 l 766 -61 q 770 -65 767 -63 q 773 -68 772 -66 l 783 -75 l 791 -76 q 802 -78 794 -78 q 807 -77 805 -78 q 812 -76 809 -76 q 818 -73 815 -75 q 822 -69 820 -71 q 826 -68 824 -69 q 829 -64 828 -67 q 833 -62 832 -64 q 836 -57 834 -60 l 839 -48 q 842 -39 842 -45 l 833 -37 l 829 -37 m 350 -10 l 280 -61 l 290 -68 q 292 -68 290 -68 q 293 -68 293 -68 q 296 -68 295 -68 q 297 -68 296 -69 l 300 -68 q 304 -68 303 -68 l 311 -61 l 339 -76 l 337 -87 l 337 -90 q 338 -92 337 -92 q 339 -93 338 -93 l 339 -95 q 339 -96 339 -96 l 342 -99 l 353 -106 l 365 -19 l 350 -10 m 342 -39 l 342 -40 l 342 -43 l 341 -57 l 328 -50 l 339 -40 l 341 -40 q 342 -40 342 -40 l 342 -39 l 342 -38 l 343 -38 q 345 -37 344 -37 l 342 -39 m 321 -13 l 333 1 l 286 42 l 272 27 l 290 12 l 250 -34 l 264 -47 l 306 2 l 321 -13 m 168 95 l 226 89 q 230 89 227 89 q 231 89 231 89 q 234 89 232 89 l 241 95 l 210 148 l 194 139 l 212 109 l 155 115 q 151 114 154 115 q 146 112 148 114 l 139 109 l 170 54 l 186 64 l 168 95 m 238 20 l 253 33 l 234 54 l 244 62 l 266 35 l 280 47 l 246 89 l 183 36 l 219 -4 l 232 9 l 210 34 l 221 42 l 238 20 m 122 325 l 157 327 q 160 324 158 326 q 162 321 161 323 q 165 318 164 320 q 166 314 166 316 q 168 306 167 310 q 169 302 168 304 q 169 299 169 300 q 169 289 169 293 q 167 281 168 285 q 164 273 166 276 q 159 266 161 269 q 146 257 155 260 q 130 252 138 252 l 118 252 q 113 254 115 253 q 108 257 110 255 q 103 259 105 258 q 99 262 102 260 q 95 266 97 264 q 92 271 93 268 q 89 275 90 273 q 87 280 89 277 q 86 286 86 283 q 85 293 85 289 q 85 297 85 294 q 85 300 85 299 q 87 310 87 306 q 89 313 89 312 q 92 318 90 315 q 94 321 93 319 q 96 325 95 323 l 99 321 q 102 320 101 321 q 102 319 102 319 q 103 314 103 318 q 103 312 103 313 q 102 310 103 311 q 99 302 99 306 q 99 293 99 299 q 101 281 99 287 q 104 276 102 279 q 108 273 106 274 q 117 267 111 269 q 129 266 122 265 q 137 267 134 266 q 140 269 139 268 q 143 271 141 269 q 146 273 144 273 q 149 276 148 273 q 151 278 150 277 q 154 281 152 280 q 154 286 154 284 q 155 290 155 287 q 156 297 156 293 q 155 302 155 299 q 154 307 155 304 q 150 314 154 309 l 137 313 l 137 310 l 137 306 q 135 303 137 305 q 134 301 135 302 q 133 300 134 300 q 128 299 131 299 l 124 299 l 122 325 m 173 387 l 167 335 l 85 343 l 90 395 l 103 394 l 99 356 l 120 352 l 123 385 l 137 384 l 134 352 l 155 350 l 159 390 l 173 387 m 103 401 l 92 405 l 107 467 l 120 464 l 113 438 l 181 422 l 178 409 l 110 425 l 103 401 m 132 496 l 120 502 l 148 559 l 160 554 l 149 531 l 211 500 l 206 488 l 143 519 l 132 496 m 262 578 l 254 567 l 227 588 l 202 555 l 231 534 l 223 523 l 155 572 l 163 582 l 191 563 l 215 595 l 188 616 l 195 627 l 262 578 m 306 620 l 269 584 l 211 644 l 248 681 l 258 670 l 231 643 l 245 628 l 267 650 l 276 641 l 254 620 l 269 603 l 297 630 l 306 620 m 346 706 l 353 694 l 326 677 l 343 648 l 333 641 l 290 710 l 333 738 l 339 727 l 307 707 l 319 688 l 346 706 m 380 706 q 384 699 380 701 q 391 694 385 696 q 394 693 391 693 q 398 693 396 693 q 405 694 401 693 q 411 699 410 696 q 416 706 415 702 q 417 713 417 707 q 416 720 417 717 l 398 766 l 409 773 l 429 725 q 430 719 430 721 q 431 713 431 716 q 429 700 431 706 q 425 694 427 696 q 420 689 424 692 q 416 684 418 686 q 411 682 414 683 q 404 680 407 681 q 398 679 401 679 q 385 682 391 679 q 379 684 381 683 q 374 689 377 686 q 367 700 370 694 l 346 746 l 359 752 l 380 706 m 450 696 l 429 777 l 443 780 l 458 714 l 492 720 l 495 707 l 450 696 m 497 707 l 489 790 l 503 791 l 510 723 l 545 727 l 545 713 l 497 707 m 589 710 l 576 713 l 585 794 l 615 791 q 625 788 620 791 q 633 781 631 785 q 637 773 635 780 q 639 762 640 767 q 637 757 637 760 q 635 752 637 755 q 629 744 631 746 q 620 739 627 741 q 610 738 617 738 l 593 740 l 589 710 m 611 752 l 616 752 q 621 755 618 752 q 623 759 623 755 q 626 764 624 760 q 625 769 626 767 q 624 771 624 770 q 623 773 623 773 q 621 775 622 774 q 619 776 620 776 q 616 777 617 777 q 615 778 615 777 l 597 780 l 594 753 l 611 752 m 650 702 l 637 706 l 658 784 l 688 776 q 696 773 693 776 q 703 766 700 769 q 706 756 706 762 q 706 750 707 753 q 706 746 706 748 q 702 739 704 742 q 698 734 700 735 q 691 731 693 731 q 688 729 689 729 q 685 727 686 728 l 700 688 l 689 689 q 687 691 688 690 q 685 693 686 693 q 681 699 682 694 l 668 731 l 658 734 l 650 702 m 668 767 l 661 746 l 679 741 q 681 741 680 741 q 682 741 681 741 q 685 742 684 741 q 688 742 686 742 q 689 743 689 742 q 689 745 689 745 q 693 749 693 748 q 693 754 693 752 q 693 757 693 755 q 692 759 693 758 q 690 760 691 760 q 689 762 689 760 q 685 764 687 764 l 668 767 m 710 727 q 712 733 710 731 q 716 738 714 735 q 719 741 717 740 q 724 745 721 743 q 728 747 726 747 q 734 749 731 748 q 744 752 737 752 l 754 752 q 766 747 760 751 q 776 741 771 745 q 780 737 778 739 q 783 734 781 734 q 785 729 784 731 q 787 724 786 727 q 789 718 788 720 q 790 714 790 716 q 790 708 790 710 q 788 702 790 706 q 787 697 787 700 q 785 692 786 694 q 782 687 783 689 q 780 682 781 685 q 775 678 777 680 q 772 674 773 677 q 767 671 769 673 q 762 668 765 670 q 751 668 758 668 q 739 668 742 668 q 728 672 735 668 q 716 682 720 675 q 707 696 710 688 q 706 704 706 701 q 706 713 706 707 q 710 727 706 720 m 721 723 q 720 719 720 720 q 718 714 720 717 l 718 707 q 719 704 718 707 q 720 701 720 702 q 723 694 720 696 q 725 691 724 693 q 727 689 727 689 q 734 685 730 686 q 741 682 739 682 l 749 682 q 758 682 754 682 q 763 686 760 686 q 767 688 766 687 q 769 690 768 689 q 772 694 771 693 q 773 697 773 696 q 776 703 775 700 q 776 709 776 706 q 776 714 776 712 q 776 720 776 717 q 773 725 774 722 q 769 728 771 727 q 760 735 765 734 q 757 737 759 737 q 752 738 754 738 l 745 738 q 738 737 740 738 q 734 735 735 735 q 731 734 733 734 q 729 731 730 733 q 727 728 727 730 q 721 723 721 723 m 839 706 l 845 700 q 846 697 845 699 q 849 695 847 696 q 847 689 849 692 l 828 630 l 885 656 q 891 657 886 657 q 895 655 894 657 l 902 649 l 821 612 l 811 620 l 839 706 m 878 549 l 845 588 l 908 641 l 942 602 l 932 592 l 906 622 l 891 609 l 911 584 l 899 576 l 880 601 l 864 586 l 888 557 l 878 549 m 888 531 l 882 543 l 952 585 l 968 559 q 970 555 970 557 q 971 549 970 553 q 970 541 973 544 q 967 532 969 535 q 964 529 965 530 q 959 525 962 527 q 955 524 957 524 q 952 523 954 523 q 948 522 950 523 q 945 523 947 522 q 938 524 943 523 q 934 526 936 525 q 932 528 933 526 l 916 487 l 910 496 q 907 501 907 497 q 909 507 907 505 l 923 540 l 918 549 l 888 531 m 949 566 l 929 555 l 938 542 q 940 537 939 538 q 944 536 941 537 l 949 536 q 952 537 950 536 q 957 540 953 537 q 957 543 957 542 q 957 544 957 543 q 958 549 958 545 q 957 550 957 549 q 957 553 957 551 l 949 566 m 987 483 q 988 488 988 484 q 987 491 988 490 q 985 496 985 493 q 982 498 984 496 q 978 499 981 499 q 975 499 977 500 q 974 498 974 498 q 972 497 973 497 q 971 495 971 496 q 970 494 970 495 l 970 489 l 970 482 l 970 480 l 970 478 l 970 471 q 969 469 970 470 q 969 465 969 467 q 956 451 966 456 q 951 449 953 450 q 944 450 948 448 q 935 451 940 450 q 930 454 932 453 q 926 458 928 456 q 923 462 924 460 q 920 467 922 464 q 918 477 918 474 q 920 487 918 480 q 922 490 920 489 q 924 493 924 493 q 925 496 924 496 q 927 497 928 497 l 930 496 q 933 491 932 492 q 934 490 933 490 q 934 488 934 489 q 932 484 934 485 l 932 483 l 932 477 q 933 471 932 474 q 934 470 933 470 q 936 467 935 469 q 938 466 937 467 q 940 464 939 464 q 942 464 941 464 q 944 462 943 464 q 948 462 946 462 q 951 464 950 462 q 954 465 952 464 q 956 469 956 468 q 957 474 957 470 l 957 479 l 957 482 l 957 490 q 957 499 957 496 q 959 503 958 501 q 962 506 960 504 q 965 509 964 508 q 970 511 967 510 q 979 512 975 513 q 988 510 984 512 q 992 507 990 509 q 996 503 995 506 q 1000 496 998 502 q 1002 489 1002 491 q 1001 482 1002 484 q 998 475 1001 479 q 998 472 998 474 q 997 470 998 470 l 992 472 q 990 474 990 473 q 988 477 989 475 q 987 480 987 478 q 987 483 987 483 m 937 422 l 933 434 l 1012 457 l 1016 444 l 937 422 m 981 422 l 994 422 q 1003 418 998 422 q 1009 417 1006 418 q 1012 413 1011 415 q 1017 410 1015 411 q 1021 405 1019 408 q 1026 398 1023 400 q 1030 385 1028 391 l 1030 374 q 1026 364 1028 367 q 1024 358 1025 360 q 1021 353 1023 356 l 1014 346 q 1009 343 1011 344 q 1004 341 1006 342 q 994 339 999 339 q 981 339 987 338 q 970 341 975 339 q 966 343 969 342 q 961 345 964 344 q 957 350 959 347 q 954 353 956 352 q 949 364 950 357 q 946 368 947 366 q 945 374 945 371 q 946 391 944 384 q 953 405 950 399 q 965 416 957 411 q 973 420 969 418 q 981 422 977 422 m 983 408 q 976 405 977 408 q 969 402 972 405 q 964 398 966 401 q 961 391 961 394 q 960 388 960 390 q 958 384 959 385 l 958 377 q 961 369 960 371 q 964 363 961 365 q 967 359 965 360 q 969 356 968 358 q 972 355 970 356 q 976 352 974 353 q 979 352 977 352 q 983 352 981 352 q 990 352 986 349 q 1002 355 998 352 q 1010 363 1005 356 q 1015 373 1015 368 q 1016 384 1016 378 q 1014 391 1016 388 q 1012 395 1012 393 q 1010 398 1011 396 q 1007 400 1009 398 q 1005 402 1006 401 q 998 405 1002 405 q 990 408 996 408 q 983 408 988 410 m 946 258 l 947 269 l 1014 311 l 951 314 l 951 328 l 1033 321 l 1033 313 q 1032 307 1033 310 q 1030 304 1030 306 l 973 269 l 1030 265 l 1029 252 l 946 258 z "},"9":{"ha":1161,"x_min":85,"x_max":1033,"o":"m 561 23 q 668 44 617 23 q 759 99 719 65 l 363 99 q 453 44 403 65 q 561 23 503 23 m 397 131 l 788 131 q 837 217 819 169 q 854 319 854 266 q 836 424 854 375 q 780 520 818 472 l 397 131 m 561 679 q 423 651 488 679 q 309 575 359 623 q 231 461 260 527 q 202 319 202 396 q 230 184 202 248 q 305 70 257 119 q 418 -8 352 21 q 561 -37 484 -37 q 609 -33 585 -37 q 656 -23 634 -30 q 758 24 710 -7 q 841 100 806 56 q 897 200 877 144 q 918 319 918 255 q 891 454 918 390 q 816 569 864 519 q 703 649 769 619 q 561 679 637 679 m 561 -10 q 431 17 491 -10 q 327 89 372 43 q 258 194 283 134 q 234 319 234 253 q 258 444 234 385 q 326 549 282 503 q 430 621 370 595 q 561 648 490 648 q 647 636 607 648 q 740 595 696 623 q 817 525 784 566 q 869 432 850 484 q 888 319 888 380 q 862 191 888 252 q 792 86 837 131 q 688 16 747 42 q 561 -10 628 -10 m 332 507 q 283 422 300 469 q 265 319 265 375 q 284 212 265 262 q 339 121 304 161 l 724 507 l 332 507 m 561 616 q 452 596 503 616 q 362 540 402 576 l 755 540 q 667 595 717 575 q 561 616 617 616 m 665 -57 l 602 -69 l 605 -87 l 628 -82 l 640 -144 l 658 -141 l 647 -79 l 668 -75 l 665 -57 m 734 -82 q 728 -76 734 -77 l 720 -72 l 710 -72 l 706 -72 l 700 -72 l 698 -72 l 698 -71 q 696 -69 696 -69 l 694 -68 q 696 -65 696 -68 q 696 -64 696 -64 l 698 -64 q 701 -64 698 -64 l 701 -62 l 702 -62 l 706 -62 l 707 -62 q 710 -61 710 -62 q 716 -61 714 -61 q 717 -58 716 -59 q 717 -57 717 -57 l 720 -50 l 716 -48 q 707 -45 710 -45 q 705 -44 707 -45 q 701 -43 703 -43 q 697 -44 699 -43 q 694 -45 696 -45 l 686 -50 q 683 -53 684 -51 q 681 -57 681 -55 q 675 -68 675 -62 q 675 -71 675 -69 q 677 -76 675 -73 q 684 -85 679 -82 q 687 -86 685 -85 q 689 -89 688 -88 q 694 -89 692 -89 q 698 -90 696 -90 l 707 -90 l 714 -90 l 714 -90 q 717 -92 716 -90 q 720 -93 720 -92 l 721 -93 l 721 -96 q 721 -99 721 -98 q 720 -100 720 -99 l 720 -101 q 719 -102 720 -101 q 717 -104 718 -104 q 714 -106 716 -106 q 712 -106 714 -106 q 710 -106 710 -106 q 707 -106 708 -106 q 706 -106 707 -106 l 701 -106 l 696 -106 l 693 -107 q 693 -108 693 -107 q 692 -109 693 -109 l 688 -115 q 691 -118 689 -117 q 693 -122 692 -120 q 697 -123 695 -122 q 702 -123 700 -123 q 710 -125 707 -126 q 715 -124 713 -125 q 720 -123 718 -123 q 725 -121 723 -122 q 731 -118 727 -120 q 734 -114 734 -115 q 738 -109 735 -113 q 740 -104 738 -106 q 741 -99 741 -102 q 741 -93 741 -95 q 738 -89 740 -91 q 734 -82 738 -83 m 769 -85 q 766 -82 768 -82 q 764 -82 766 -82 q 762 -82 763 -82 q 758 -82 761 -82 l 753 -85 q 752 -88 752 -86 l 752 -89 q 751 -92 751 -90 l 751 -93 q 752 -95 751 -95 q 752 -96 752 -96 q 754 -101 752 -101 q 759 -104 755 -104 l 763 -104 q 768 -102 766 -104 q 770 -101 769 -102 q 772 -99 772 -101 l 772 -98 q 773 -96 772 -96 q 775 -95 775 -95 l 775 -93 q 772 -89 775 -89 q 769 -85 769 -85 m 577 -122 q 576 -119 576 -122 q 576 -118 576 -118 q 575 -117 575 -118 q 574 -115 575 -115 l 545 -73 q 543 -71 545 -72 q 537 -69 543 -69 l 531 -69 l 522 -69 l 523 -152 l 543 -151 l 543 -96 l 578 -151 l 595 -151 l 595 -69 l 575 -69 l 577 -122 m 405 -59 l 439 -71 l 444 -54 l 394 -36 l 365 -109 l 384 -117 l 394 -89 l 420 -99 l 427 -82 l 401 -71 l 405 -59 m 509 -79 l 503 -71 q 498 -68 501 -69 q 493 -65 496 -67 q 488 -64 490 -64 q 483 -62 486 -63 q 477 -61 479 -61 q 471 -61 474 -61 q 462 -64 464 -61 q 457 -65 459 -64 q 451 -68 454 -66 l 444 -75 q 437 -82 441 -81 q 434 -89 436 -86 q 433 -93 433 -91 l 433 -106 l 436 -116 l 439 -125 l 447 -133 q 452 -136 450 -135 q 457 -139 455 -137 q 467 -141 461 -141 q 473 -142 470 -142 q 477 -142 475 -142 q 487 -141 481 -142 q 493 -139 490 -140 q 497 -136 496 -138 q 505 -129 502 -135 l 511 -122 q 516 -109 514 -116 l 516 -99 q 515 -95 516 -97 q 513 -89 515 -92 q 511 -83 512 -85 q 509 -79 510 -82 m 497 -106 q 496 -111 497 -109 q 493 -115 495 -113 q 490 -118 491 -117 q 487 -122 489 -120 q 483 -123 484 -122 q 478 -123 481 -123 q 470 -123 474 -126 q 466 -123 468 -123 q 462 -122 464 -122 l 457 -115 q 454 -111 455 -113 q 454 -106 454 -109 q 454 -96 452 -102 q 457 -89 454 -92 l 462 -82 l 470 -79 l 478 -79 l 487 -82 l 493 -89 q 496 -92 495 -91 q 497 -96 497 -94 q 497 -106 498 -102 m 898 129 q 897 126 898 128 q 896 122 896 125 q 897 119 896 121 q 898 116 898 118 l 926 76 l 878 83 l 872 83 l 865 79 l 859 68 l 926 23 l 938 38 l 905 61 l 947 52 l 955 66 l 932 101 l 964 80 l 975 96 l 907 141 l 898 129 m 890 41 l 880 50 l 870 52 q 859 54 867 54 q 855 54 857 54 q 849 52 852 54 l 840 50 q 835 46 838 48 q 830 41 832 43 q 827 37 828 39 q 825 33 826 35 q 822 28 822 30 q 819 23 821 26 q 819 18 819 20 q 818 12 818 16 q 818 8 818 10 q 819 2 818 5 l 822 -8 l 829 -16 l 839 -23 q 844 -25 842 -23 q 849 -27 845 -27 q 855 -28 852 -27 q 859 -30 857 -30 q 864 -28 861 -30 q 870 -27 866 -27 q 874 -25 872 -27 q 879 -23 877 -23 q 888 -16 884 -21 l 895 -8 q 897 -4 896 -6 q 898 2 898 -2 q 899 12 899 5 l 899 23 l 895 31 q 892 37 894 34 q 890 41 890 41 m 880 4 q 875 -3 878 -2 q 868 -9 870 -8 q 864 -10 866 -10 q 859 -10 861 -10 q 855 -9 857 -10 q 852 -9 852 -9 l 844 -3 q 839 5 841 0 q 839 12 839 8 q 839 20 839 18 q 844 29 841 26 l 852 34 q 855 34 853 34 q 859 35 858 35 q 868 33 863 35 q 872 31 870 32 q 875 27 873 30 q 878 24 877 26 q 880 20 879 23 q 882 12 882 18 q 881 7 882 10 q 880 4 880 4 m 829 -37 l 825 -40 q 822 -42 823 -40 q 821 -45 821 -43 l 818 -51 l 812 -56 q 808 -58 809 -57 q 804 -59 806 -59 q 795 -59 799 -61 q 792 -57 793 -57 q 787 -56 790 -57 q 783 -48 783 -53 q 780 -40 780 -47 q 780 -30 776 -38 q 780 -28 780 -30 q 780 -23 780 -26 q 783 -20 782 -22 q 786 -18 785 -19 q 793 -16 792 -16 q 800 -15 795 -15 q 807 -12 801 -15 q 811 -9 808 -10 l 812 -4 l 812 2 q 804 5 810 5 l 794 5 l 785 2 l 777 -2 q 773 -5 776 -3 q 769 -10 771 -7 q 766 -13 767 -11 q 763 -19 765 -16 l 759 -30 l 759 -40 q 760 -45 759 -43 q 761 -50 761 -47 l 766 -61 q 770 -65 767 -63 q 773 -68 772 -66 l 783 -75 l 791 -76 q 802 -78 794 -78 q 807 -77 805 -78 q 812 -76 809 -76 q 818 -73 815 -75 q 822 -69 820 -71 q 826 -68 824 -69 q 829 -64 828 -67 q 833 -62 832 -64 q 836 -57 834 -60 l 839 -48 q 842 -39 842 -45 l 833 -37 l 829 -37 m 350 -10 l 280 -61 l 290 -68 q 292 -68 290 -68 q 293 -68 293 -68 q 296 -68 295 -68 q 297 -68 296 -69 l 300 -68 q 304 -68 303 -68 l 311 -61 l 339 -76 l 337 -87 l 337 -90 q 338 -92 337 -92 q 339 -93 338 -93 l 339 -95 q 339 -96 339 -96 l 342 -99 l 353 -106 l 365 -19 l 350 -10 m 342 -39 l 342 -40 l 342 -43 l 341 -57 l 328 -50 l 339 -40 l 341 -40 q 342 -40 342 -40 l 342 -39 l 342 -38 l 343 -38 q 345 -37 344 -37 l 342 -39 m 321 -13 l 333 1 l 286 42 l 272 27 l 290 12 l 250 -34 l 264 -47 l 306 2 l 321 -13 m 168 95 l 226 89 q 230 89 227 89 q 231 89 231 89 q 234 89 232 89 l 241 95 l 210 148 l 194 139 l 212 109 l 155 115 q 151 114 154 115 q 146 112 148 114 l 139 109 l 170 54 l 186 64 l 168 95 m 238 20 l 253 33 l 234 54 l 244 62 l 266 35 l 280 47 l 246 89 l 183 36 l 219 -4 l 232 9 l 210 34 l 221 42 l 238 20 m 122 325 l 157 327 q 160 324 158 326 q 162 321 161 323 q 165 318 164 320 q 166 314 166 316 q 168 306 167 310 q 169 302 168 304 q 169 299 169 300 q 169 289 169 293 q 167 281 168 285 q 164 273 166 276 q 159 266 161 269 q 146 257 155 260 q 130 252 138 252 l 118 252 q 113 254 115 253 q 108 257 110 255 q 103 259 105 258 q 99 262 102 260 q 95 266 97 264 q 92 271 93 268 q 89 275 90 273 q 87 280 89 277 q 86 286 86 283 q 85 293 85 289 q 85 297 85 294 q 85 300 85 299 q 87 310 87 306 q 89 313 89 312 q 92 318 90 315 q 94 321 93 319 q 96 325 95 323 l 99 321 q 102 320 101 321 q 102 319 102 319 q 103 314 103 318 q 103 312 103 313 q 102 310 103 311 q 99 302 99 306 q 99 293 99 299 q 101 281 99 287 q 104 276 102 279 q 108 273 106 274 q 117 267 111 269 q 129 266 122 265 q 137 267 134 266 q 140 269 139 268 q 143 271 141 269 q 146 273 144 273 q 149 276 148 273 q 151 278 150 277 q 154 281 152 280 q 154 286 154 284 q 155 290 155 287 q 156 297 156 293 q 155 302 155 299 q 154 307 155 304 q 150 314 154 309 l 137 313 l 137 310 l 137 306 q 135 303 137 305 q 134 301 135 302 q 133 300 134 300 q 128 299 131 299 l 124 299 l 122 325 m 173 387 l 167 335 l 85 343 l 90 395 l 103 394 l 99 356 l 120 352 l 123 385 l 137 384 l 134 352 l 155 350 l 159 390 l 173 387 m 103 401 l 92 405 l 107 467 l 120 464 l 113 438 l 181 422 l 178 409 l 110 425 l 103 401 m 132 496 l 120 502 l 148 559 l 160 554 l 149 531 l 211 500 l 206 488 l 143 519 l 132 496 m 262 578 l 254 567 l 227 588 l 202 555 l 231 534 l 223 523 l 155 572 l 163 582 l 191 563 l 215 595 l 188 616 l 195 627 l 262 578 m 306 620 l 269 584 l 211 644 l 248 681 l 258 670 l 231 643 l 245 628 l 267 650 l 276 641 l 254 620 l 269 603 l 297 630 l 306 620 m 346 706 l 353 694 l 326 677 l 343 648 l 333 641 l 290 710 l 333 738 l 339 727 l 307 707 l 319 688 l 346 706 m 380 706 q 384 699 380 701 q 391 694 385 696 q 394 693 391 693 q 398 693 396 693 q 405 694 401 693 q 411 699 410 696 q 416 706 415 702 q 417 713 417 707 q 416 720 417 717 l 398 766 l 409 773 l 429 725 q 430 719 430 721 q 431 713 431 716 q 429 700 431 706 q 425 694 427 696 q 420 689 424 692 q 416 684 418 686 q 411 682 414 683 q 404 680 407 681 q 398 679 401 679 q 385 682 391 679 q 379 684 381 683 q 374 689 377 686 q 367 700 370 694 l 346 746 l 359 752 l 380 706 m 450 696 l 429 777 l 443 780 l 458 714 l 492 720 l 495 707 l 450 696 m 497 707 l 489 790 l 503 791 l 510 723 l 545 727 l 545 713 l 497 707 m 589 710 l 576 713 l 585 794 l 615 791 q 625 788 620 791 q 633 781 631 785 q 637 773 635 780 q 639 762 640 767 q 637 757 637 760 q 635 752 637 755 q 629 744 631 746 q 620 739 627 741 q 610 738 617 738 l 593 740 l 589 710 m 611 752 l 616 752 q 621 755 618 752 q 623 759 623 755 q 626 764 624 760 q 625 769 626 767 q 624 771 624 770 q 623 773 623 773 q 621 775 622 774 q 619 776 620 776 q 616 777 617 777 q 615 778 615 777 l 597 780 l 594 753 l 611 752 m 650 702 l 637 706 l 658 784 l 688 776 q 696 773 693 776 q 703 766 700 769 q 706 756 706 762 q 706 750 707 753 q 706 746 706 748 q 702 739 704 742 q 698 734 700 735 q 691 731 693 731 q 688 729 689 729 q 685 727 686 728 l 700 688 l 689 689 q 687 691 688 690 q 685 693 686 693 q 681 699 682 694 l 668 731 l 658 734 l 650 702 m 668 767 l 661 746 l 679 741 q 681 741 680 741 q 682 741 681 741 q 685 742 684 741 q 688 742 686 742 q 689 743 689 742 q 689 745 689 745 q 693 749 693 748 q 693 754 693 752 q 693 757 693 755 q 692 759 693 758 q 690 760 691 760 q 689 762 689 760 q 685 764 687 764 l 668 767 m 710 727 q 712 733 710 731 q 716 738 714 735 q 719 741 717 740 q 724 745 721 743 q 728 747 726 747 q 734 749 731 748 q 744 752 737 752 l 754 752 q 766 747 760 751 q 776 741 771 745 q 780 737 778 739 q 783 734 781 734 q 785 729 784 731 q 787 724 786 727 q 789 718 788 720 q 790 714 790 716 q 790 708 790 710 q 788 702 790 706 q 787 697 787 700 q 785 692 786 694 q 782 687 783 689 q 780 682 781 685 q 775 678 777 680 q 772 674 773 677 q 767 671 769 673 q 762 668 765 670 q 751 668 758 668 q 739 668 742 668 q 728 672 735 668 q 716 682 720 675 q 707 696 710 688 q 706 704 706 701 q 706 713 706 707 q 710 727 706 720 m 721 723 q 720 719 720 720 q 718 714 720 717 l 718 707 q 719 704 718 707 q 720 701 720 702 q 723 694 720 696 q 725 691 724 693 q 727 689 727 689 q 734 685 730 686 q 741 682 739 682 l 749 682 q 758 682 754 682 q 763 686 760 686 q 767 688 766 687 q 769 690 768 689 q 772 694 771 693 q 773 697 773 696 q 776 703 775 700 q 776 709 776 706 q 776 714 776 712 q 776 720 776 717 q 773 725 774 722 q 769 728 771 727 q 760 735 765 734 q 757 737 759 737 q 752 738 754 738 l 745 738 q 738 737 740 738 q 734 735 735 735 q 731 734 733 734 q 729 731 730 733 q 727 728 727 730 q 721 723 721 723 m 839 706 l 845 700 q 846 697 845 699 q 849 695 847 696 q 847 689 849 692 l 828 630 l 885 656 q 891 657 886 657 q 895 655 894 657 l 902 649 l 821 612 l 811 620 l 839 706 m 878 549 l 845 588 l 908 641 l 942 602 l 932 592 l 906 622 l 891 609 l 911 584 l 899 576 l 880 601 l 864 586 l 888 557 l 878 549 m 888 531 l 882 543 l 952 585 l 968 559 q 970 555 970 557 q 971 549 970 553 q 970 541 973 544 q 967 532 969 535 q 964 529 965 530 q 959 525 962 527 q 955 524 957 524 q 952 523 954 523 q 948 522 950 523 q 945 523 947 522 q 938 524 943 523 q 934 526 936 525 q 932 528 933 526 l 916 487 l 910 496 q 907 501 907 497 q 909 507 907 505 l 923 540 l 918 549 l 888 531 m 949 566 l 929 555 l 938 542 q 940 537 939 538 q 944 536 941 537 l 949 536 q 952 537 950 536 q 957 540 953 537 q 957 543 957 542 q 957 544 957 543 q 958 549 958 545 q 957 550 957 549 q 957 553 957 551 l 949 566 m 987 483 q 988 488 988 484 q 987 491 988 490 q 985 496 985 493 q 982 498 984 496 q 978 499 981 499 q 975 499 977 500 q 974 498 974 498 q 972 497 973 497 q 971 495 971 496 q 970 494 970 495 l 970 489 l 970 482 l 970 480 l 970 478 l 970 471 q 969 469 970 470 q 969 465 969 467 q 956 451 966 456 q 951 449 953 450 q 944 450 948 448 q 935 451 940 450 q 930 454 932 453 q 926 458 928 456 q 923 462 924 460 q 920 467 922 464 q 918 477 918 474 q 920 487 918 480 q 922 490 920 489 q 924 493 924 493 q 925 496 924 496 q 927 497 928 497 l 930 496 q 933 491 932 492 q 934 490 933 490 q 934 488 934 489 q 932 484 934 485 l 932 483 l 932 477 q 933 471 932 474 q 934 470 933 470 q 936 467 935 469 q 938 466 937 467 q 940 464 939 464 q 942 464 941 464 q 944 462 943 464 q 948 462 946 462 q 951 464 950 462 q 954 465 952 464 q 956 469 956 468 q 957 474 957 470 l 957 479 l 957 482 l 957 490 q 957 499 957 496 q 959 503 958 501 q 962 506 960 504 q 965 509 964 508 q 970 511 967 510 q 979 512 975 513 q 988 510 984 512 q 992 507 990 509 q 996 503 995 506 q 1000 496 998 502 q 1002 489 1002 491 q 1001 482 1002 484 q 998 475 1001 479 q 998 472 998 474 q 997 470 998 470 l 992 472 q 990 474 990 473 q 988 477 989 475 q 987 480 987 478 q 987 483 987 483 m 937 422 l 933 434 l 1012 457 l 1016 444 l 937 422 m 981 422 l 994 422 q 1003 418 998 422 q 1009 417 1006 418 q 1012 413 1011 415 q 1017 410 1015 411 q 1021 405 1019 408 q 1026 398 1023 400 q 1030 385 1028 391 l 1030 374 q 1026 364 1028 367 q 1024 358 1025 360 q 1021 353 1023 356 l 1014 346 q 1009 343 1011 344 q 1004 341 1006 342 q 994 339 999 339 q 981 339 987 338 q 970 341 975 339 q 966 343 969 342 q 961 345 964 344 q 957 350 959 347 q 954 353 956 352 q 949 364 950 357 q 946 368 947 366 q 945 374 945 371 q 946 391 944 384 q 953 405 950 399 q 965 416 957 411 q 973 420 969 418 q 981 422 977 422 m 983 408 q 976 405 977 408 q 969 402 972 405 q 964 398 966 401 q 961 391 961 394 q 960 388 960 390 q 958 384 959 385 l 958 377 q 961 369 960 371 q 964 363 961 365 q 967 359 965 360 q 969 356 968 358 q 972 355 970 356 q 976 352 974 353 q 979 352 977 352 q 983 352 981 352 q 990 352 986 349 q 1002 355 998 352 q 1010 363 1005 356 q 1015 373 1015 368 q 1016 384 1016 378 q 1014 391 1016 388 q 1012 395 1012 393 q 1010 398 1011 396 q 1007 400 1009 398 q 1005 402 1006 401 q 998 405 1002 405 q 990 408 996 408 q 983 408 988 410 m 946 258 l 947 269 l 1014 311 l 951 314 l 951 328 l 1033 321 l 1033 313 q 1032 307 1033 310 q 1030 304 1030 306 l 973 269 l 1030 265 l 1029 252 l 946 258 z "},"\u0000":{"ha":0,"x_min":0,"x_max":0,"o":""},"\r":{"ha":267,"x_min":0,"x_max":0,"o":""}," ":{"ha":267,"x_min":0,"x_max":0,"o":""},"D":{"ha":1240,"x_min":18,"x_max":1223,"o":"m 702 -10 q 601 -8 652 -10 q 500 -4 549 -7 q 406 2 451 -2 q 322 11 360 6 l 406 856 q 310 821 355 841 q 230 778 265 800 q 277 728 260 760 q 294 666 294 697 q 283 613 294 638 q 253 569 272 588 q 208 539 234 549 q 155 528 182 528 q 97 541 122 528 q 54 576 72 554 q 27 626 36 598 q 18 684 18 654 q 51 798 18 745 q 139 894 83 851 q 269 970 194 937 q 426 1026 343 1003 q 596 1061 509 1049 q 766 1073 683 1073 q 930 1052 859 1073 q 1051 996 1000 1031 q 1135 915 1102 961 q 1188 819 1168 869 q 1215 719 1207 769 q 1223 625 1223 668 q 1215 494 1223 565 q 1185 353 1207 424 q 1126 217 1163 283 q 1031 102 1089 152 q 892 21 973 51 q 702 -10 812 -10 m 920 638 q 903 742 920 696 q 855 819 885 787 q 783 866 825 850 q 694 883 742 883 l 622 206 q 663 196 642 199 q 706 194 684 194 q 784 219 751 194 q 841 284 818 244 q 880 374 865 324 q 905 473 896 424 q 917 566 913 522 q 920 638 920 609 z "},"E":{"ha":782,"x_min":-10,"x_max":900,"o":"m 506 786 q 519 847 506 819 q 554 895 532 875 q 475 917 512 920 q 411 893 438 914 q 367 839 383 872 q 351 770 351 806 q 355 722 351 746 q 375 679 360 698 q 418 648 391 660 q 489 636 444 636 l 474 504 q 373 487 410 504 q 318 443 336 469 q 295 389 299 418 q 290 339 290 360 q 298 289 290 314 q 323 242 306 263 q 365 208 340 221 q 425 194 391 194 q 533 204 482 194 q 629 232 584 214 q 714 273 674 250 q 786 325 753 297 l 900 217 q 800 130 849 173 q 692 54 752 88 q 555 -1 633 20 q 366 -22 477 -22 q 204 2 274 -22 q 86 70 134 26 q 15 176 39 114 q -10 317 -10 239 q 0 387 -10 348 q 32 463 10 425 q 91 532 54 500 q 185 582 128 564 q 126 622 148 602 q 91 668 103 643 q 74 723 78 693 q 69 789 69 753 q 93 888 69 837 q 166 982 117 939 q 291 1051 215 1024 q 470 1078 366 1078 q 608 1057 547 1078 q 711 999 668 1036 q 775 907 753 961 q 797 787 797 853 l 797 784 q 784 728 796 754 q 753 683 773 702 q 707 653 734 664 q 651 641 681 641 q 594 653 621 641 q 548 684 568 664 q 517 730 529 704 q 506 786 506 756 z "},"F":{"ha":956,"x_min":29,"x_max":1140,"o":"m 1114 890 q 1056 872 1089 878 q 983 861 1022 865 q 903 857 944 858 q 823 857 862 856 q 751 860 785 859 q 693 865 717 862 l 663 582 l 934 582 l 911 383 l 643 383 l 605 0 l 322 0 l 414 890 q 360 888 385 893 q 313 869 334 882 q 273 839 291 857 q 240 802 254 822 q 288 753 271 784 q 305 690 305 721 q 293 637 305 662 q 263 593 282 612 q 218 563 243 574 q 164 552 193 552 q 107 565 132 552 q 64 600 82 578 q 38 650 47 622 q 29 708 29 678 q 57 865 29 792 q 153 994 86 939 q 329 1080 220 1049 q 599 1112 438 1112 q 665 1110 623 1112 q 757 1107 707 1109 q 861 1105 806 1105 q 967 1108 916 1105 q 1064 1118 1019 1110 q 1140 1138 1109 1125 l 1114 890 l 1114 890 z "},"H":{"ha":1297,"x_min":20,"x_max":1269,"o":"m 665 664 l 949 664 l 989 1068 l 1269 1068 l 1160 0 l 880 0 l 926 454 l 643 454 l 596 0 l 313 0 l 404 872 q 312 856 352 871 q 232 802 271 841 q 279 753 262 784 q 296 690 296 721 q 285 637 296 662 q 254 593 273 612 q 210 563 235 574 q 156 552 184 552 q 99 565 124 552 q 56 600 74 578 q 29 650 38 622 q 20 708 20 678 q 43 813 20 764 q 108 903 67 862 q 206 976 149 944 q 327 1030 262 1008 q 464 1065 392 1053 q 606 1076 535 1076 q 656 1075 631 1076 q 707 1070 681 1073 l 665 664 z "},"I":{"ha":753,"x_min":48,"x_max":734,"o":"m 623 0 l 341 0 l 431 872 q 339 856 380 871 q 259 802 298 841 q 306 753 289 784 q 324 690 324 721 q 313 637 324 662 q 282 593 301 612 q 237 563 262 574 q 183 552 211 552 q 126 565 151 552 q 83 600 101 578 q 57 650 66 622 q 48 708 48 678 q 71 813 48 764 q 136 903 95 862 q 233 976 177 944 q 354 1030 289 1008 q 490 1065 419 1053 q 634 1076 562 1076 q 684 1075 659 1076 q 734 1070 708 1073 l 623 0 z "},"J":{"ha":771,"x_min":53,"x_max":740,"o":"m 437 870 q 344 855 385 870 q 264 801 303 840 q 312 752 294 783 q 329 689 329 720 q 318 636 329 661 q 287 592 306 611 q 242 562 267 573 q 188 551 216 551 q 132 564 157 551 q 89 599 107 577 q 62 649 71 621 q 53 707 53 677 q 82 824 53 770 q 161 921 111 878 q 279 997 212 964 q 423 1048 346 1029 q 580 1073 499 1068 q 740 1069 661 1078 l 628 -14 q 591 -183 618 -116 q 524 -287 564 -249 q 434 -341 484 -326 q 327 -356 385 -356 q 261 -350 291 -356 q 207 -334 232 -344 q 162 -313 183 -325 q 123 -289 141 -301 l 167 -138 q 181 -142 170 -140 q 203 -148 191 -145 q 226 -154 214 -152 q 244 -156 237 -156 q 311 -121 283 -156 q 347 0 339 -85 l 437 870 l 437 870 z "},"K":{"ha":1211,"x_min":16,"x_max":1291,"o":"m 399 871 q 307 856 348 871 q 227 802 266 841 q 274 753 257 784 q 292 690 292 721 q 280 637 292 662 q 250 593 269 612 q 204 563 230 574 q 151 552 179 552 q 94 566 119 552 q 51 601 69 579 q 25 651 34 622 q 16 708 16 679 q 39 813 16 764 q 103 903 63 862 q 200 976 144 944 q 321 1030 256 1008 q 457 1064 385 1052 q 599 1076 528 1076 q 651 1074 625 1076 q 701 1069 676 1073 l 660 653 q 702 724 677 685 q 755 803 727 762 q 811 884 783 844 q 862 960 839 924 q 903 1024 886 996 q 926 1068 920 1052 l 1206 1068 q 1052 830 1129 950 q 898 592 975 711 q 954 580 927 592 q 1002 549 981 569 q 1035 501 1023 529 q 1048 442 1048 473 q 1043 366 1048 405 q 1037 293 1037 327 q 1040 255 1037 273 q 1052 224 1043 237 q 1076 204 1061 211 q 1114 196 1090 196 q 1141 201 1128 196 q 1165 217 1153 207 q 1190 242 1177 227 q 1220 276 1203 257 q 1255 234 1237 255 q 1291 193 1273 214 q 1241 106 1273 145 q 1168 39 1208 67 q 1083 -4 1128 11 q 997 -19 1038 -19 q 819 39 880 -19 q 759 210 759 96 q 761 266 759 239 q 763 321 763 293 q 758 378 763 355 q 739 416 753 402 q 701 437 725 431 q 639 443 676 443 l 593 0 l 310 0 l 399 871 l 399 871 z "},"L":{"ha":763,"x_min":45,"x_max":1424,"o":"m 84 595 q 53 648 62 619 q 45 707 45 677 q 69 812 45 763 q 134 902 92 861 q 231 975 175 943 q 352 1030 287 1007 q 489 1064 418 1052 q 632 1076 560 1076 q 682 1074 657 1076 q 732 1069 707 1072 l 624 7 q 697 -10 654 3 q 791 -39 740 -23 q 897 -75 842 -56 q 1003 -109 951 -94 q 1102 -135 1056 -125 q 1182 -145 1148 -145 q 1231 -145 1198 -145 q 1302 -143 1265 -144 q 1374 -139 1339 -141 q 1424 -133 1408 -136 q 1414 -196 1422 -162 q 1393 -263 1407 -230 q 1356 -328 1378 -297 q 1303 -383 1334 -359 q 1230 -421 1272 -406 q 1135 -435 1188 -435 q 1019 -411 1078 -431 q 896 -364 959 -391 q 766 -304 833 -336 q 628 -245 700 -272 q 480 -200 557 -218 q 321 -182 404 -182 l 430 871 q 337 855 378 870 q 257 801 296 840 q 305 752 287 783 q 322 689 322 720 q 311 636 322 661 q 280 592 299 611 q 235 562 260 573 q 181 551 209 551 q 128 562 154 551 q 84 595 103 573 z "},"M":{"ha":1529,"x_min":52,"x_max":1603,"o":"m 1603 190 q 1558 111 1589 148 q 1487 47 1527 75 q 1403 4 1448 20 q 1316 -11 1359 -11 q 1221 6 1261 -11 q 1155 53 1181 23 q 1117 127 1129 83 q 1104 222 1104 170 q 1108 267 1104 247 l 1128 563 q 1116 531 1122 548 q 1099 488 1109 514 q 1074 425 1089 463 q 1036 330 1059 387 q 982 192 1014 273 q 907 0 951 111 l 682 0 q 667 100 675 48 q 650 217 659 153 q 630 360 641 280 q 607 542 620 439 l 496 0 l 242 0 l 444 871 q 348 855 394 869 q 263 801 302 840 q 311 752 293 783 q 328 689 328 720 q 317 636 328 661 q 286 592 306 611 q 241 562 266 573 q 188 551 215 551 q 130 564 155 551 q 88 599 105 577 q 61 649 70 622 q 52 707 52 677 q 76 812 52 763 q 140 902 99 861 q 237 976 181 944 q 359 1030 293 1008 q 495 1065 424 1053 q 638 1076 566 1076 q 737 1069 690 1076 l 852 388 l 1145 1069 l 1428 1069 q 1405 659 1416 864 q 1383 247 1394 454 q 1394 207 1384 220 q 1431 194 1405 194 q 1466 201 1449 194 q 1497 219 1483 207 q 1521 243 1511 230 q 1536 270 1531 257 l 1603 190 z "},"N":{"ha":1319,"x_min":20,"x_max":1291,"o":"m 365 0 l 365 14 l 361 -2 l 451 869 q 395 865 425 869 q 335 853 365 861 q 278 832 305 845 q 232 799 251 819 q 279 750 262 781 q 296 688 296 719 q 285 635 296 660 q 254 590 273 609 q 210 560 235 571 q 156 549 184 549 q 99 563 124 549 q 56 598 74 576 q 29 648 38 620 q 20 706 20 675 q 43 810 20 761 q 106 900 66 859 q 201 973 147 941 q 320 1028 256 1005 q 455 1062 385 1050 q 597 1074 526 1074 q 648 1072 622 1074 q 698 1068 673 1070 l 969 498 l 1027 1068 l 1291 1068 l 1186 0 l 960 0 l 689 579 l 631 0 l 365 0 z "},"P":{"ha":1083,"x_min":-18,"x_max":1072,"o":"m 275 0 l 365 874 q 264 841 309 859 q 194 802 219 822 q 241 753 224 784 q 258 690 258 721 q 247 637 258 662 q 216 593 235 612 q 171 563 197 574 q 118 552 146 552 q 61 565 86 552 q 18 600 36 578 q -9 650 0 622 q -18 708 -18 678 q 32 860 -18 792 q 173 976 82 928 q 391 1049 264 1023 q 672 1076 518 1076 q 857 1054 780 1076 q 981 992 933 1032 q 1050 897 1029 952 q 1072 773 1072 841 q 1065 703 1072 744 q 1042 617 1058 661 q 998 528 1026 572 q 929 449 970 484 q 832 393 888 414 q 701 373 775 372 l 598 375 l 558 0 l 275 0 m 803 769 q 761 862 803 827 q 650 897 719 897 l 615 553 q 708 578 672 556 q 766 631 745 600 q 795 699 786 662 q 803 769 803 735 z "},"Q":{"ha":1008,"x_min":49,"x_max":1550,"o":"m 725 1047 q 848 981 801 1023 q 921 884 895 938 q 956 765 947 829 q 964 633 964 701 q 964 600 964 615 q 961 570 963 584 q 952 493 958 540 q 934 390 946 445 q 900 278 921 335 q 844 171 878 220 q 910 112 873 148 q 987 39 947 77 q 1066 -37 1026 1 q 1144 -104 1107 -75 q 1212 -150 1181 -133 q 1265 -164 1243 -168 q 1282 -117 1269 -139 q 1313 -79 1294 -95 q 1355 -53 1332 -62 q 1406 -44 1379 -44 q 1462 -56 1436 -44 q 1508 -86 1489 -67 q 1539 -132 1528 -106 q 1550 -188 1550 -159 q 1539 -247 1550 -218 q 1506 -298 1529 -275 q 1449 -335 1484 -321 q 1367 -349 1414 -349 q 1194 -319 1273 -349 q 1039 -237 1115 -288 q 886 -117 964 -186 q 718 28 809 -49 l 696 46 q 572 1 638 16 q 439 -13 507 -13 q 296 5 357 -13 q 192 53 235 23 q 121 125 148 83 q 77 216 93 168 q 55 318 61 265 q 49 424 49 371 q 50 493 49 454 q 58 578 52 533 q 75 671 64 623 q 104 767 86 720 q 149 858 122 814 q 214 938 176 902 q 377 1038 283 1005 q 573 1070 471 1070 q 622 1068 598 1070 q 665 1063 645 1066 q 701 1055 685 1059 q 725 1047 716 1050 m 674 654 q 669 734 674 695 q 652 803 665 773 q 616 850 639 832 q 556 868 593 868 q 491 849 520 868 q 439 799 462 831 q 398 726 416 767 q 369 640 381 685 q 350 550 358 595 q 339 465 343 504 q 622 355 470 460 q 645 434 635 392 q 661 514 655 475 q 671 590 668 554 q 674 654 674 626 m 533 218 q 475 258 508 241 q 414 284 443 274 q 366 296 385 293 q 349 293 347 299 q 385 219 360 249 q 455 189 411 189 q 533 218 497 189 z "},"R":{"ha":1199,"x_min":25,"x_max":1284,"o":"m 25 708 q 54 826 25 773 q 134 921 82 879 q 256 992 185 962 q 410 1041 326 1022 q 586 1070 493 1061 q 777 1079 680 1079 q 924 1055 862 1079 q 1028 994 987 1031 q 1090 912 1069 957 q 1113 822 1111 866 q 1102 727 1115 773 q 1066 645 1089 682 q 1013 579 1043 608 q 946 535 982 551 q 1007 481 986 517 q 1027 398 1027 444 q 1023 335 1027 370 q 1023 270 1019 300 q 1045 217 1027 239 q 1108 196 1063 196 q 1135 201 1122 196 q 1159 217 1147 207 q 1184 242 1171 227 q 1213 276 1197 257 q 1248 234 1230 255 q 1284 193 1266 214 q 1235 106 1267 145 q 1162 39 1202 67 q 1077 -4 1122 11 q 992 -19 1033 -19 l 990 -19 q 848 -4 902 -26 q 767 62 794 17 q 736 170 740 106 q 740 311 731 234 q 725 405 746 369 q 648 443 705 442 l 646 439 l 601 0 l 319 0 l 406 872 q 316 855 357 870 q 237 802 275 840 q 285 753 267 784 q 302 690 302 721 q 291 637 302 662 q 260 593 280 612 q 215 563 240 574 q 161 552 189 552 q 104 565 129 552 q 61 600 79 578 q 34 650 43 622 q 25 708 25 678 m 740 891 q 716 889 731 891 q 691 886 701 888 l 665 627 l 692 627 q 764 642 734 627 q 814 681 794 658 q 842 730 833 704 q 851 780 852 757 q 842 817 850 798 q 821 853 835 837 q 787 880 807 870 q 740 891 766 891 z "},"S":{"ha":878,"x_min":50,"x_max":829,"o":"m 77 358 q 141 295 103 326 q 220 237 178 263 q 308 194 263 211 q 394 178 352 178 q 483 208 449 178 q 516 293 516 238 q 499 347 516 323 q 452 391 481 371 q 386 431 423 411 q 310 473 349 451 q 234 522 271 496 q 168 584 197 549 q 121 665 139 620 q 103 771 103 711 q 132 889 103 832 q 217 989 161 945 q 352 1058 272 1032 q 533 1083 431 1083 q 586 1081 554 1083 q 655 1073 619 1079 q 729 1058 692 1068 q 799 1032 766 1048 l 770 760 q 721 796 753 774 q 648 839 688 819 q 563 874 608 859 q 477 889 517 889 q 419 874 440 889 q 398 821 398 859 q 416 772 398 793 q 465 731 435 750 q 534 693 496 712 q 613 652 573 674 q 692 602 654 630 q 761 537 731 575 q 810 449 792 499 q 829 334 829 399 q 794 174 829 241 q 698 62 759 106 q 556 -3 638 18 q 380 -24 474 -24 q 289 -17 338 -24 q 194 2 240 -10 q 110 33 148 15 q 50 74 71 51 l 77 358 z "},"T":{"ha":984,"x_min":-23,"x_max":1145,"o":"m 1115 891 q 1026 867 1079 874 q 917 858 973 859 q 808 859 861 856 q 719 865 755 861 l 631 0 l 348 0 l 438 862 q 372 864 410 865 q 299 855 335 863 q 232 835 262 848 q 188 802 202 822 q 236 753 219 784 q 253 690 253 721 q 241 637 253 662 q 211 593 230 612 q 166 563 191 574 q 112 552 141 552 q 55 565 80 552 q 12 600 30 578 q -14 650 -5 622 q -23 708 -23 678 q 10 864 -23 792 q 114 990 43 937 q 299 1073 186 1043 q 573 1103 412 1103 q 655 1102 608 1103 q 757 1101 703 1102 q 866 1102 810 1101 q 974 1107 922 1102 q 1070 1119 1026 1111 q 1145 1140 1115 1127 l 1115 891 l 1115 891 z "},"":{"ha":900,"x_min":108,"x_max":847,"o":"m 384 0 l 108 0 l 211 1002 l 490 1011 q 485 977 488 1002 q 478 924 482 952 q 472 872 475 897 q 467 838 469 846 q 532 876 494 858 q 622 894 569 894 q 724 873 681 894 q 794 813 766 852 q 834 720 821 774 q 847 602 847 667 q 845 518 847 566 q 833 419 843 470 q 803 318 823 368 q 749 228 784 268 q 661 164 714 188 q 531 140 608 140 q 447 151 476 140 q 404 181 418 163 l 384 0 m 457 333 q 505 352 485 333 q 537 397 524 370 q 557 457 549 424 q 567 516 564 489 q 571 563 570 544 q 572 582 572 582 q 555 673 572 647 q 515 700 538 700 q 484 691 500 700 q 456 664 469 681 q 437 507 445 585 q 419 351 429 430 q 433 339 424 344 q 457 333 442 333 z "},"U":{"ha":1287,"x_min":38,"x_max":1291,"o":"m 681 651 q 668 513 673 562 q 661 443 663 465 q 658 416 659 420 q 658 411 658 411 q 655 371 656 391 q 653 332 653 352 q 658 280 653 304 q 675 239 662 257 q 710 211 688 221 q 768 201 733 201 q 851 221 819 201 q 905 286 884 241 q 938 404 925 332 q 960 582 950 477 l 1008 1069 l 1291 1069 l 1242 552 q 1197 288 1227 397 q 1109 112 1166 180 q 964 13 1051 44 q 747 -17 876 -17 q 578 7 649 -17 q 461 79 507 32 q 392 195 415 127 q 370 351 370 263 q 375 444 370 398 q 385 535 380 490 l 420 869 q 329 853 370 867 q 250 799 288 839 q 297 750 280 780 q 314 688 314 719 q 303 635 314 660 q 273 590 292 609 q 228 560 253 571 q 174 549 202 549 q 117 563 142 549 q 74 598 92 576 q 47 648 56 620 q 38 706 38 675 q 62 810 38 761 q 126 900 85 859 q 224 973 168 941 q 345 1028 280 1005 q 482 1062 411 1050 q 624 1074 553 1074 q 674 1072 649 1074 q 725 1068 700 1070 l 681 651 l 681 651 z "},"V":{"ha":1223,"x_min":22,"x_max":1403,"o":"m 617 196 q 722 243 670 207 q 819 331 773 279 q 905 446 865 383 q 974 573 944 509 q 940 614 956 591 q 913 663 924 637 q 894 717 901 689 q 887 773 887 745 q 893 814 887 786 q 915 872 898 843 q 964 923 932 901 q 1048 945 996 945 q 1112 934 1082 945 q 1164 901 1142 922 q 1198 852 1186 880 q 1211 792 1211 824 q 1201 724 1211 761 q 1181 649 1192 686 q 1229 629 1201 636 q 1287 619 1257 622 q 1347 615 1317 616 q 1403 611 1377 614 l 1385 431 q 1244 446 1313 433 q 1115 484 1175 459 q 1006 289 1070 383 q 859 125 941 196 q 679 13 777 55 q 469 -30 581 -30 q 393 -21 431 -30 q 315 0 355 -13 l 405 872 q 313 856 354 871 q 233 802 272 841 q 280 753 263 784 q 298 690 298 721 q 286 637 298 662 q 256 593 275 612 q 211 563 236 574 q 157 552 185 552 q 100 565 125 552 q 57 600 75 578 q 31 650 40 622 q 22 708 22 678 q 45 813 22 764 q 110 903 69 862 q 207 976 151 944 q 328 1030 263 1008 q 464 1065 393 1053 q 608 1076 536 1076 q 658 1075 633 1076 q 707 1070 682 1073 l 617 196 z "},"W":{"ha":1852,"x_min":22,"x_max":2010,"o":"m 617 196 q 726 245 673 207 q 826 339 779 284 q 914 461 873 394 q 984 594 954 527 l 1029 1021 l 1306 982 l 1224 196 q 1329 243 1277 207 q 1426 331 1380 279 q 1512 446 1472 383 q 1581 573 1551 509 q 1497 768 1497 655 q 1498 796 1497 779 q 1506 832 1500 813 q 1523 872 1512 852 q 1551 908 1533 892 q 1594 935 1569 924 q 1654 945 1619 945 q 1719 934 1688 945 q 1771 901 1749 922 q 1805 852 1793 880 q 1818 792 1818 824 q 1808 724 1818 761 q 1787 649 1799 686 q 1836 629 1808 636 q 1894 619 1864 622 q 1954 615 1924 616 q 2010 611 1984 614 l 1991 431 q 1851 446 1920 433 q 1722 484 1782 459 q 1612 289 1677 383 q 1466 125 1548 196 q 1286 13 1384 55 q 1076 -30 1188 -30 q 1000 -21 1037 -30 q 922 0 962 -13 l 944 210 q 844 113 898 157 q 731 37 791 69 q 606 -12 672 5 q 469 -30 540 -30 q 393 -21 431 -30 q 315 0 355 -13 l 405 872 q 313 856 354 871 q 233 802 272 841 q 280 753 263 784 q 298 690 298 721 q 286 637 298 662 q 256 593 275 612 q 211 563 236 574 q 157 552 185 552 q 100 565 125 552 q 57 600 75 578 q 31 650 40 622 q 22 708 22 678 q 45 813 22 764 q 110 903 69 862 q 207 976 151 944 q 328 1030 263 1008 q 464 1065 393 1053 q 608 1076 536 1076 q 658 1075 633 1076 q 707 1070 682 1073 l 617 196 z "},"X":{"ha":1135,"x_min":37,"x_max":1276,"o":"m 726 781 l 873 1068 l 1102 1068 l 829 565 l 924 368 q 948 320 934 348 q 981 266 963 292 q 1021 223 999 241 q 1069 205 1043 205 q 1106 214 1090 205 q 1134 237 1122 223 q 1155 268 1146 252 q 1175 299 1165 284 l 1276 213 q 1230 124 1262 166 q 1151 51 1197 82 q 1050 2 1106 20 q 934 -16 995 -16 q 847 -3 888 -16 q 769 36 806 9 q 702 107 733 63 q 647 213 671 150 l 603 306 l 440 0 l 219 0 l 503 529 l 357 858 q 249 796 298 845 q 296 746 280 777 q 313 683 313 715 q 302 630 313 655 q 271 586 291 605 q 227 557 252 568 q 173 546 201 546 q 115 559 141 546 q 73 594 90 572 q 46 644 56 615 q 37 701 37 672 q 60 806 37 757 q 123 897 83 856 q 216 970 162 938 q 330 1024 269 1002 q 457 1059 391 1047 q 587 1070 523 1070 l 726 781 z "},"Y":{"ha":1082,"x_min":26,"x_max":1145,"o":"m 736 651 l 772 748 q 845 907 808 828 q 918 1065 882 986 l 1145 1065 l 819 420 l 770 0 l 486 0 l 534 430 l 344 856 q 289 836 316 856 q 238 795 263 816 q 286 745 268 776 q 303 682 303 714 q 292 629 303 655 q 261 586 280 604 q 216 556 241 567 q 162 545 190 545 q 105 558 130 545 q 62 593 80 571 q 35 643 44 615 q 26 701 26 671 q 51 806 26 756 q 117 896 76 855 q 214 969 159 937 q 331 1023 270 1001 q 455 1058 391 1046 q 576 1069 518 1069 l 736 651 z "},"Z":{"ha":846,"x_min":44,"x_max":1265,"o":"m 859 824 q 794 720 831 776 q 714 604 757 664 q 625 481 672 543 q 532 358 579 418 q 440 241 485 298 q 352 137 394 185 q 518 104 440 128 q 669 50 596 80 q 813 -10 742 20 q 955 -62 883 -41 q 1104 -92 1028 -84 q 1265 -84 1180 -100 q 1252 -147 1261 -114 q 1227 -213 1243 -181 q 1186 -275 1210 -246 q 1129 -326 1162 -305 q 1054 -360 1096 -348 q 958 -368 1011 -372 q 835 -334 902 -361 q 694 -269 768 -306 q 540 -189 620 -232 q 378 -109 460 -146 q 211 -46 295 -72 q 44 -15 127 -20 l 71 215 l 72 232 q 202 368 138 293 q 324 525 266 444 q 435 685 383 605 q 530 833 487 765 q 467 836 497 833 q 406 842 437 839 q 342 847 375 845 q 272 850 309 850 q 213 846 239 850 q 163 836 187 843 q 117 820 140 830 q 68 799 94 811 l 68 975 q 101 1022 82 1002 q 143 1056 119 1043 q 199 1077 167 1070 q 273 1084 231 1084 q 394 1080 339 1084 q 500 1071 448 1076 q 605 1062 551 1066 q 723 1058 658 1058 q 759 1060 737 1058 q 805 1064 781 1062 q 851 1068 829 1066 q 886 1072 873 1070 l 859 824 z "},"a":{"ha":821,"x_min":1,"x_max":889,"o":"m 822 268 q 855 228 839 248 q 889 188 872 208 q 847 115 876 150 q 779 51 818 79 q 694 6 740 23 q 603 -11 648 -11 q 426 103 458 -11 q 412 81 419 91 q 396 61 405 70 q 375 41 389 54 q 340 16 361 29 q 291 -4 319 4 q 226 -13 263 -13 q 124 8 167 -13 q 54 65 82 29 q 14 149 27 101 q 1 254 1 198 q 2 296 1 268 q 7 361 3 325 q 19 439 11 398 q 41 523 27 481 q 76 602 55 564 q 125 670 96 641 q 194 717 155 700 q 283 734 233 734 q 332 729 309 734 q 376 715 356 723 q 412 697 396 707 q 441 679 429 688 l 449 747 l 717 734 l 671 280 q 670 248 669 265 q 674 218 670 232 q 689 196 679 205 q 718 188 700 188 q 752 195 735 188 q 783 215 769 203 q 808 241 798 227 q 822 268 818 255 m 424 530 q 411 548 420 537 q 384 558 403 558 q 339 539 360 558 q 302 486 318 520 q 276 405 286 452 q 266 299 266 357 q 272 241 266 262 q 285 209 277 220 q 301 197 293 199 q 317 194 310 194 q 362 207 338 194 q 397 252 385 220 l 424 530 z "},"":{"ha":1081,"x_min":1,"x_max":1185,"o":"m 1185 164 q 1106 98 1148 131 q 1012 37 1063 64 q 901 -6 961 10 q 769 -23 840 -23 q 549 10 628 -23 q 437 120 469 43 l 418 89 q 413 80 415 83 q 408 74 411 76 q 403 68 406 71 q 396 61 400 65 q 375 41 389 54 q 340 16 361 29 q 291 -4 319 4 q 226 -13 263 -13 q 124 8 167 -13 q 54 65 82 29 q 14 149 27 101 q 1 254 1 198 q 3 317 1 276 q 13 409 4 359 q 37 513 21 459 q 83 613 54 567 q 158 692 113 659 q 266 734 202 725 q 275 734 271 734 q 283 734 279 734 q 332 729 309 734 q 376 715 356 723 q 412 697 396 707 q 441 679 429 688 l 449 747 l 717 734 q 786 740 749 740 q 921 724 866 740 q 1009 679 976 709 q 1057 603 1043 648 q 1071 499 1071 558 q 1052 443 1071 469 q 1002 395 1033 417 q 930 357 970 374 q 846 326 889 339 q 762 305 804 313 q 687 293 720 297 q 685 282 686 287 q 685 272 685 277 q 694 220 685 241 q 720 184 704 198 q 758 164 736 170 q 804 157 780 157 q 897 166 855 157 q 973 189 938 175 q 1035 219 1007 202 q 1088 250 1063 235 l 1185 164 m 424 530 q 411 548 420 537 q 384 558 403 558 q 339 539 360 558 q 302 486 318 520 q 276 405 286 452 q 266 299 266 357 q 272 241 266 262 q 285 209 277 220 q 301 197 293 199 q 317 194 310 194 q 362 207 338 194 q 397 252 385 220 l 424 530 m 692 402 q 741 414 718 404 q 784 440 765 424 q 818 476 804 456 q 838 519 832 497 q 826 565 833 546 q 798 583 819 583 q 761 567 778 583 q 730 525 744 551 q 707 467 717 499 q 692 402 697 434 z "},"~":{"ha":785,"x_min":50,"x_max":736,"o":"m 512 572 q 470 576 497 572 q 411 585 443 579 q 347 596 380 590 q 285 608 313 602 q 234 617 256 614 q 205 621 213 621 q 145 609 169 621 q 99 569 122 596 l 50 581 q 130 731 72 683 q 282 779 188 779 q 371 772 326 779 q 457 757 416 765 q 533 741 497 748 q 595 734 569 734 q 690 780 655 734 q 713 773 701 776 q 736 768 724 771 q 710 688 729 724 q 662 626 691 652 q 595 586 633 601 q 512 572 556 572 z "},"*":{"ha":681,"x_min":33,"x_max":648,"o":"m 43 805 q 83 878 63 842 q 122 951 102 914 q 198 904 161 926 q 271 851 235 881 q 265 914 267 882 q 263 980 263 947 l 263 1033 l 431 1033 l 431 984 q 428 914 431 950 q 418 845 424 879 q 469 882 443 863 q 522 915 495 900 l 562 938 q 605 867 583 902 q 648 796 626 832 l 609 773 q 547 743 579 756 q 483 717 515 729 q 541 691 512 705 q 598 661 569 676 l 638 639 l 559 492 l 520 515 q 462 553 490 532 q 409 596 434 574 q 416 528 413 563 q 418 459 418 493 l 418 411 l 250 411 l 250 455 q 254 528 250 491 q 266 601 259 564 q 215 564 241 582 q 163 531 189 547 l 120 505 l 33 648 q 112 691 70 671 q 195 726 153 710 q 140 751 168 738 q 87 780 113 765 l 43 805 l 43 805 z "},"@":{"ha":1056,"x_min":49,"x_max":1010,"o":"m 831 38 q 870 -2 853 20 q 900 -45 886 -23 q 846 -96 879 -73 q 764 -136 813 -119 q 647 -163 714 -154 q 491 -173 580 -173 q 395 -168 442 -173 q 306 -150 348 -162 q 225 -118 263 -138 q 156 -69 188 -98 q 105 -5 126 -41 q 73 72 85 30 q 55 159 61 114 q 49 252 49 205 q 50 292 49 273 q 53 328 51 311 q 58 402 54 354 q 75 507 62 451 q 112 623 88 564 q 178 730 136 681 q 252 793 207 764 q 352 845 297 823 q 467 878 406 866 q 591 891 529 891 q 679 885 633 891 q 769 869 725 880 q 850 839 813 858 q 914 794 888 821 q 957 733 939 768 q 987 657 975 698 q 1004 572 998 616 q 1010 484 1010 528 q 1007 424 1010 450 q 997 370 1003 398 q 962 246 990 298 q 896 160 935 194 q 809 110 857 126 q 711 94 761 94 q 632 112 663 94 q 586 155 602 129 q 576 140 582 148 q 564 126 571 133 q 555 117 562 124 q 535 102 548 110 q 504 89 523 95 q 460 82 485 82 q 377 101 409 82 q 328 148 345 120 q 305 211 311 177 q 299 276 299 245 q 299 322 299 289 q 306 396 300 355 q 324 482 312 438 q 360 563 337 526 q 419 623 383 599 q 508 647 455 647 q 561 638 539 647 q 597 617 583 628 l 600 646 q 694 644 647 645 q 788 641 741 643 l 757 318 q 755 310 756 313 q 754 302 754 306 q 756 284 754 294 q 761 265 757 273 q 771 250 765 256 q 787 244 777 244 q 846 266 826 244 q 871 336 865 287 q 888 405 881 368 q 894 489 894 443 q 891 557 894 523 q 878 623 888 592 q 848 682 867 655 q 797 730 829 709 q 719 761 766 750 q 608 773 673 773 q 508 763 557 773 q 415 734 459 753 q 337 691 372 716 q 280 637 302 667 q 241 573 257 608 q 217 504 226 539 q 203 435 207 469 q 195 375 198 402 q 191 326 193 351 q 189 278 189 302 q 213 125 189 186 q 280 26 236 63 q 383 -26 323 -10 q 518 -41 444 -41 q 631 -36 582 -41 q 717 -20 680 -30 q 781 4 753 -10 q 831 38 808 19 m 560 256 q 560 278 560 267 q 562 300 561 289 l 592 490 q 569 497 582 497 q 532 474 546 497 q 510 419 517 451 q 499 357 502 388 q 497 313 497 326 q 504 260 497 274 q 530 247 512 247 q 544 249 536 247 q 560 256 552 252 z "},"b":{"ha":753,"x_min":-14,"x_max":887,"o":"m 279 -12 q 195 -2 235 -12 q 118 26 155 9 q 48 66 82 44 q -14 112 15 89 l 82 1045 l 353 1069 l 314 696 q 378 727 347 717 q 446 738 410 738 q 540 719 502 738 q 604 669 579 701 q 641 596 628 638 q 659 508 655 555 l 695 508 q 739 511 713 508 q 793 519 765 514 q 846 531 820 524 q 887 544 872 537 l 861 382 q 759 346 812 359 q 654 336 706 334 l 652 317 q 639 247 648 284 q 614 173 630 209 q 571 103 597 136 q 504 44 544 69 q 408 3 464 18 q 279 -12 353 -12 m 315 192 q 359 215 340 192 q 389 272 377 239 q 408 342 401 306 q 418 407 415 379 q 348 461 378 432 q 296 520 317 490 l 272 277 q 269 252 270 265 q 267 225 267 239 q 315 192 273 192 z "},"|":{"ha":265,"x_min":65,"x_max":202,"o":"m 202 -305 l 65 -305 l 65 1128 q 134 1124 100 1126 q 202 1121 168 1122 l 202 -305 z "},"{":{"ha":543,"x_min":33,"x_max":527,"o":"m 69 455 l 102 455 q 161 486 143 455 q 179 571 179 517 q 172 671 179 622 q 158 765 166 720 q 143 851 149 810 q 136 926 136 891 q 153 1025 136 978 q 206 1107 169 1071 q 302 1163 243 1142 q 445 1184 361 1184 q 493 1182 470 1184 q 527 1181 516 1181 l 521 1076 q 474 1075 496 1076 q 431 1069 451 1074 q 377 1011 393 1050 q 361 929 361 972 q 366 849 361 892 q 378 758 372 806 q 389 659 384 710 q 394 557 394 609 l 394 551 q 374 460 393 494 q 325 408 354 425 q 360 374 345 397 q 375 317 375 352 q 356 184 375 253 q 315 48 338 114 q 274 -75 293 -18 q 255 -168 255 -131 q 261 -211 255 -193 q 281 -242 266 -230 q 321 -261 295 -254 q 387 -267 346 -267 l 380 -369 q 369 -371 379 -369 q 344 -374 359 -372 q 310 -378 329 -376 q 272 -379 291 -379 q 95 -331 156 -379 q 33 -181 33 -283 q 52 -82 33 -137 q 95 36 71 -26 q 137 165 118 98 q 156 300 156 233 q 137 345 156 330 q 92 360 117 360 l 61 360 l 69 455 z "},"}":{"ha":543,"x_min":16,"x_max":510,"o":"m 475 357 l 442 357 q 382 326 400 357 q 365 240 365 294 q 371 141 365 189 q 386 47 378 92 q 401 -39 394 2 q 407 -115 407 -80 q 391 -213 407 -167 q 337 -295 374 -260 q 241 -352 300 -331 q 98 -372 182 -372 q 50 -371 73 -372 q 16 -369 28 -369 l 23 -264 q 70 -263 48 -264 q 112 -258 92 -262 q 166 -200 150 -239 q 182 -117 182 -161 q 177 -37 182 -81 q 166 54 172 6 q 155 152 160 102 q 149 254 149 203 l 149 260 q 170 352 150 318 q 219 404 189 386 q 184 438 199 415 q 168 495 168 460 q 187 628 168 558 q 228 764 206 698 q 270 886 251 830 q 288 980 288 943 q 283 1023 288 1004 q 263 1054 277 1042 q 222 1072 248 1066 q 156 1079 196 1079 l 163 1181 q 174 1182 164 1181 q 199 1186 184 1184 q 234 1189 214 1188 q 272 1191 253 1191 q 449 1143 387 1191 q 510 993 510 1095 q 491 893 510 949 q 449 776 472 838 q 406 646 425 714 q 387 511 387 579 q 407 467 387 482 q 451 451 426 451 l 483 451 l 475 357 z "},"[":{"ha":573,"x_min":32,"x_max":588,"o":"m 432 -366 l 32 -366 l 201 1201 l 588 1201 l 576 1076 l 397 1076 l 257 -241 l 444 -241 l 432 -366 z "},"]":{"ha":576,"x_min":15,"x_max":570,"o":"m 170 1201 l 570 1201 l 402 -366 l 15 -366 l 27 -241 l 206 -241 l 345 1076 l 158 1076 l 170 1201 z "},"c":{"ha":674,"x_min":0,"x_max":706,"o":"m 0 283 q 2 350 0 307 q 16 444 4 393 q 52 548 28 496 q 120 643 76 601 q 230 713 163 686 q 392 740 296 740 q 520 723 470 740 q 600 676 570 705 q 641 609 629 647 q 653 532 653 572 q 650 491 653 511 q 641 451 647 470 l 468 451 q 465 487 468 468 q 454 522 462 506 q 432 549 446 538 q 397 559 418 559 q 342 536 366 559 q 301 477 318 513 q 276 397 285 441 q 267 311 267 352 q 272 265 267 287 q 285 226 276 243 q 306 199 293 209 q 333 188 318 188 q 368 192 349 188 q 407 209 387 196 q 445 246 426 222 q 479 309 464 270 l 706 309 q 662 174 694 234 q 579 73 630 115 q 461 9 529 31 q 310 -14 392 -14 q 147 13 208 -14 q 53 83 86 40 q 10 178 21 126 q 0 283 0 231 z "},"":{"ha":556,"x_min":40,"x_max":533,"o":"m 159 837 q 99 961 128 899 q 40 1084 69 1022 q 109 1082 75 1083 q 179 1080 143 1082 l 248 988 l 385 1080 l 533 1084 l 309 837 l 159 837 z "},"":{"ha":393,"x_min":35,"x_max":365,"o":"m 35 -301 q 49 -259 41 -279 q 69 -225 57 -239 q 100 -232 87 -227 q 124 -240 113 -236 q 144 -247 135 -244 q 164 -249 154 -249 q 196 -237 182 -249 q 210 -202 210 -226 q 194 -169 210 -184 q 150 -154 179 -154 q 113 -157 128 -154 q 84 -162 97 -160 l 129 23 l 211 8 q 198 -34 204 -13 q 187 -76 193 -55 q 206 -74 196 -75 q 225 -74 215 -74 q 282 -80 256 -74 q 326 -99 307 -86 q 355 -132 345 -112 q 365 -178 365 -151 q 349 -246 365 -217 q 305 -294 332 -275 q 246 -322 279 -313 q 181 -332 214 -332 q 99 -323 132 -332 q 35 -301 67 -314 z "},":":{"ha":444,"x_min":104,"x_max":438,"o":"m 438 609 q 398 519 438 553 q 291 485 359 485 q 184 519 223 485 q 145 609 145 553 q 184 698 145 664 q 291 733 223 733 q 398 698 359 733 q 438 609 438 664 m 405 115 q 365 23 405 58 q 254 -11 325 -11 q 144 23 184 -11 q 104 115 104 58 q 144 207 104 172 q 254 242 184 242 q 365 207 325 242 q 405 115 405 172 z "},",":{"ha":461,"x_min":113,"x_max":405,"o":"m 405 115 q 389 26 405 69 q 345 -54 373 -16 q 278 -123 317 -92 q 193 -174 239 -154 q 184 -164 191 -174 q 170 -145 177 -155 q 156 -124 162 -134 q 148 -109 149 -114 q 207 -54 182 -77 q 232 -11 232 -31 q 190 10 211 -1 q 151 36 168 22 q 124 69 135 50 q 113 112 113 87 q 124 163 113 140 q 154 204 135 187 q 201 231 174 221 q 263 240 229 240 q 368 205 331 240 q 405 115 405 170 z "},"d":{"ha":813,"x_min":1,"x_max":882,"o":"m 815 268 q 849 228 832 248 q 882 188 865 208 q 838 110 867 146 q 770 47 808 74 q 688 6 731 21 q 602 -9 644 -9 q 487 21 530 -9 q 425 103 444 51 q 412 81 418 92 q 396 61 405 70 q 375 41 389 53 q 340 16 361 29 q 291 -4 319 4 q 226 -13 263 -13 q 125 7 168 -13 q 56 62 83 27 q 14 146 28 97 q 1 251 1 194 q 2 286 1 260 q 7 349 3 313 q 18 430 10 386 q 39 517 25 473 q 72 603 52 562 q 121 676 92 644 q 189 727 150 708 q 278 747 227 747 q 351 738 322 747 q 397 718 379 729 q 424 697 415 707 q 441 681 434 686 l 477 1043 l 751 1066 q 730 876 740 977 q 710 672 720 775 q 689 469 700 569 q 669 280 679 369 q 667 254 667 267 q 669 232 667 243 q 677 212 671 220 q 693 197 683 203 q 717 192 702 192 q 750 199 734 192 q 780 217 766 206 q 802 242 793 228 q 815 268 811 255 m 424 530 q 412 548 421 537 q 385 558 404 558 q 340 539 361 558 q 303 486 319 520 q 277 405 286 452 q 267 299 267 357 q 273 241 267 262 q 286 209 278 220 q 302 197 293 199 q 318 194 311 194 q 362 207 339 194 q 398 252 386 220 l 424 530 z "},"":{"ha":631,"x_min":56,"x_max":575,"o":"m 289 944 q 257 865 289 895 q 173 836 225 836 q 88 865 120 836 q 56 944 56 895 q 88 1022 56 992 q 173 1051 120 1051 q 257 1022 225 1051 q 289 944 289 992 m 575 944 q 543 865 575 895 q 458 836 510 836 q 374 865 405 836 q 342 944 342 895 q 374 1022 342 992 q 458 1051 405 1051 q 543 1022 510 1051 q 575 944 575 992 z "},"":{"ha":420,"x_min":-1,"x_max":491,"o":"m 424 268 q 458 228 441 248 q 491 188 475 208 q 450 115 478 151 q 382 52 421 80 q 296 7 343 23 q 201 -10 249 -10 q 109 6 147 -10 q 46 52 71 22 q 10 123 22 82 q -1 215 -1 164 q 1 261 -1 240 q 3 306 3 282 l 49 736 l 322 747 l 270 257 q 272 232 270 244 q 280 211 274 220 q 296 197 286 202 q 320 192 306 192 q 355 199 338 192 q 386 217 372 206 q 410 242 400 228 q 424 268 420 255 z "},"e":{"ha":669,"x_min":2,"x_max":775,"o":"m 775 164 q 697 97 739 131 q 605 36 655 63 q 496 -7 556 10 q 365 -24 437 -24 q 221 -8 287 -24 q 106 44 155 8 q 30 137 57 80 q 2 276 2 194 q 10 389 2 332 q 37 497 18 445 q 85 592 56 548 q 155 670 114 637 q 252 721 197 702 q 376 740 306 740 q 511 724 457 740 q 599 679 566 709 q 647 603 633 648 q 661 499 661 558 q 642 443 661 469 q 592 395 623 417 q 520 357 561 374 q 437 326 479 339 q 352 305 394 313 q 277 293 311 297 q 276 282 276 287 q 275 272 275 277 q 285 220 275 241 q 310 184 294 198 q 348 164 326 170 q 394 157 370 157 q 487 166 445 157 q 563 189 529 175 q 625 219 597 202 q 678 250 654 235 l 775 164 m 282 402 q 332 414 308 404 q 375 440 355 424 q 408 476 394 456 q 428 519 422 497 q 417 565 424 546 q 388 583 410 583 q 351 567 368 583 q 321 525 334 551 q 297 467 307 499 q 282 402 287 434 z "},"=":{"ha":755,"x_min":58,"x_max":701,"o":"m 89 477 q 97 575 93 527 q 105 673 101 623 l 701 673 q 689 575 694 623 q 678 477 683 527 l 89 477 m 58 171 q 66 268 63 220 q 75 365 70 316 l 661 365 l 639 171 l 58 171 z "},"":{"ha":811,"x_min":1,"x_max":882,"o":"m 431 819 q 375 817 403 817 q 319 815 346 817 l 315 907 l 391 911 q 368 961 381 938 q 342 1002 355 984 l 490 1013 q 543 975 517 996 q 585 924 568 955 q 646 928 615 926 q 707 931 677 929 q 707 885 707 907 q 707 838 707 862 l 646 834 q 668 790 657 813 q 688 743 679 767 q 701 694 696 720 q 707 641 707 668 q 706 631 707 636 q 706 622 706 626 q 691 473 701 544 q 674 321 682 401 l 669 280 q 667 254 667 267 q 669 232 667 243 q 677 212 671 220 q 693 197 683 203 q 717 192 702 192 q 750 199 734 192 q 780 217 766 206 q 802 242 793 228 q 815 268 811 255 q 849 228 832 248 q 882 188 865 208 q 838 110 867 146 q 770 47 808 74 q 688 6 731 21 q 602 -9 644 -9 q 487 21 530 -9 q 425 103 444 51 q 412 81 418 92 q 396 61 405 70 q 375 41 389 53 q 340 16 361 29 q 291 -4 319 4 q 226 -13 263 -13 q 125 7 168 -13 q 56 62 83 27 q 14 146 28 97 q 1 251 1 194 q 2 286 1 260 q 7 349 3 313 q 18 430 10 386 q 39 517 25 473 q 72 603 52 562 q 121 676 92 644 q 189 727 150 708 q 278 747 227 747 q 351 738 322 747 q 397 718 379 729 q 424 697 415 707 q 441 681 434 686 q 442 701 442 691 q 442 720 442 710 q 440 767 442 743 q 431 819 438 791 m 424 530 q 412 548 421 537 q 385 558 404 558 q 340 539 361 558 q 303 486 319 520 q 277 405 286 452 q 267 299 267 357 q 273 241 267 262 q 286 209 278 220 q 302 197 293 199 q 318 194 311 194 q 362 207 339 194 q 398 252 386 220 l 424 530 z "},"g":{"ha":759,"x_min":0,"x_max":720,"o":"m 174 -115 q 201 -132 185 -125 q 234 -143 217 -139 q 265 -148 251 -147 q 285 -150 279 -150 q 332 -134 316 -150 q 357 -91 349 -118 q 369 -29 365 -64 q 378 46 372 7 q 359 27 369 37 q 331 8 348 17 q 289 -7 314 -1 q 225 -13 264 -13 q 118 10 161 -13 q 49 73 76 34 q 11 162 23 112 q 0 265 0 212 q 3 337 0 292 q 15 436 5 383 q 44 543 24 489 q 98 640 63 596 q 184 712 133 684 q 311 740 236 740 q 352 734 333 740 q 385 720 370 729 q 413 701 399 712 q 440 680 426 691 l 449 747 l 720 734 l 652 67 q 647 27 649 49 q 640 -21 644 4 q 628 -73 635 -46 q 611 -128 622 -101 q 509 -277 579 -228 q 332 -326 439 -326 q 273 -322 299 -326 q 224 -306 247 -317 q 180 -280 201 -296 q 137 -241 159 -264 l 174 -115 m 424 530 q 412 548 421 537 q 385 558 404 558 q 340 539 361 558 q 303 486 319 520 q 277 405 286 452 q 267 299 267 357 q 273 241 267 262 q 286 209 278 220 q 302 197 293 199 q 318 194 311 194 q 362 207 339 194 q 398 252 386 220 l 424 530 z "},"":{"ha":792,"x_min":-76,"x_max":778,"o":"m 90 951 q 252 1000 165 982 q 433 1018 339 1018 q 572 997 514 1018 q 669 942 631 976 q 726 867 707 909 q 744 783 744 825 q 735 697 744 731 q 711 641 727 664 q 677 599 696 617 q 637 558 658 581 q 747 469 715 528 q 778 333 778 410 q 772 265 778 302 q 752 191 766 228 q 715 118 738 153 q 658 56 692 83 q 577 13 623 29 q 470 -3 530 -3 q 394 3 430 -3 q 329 20 358 10 q 280 43 300 30 q 251 66 260 55 l 198 -299 l -76 -268 l 74 835 l 90 951 m 272 224 q 322 201 299 207 q 372 194 346 194 q 414 204 397 194 q 445 227 432 213 q 465 260 457 242 q 477 295 472 278 q 483 327 481 313 q 484 349 484 341 q 480 392 484 371 q 465 431 477 414 q 435 459 454 448 q 386 470 416 470 q 350 469 371 470 q 310 468 330 469 l 271 223 q 272 224 271 223 m 352 842 l 318 597 l 336 597 q 403 612 376 597 q 447 649 431 627 q 472 696 464 671 q 480 742 480 721 q 476 777 480 760 q 460 809 471 794 q 431 833 449 823 q 385 847 412 844 l 352 842 z "},"`":{"ha":389,"x_min":22,"x_max":355,"o":"m 22 1080 q 139 1078 81 1079 q 258 1076 198 1077 q 306 954 282 1015 q 355 832 331 894 q 264 835 309 834 q 174 837 220 836 l 22 1080 l 22 1080 z "},"h":{"ha":794,"x_min":-25,"x_max":864,"o":"m 379 225 q 384 263 379 237 q 393 320 388 288 q 402 387 398 352 q 406 452 406 422 q 396 513 406 489 q 359 538 386 538 q 336 531 346 538 q 317 514 326 524 q 303 493 309 504 q 293 475 297 483 l 246 0 l -25 0 l 85 1045 l 359 1068 q 348 978 354 1030 q 336 873 342 927 q 323 767 329 819 q 312 678 317 716 q 376 721 339 706 q 459 736 413 736 q 558 720 517 736 q 625 672 599 703 q 662 595 650 641 q 674 493 674 550 q 669 421 674 455 q 660 356 665 386 q 651 301 655 326 q 647 254 647 275 q 649 232 647 243 q 657 212 651 221 q 672 197 663 203 q 696 192 681 192 q 731 199 715 192 q 759 217 747 206 q 781 241 772 227 q 796 268 791 254 l 864 188 q 821 109 849 146 q 756 45 793 72 q 678 3 720 18 q 594 -13 635 -13 q 482 11 524 -13 q 418 72 440 36 q 387 149 395 108 q 379 225 379 191 z "},"i":{"ha":424,"x_min":-1,"x_max":491,"o":"m 424 268 q 458 228 441 248 q 491 188 475 208 q 450 115 478 151 q 382 52 421 80 q 296 7 343 23 q 201 -10 249 -10 q 109 6 147 -10 q 46 52 71 22 q 10 123 22 82 q -1 215 -1 164 q 1 261 -1 240 q 3 306 3 282 l 49 736 l 322 747 l 270 257 q 272 232 270 244 q 280 211 274 220 q 296 197 286 202 q 320 192 306 192 q 355 199 338 192 q 386 217 372 206 q 410 242 400 228 q 424 268 420 255 m 352 944 q 313 856 352 889 q 205 823 273 823 q 98 856 137 823 q 59 944 59 889 q 98 1031 59 997 q 205 1064 137 1064 q 313 1031 273 1064 q 352 944 352 997 z "},"j":{"ha":390,"x_min":-234,"x_max":352,"o":"m 352 944 q 313 858 352 891 q 206 825 273 825 q 99 858 138 825 q 60 944 60 891 q 99 1032 60 999 q 206 1065 138 1065 q 313 1032 273 1065 q 352 944 352 999 m 326 748 l 248 -9 q 213 -170 239 -107 q 149 -269 187 -233 q 63 -320 111 -306 q -39 -334 16 -334 q -102 -329 -74 -334 q -153 -314 -130 -323 q -196 -293 -176 -305 q -234 -271 -215 -282 l -192 -127 q -179 -131 -188 -128 q -158 -137 -169 -134 q -135 -142 -146 -140 q -118 -144 -124 -144 q -57 -113 -81 -144 q -25 -2 -34 -82 l 51 734 l 326 748 z "},"k":{"ha":792,"x_min":-30,"x_max":859,"o":"m 266 196 l 245 0 l -30 0 l 79 1045 l 353 1068 l 293 488 l 495 747 l 740 734 q 637 616 689 676 q 533 499 584 556 q 560 444 551 476 q 575 378 569 412 q 587 311 581 345 q 605 251 593 278 q 637 208 616 225 q 692 192 657 192 q 727 199 711 192 q 755 217 742 206 q 777 241 768 227 q 793 268 786 254 q 826 228 809 248 q 859 188 843 208 q 817 108 845 145 q 755 44 790 71 q 680 2 720 17 q 600 -13 640 -13 q 481 13 528 -13 q 408 80 435 39 q 369 173 380 122 q 356 277 358 225 q 359 303 359 290 l 266 196 z "},"l":{"ha":418,"x_min":-1,"x_max":490,"o":"m 490 188 q 444 109 475 146 q 374 46 413 73 q 289 3 334 18 q 202 -13 245 -13 q 109 4 148 -13 q 46 51 71 21 q 10 125 22 82 q -1 220 -1 168 q 2 266 -1 243 l 79 1046 l 352 1069 q 332 879 343 980 q 312 675 322 778 q 291 471 301 572 q 270 281 280 370 q 267 260 267 268 q 270 234 267 247 q 277 212 272 221 q 293 197 283 203 q 318 192 303 192 q 352 199 335 192 q 383 217 369 206 q 408 242 398 228 q 422 268 418 255 l 490 188 z "},"<":{"ha":673,"x_min":79,"x_max":628,"o":"m 79 345 l 93 495 l 628 716 l 611 556 l 242 416 l 587 299 l 569 135 l 79 345 z "},"m":{"ha":1155,"x_min":-27,"x_max":1221,"o":"m 773 432 q 770 470 773 451 q 763 504 768 489 q 749 529 758 519 q 725 538 740 538 q 693 519 707 538 q 668 473 679 500 l 622 0 l 354 0 l 400 432 q 403 461 402 443 q 400 496 404 479 q 387 526 397 513 q 359 538 378 538 q 319 519 336 538 q 291 472 302 500 l 242 0 l -27 0 l 47 736 l 319 748 l 310 660 q 385 719 343 699 q 477 740 428 740 q 647 635 607 740 q 738 712 684 685 q 850 739 793 739 q 939 724 902 739 q 1000 682 977 709 q 1036 615 1024 655 q 1048 525 1048 576 q 1043 451 1048 490 q 1033 377 1038 413 q 1022 309 1027 341 q 1017 254 1017 278 q 1027 214 1017 232 q 1065 196 1037 196 q 1099 201 1085 196 q 1122 215 1113 206 q 1139 238 1132 225 q 1154 268 1147 251 l 1221 188 q 1180 109 1207 146 q 1118 45 1153 72 q 1043 3 1083 18 q 960 -13 1002 -13 q 853 6 894 -13 q 789 56 813 25 q 759 125 766 86 q 751 201 751 163 q 754 257 751 227 q 762 317 758 286 q 769 377 766 347 q 773 432 773 406 z "},"n":{"ha":773,"x_min":-25,"x_max":845,"o":"m 405 438 q 403 474 405 457 q 396 507 401 492 q 382 530 391 521 q 359 538 372 538 q 320 519 337 538 q 293 472 303 500 l 246 0 l -25 0 l 48 736 l 319 747 l 312 674 q 391 724 349 709 q 475 739 433 739 q 625 681 578 739 q 672 524 672 624 q 667 451 672 489 q 657 377 662 413 q 646 309 651 341 q 641 254 641 278 q 652 214 641 232 q 690 196 662 196 q 723 201 709 196 q 747 215 737 206 q 763 237 756 224 q 779 268 771 251 q 812 228 795 248 q 845 188 829 208 q 804 109 831 146 q 743 45 778 72 q 667 3 707 18 q 584 -13 626 -13 q 482 4 522 -13 q 418 49 442 22 q 386 113 395 77 q 378 185 378 148 q 382 252 378 217 q 391 319 386 286 q 401 383 397 352 q 405 438 405 413 z "},"":{"ha":773,"x_min":-25,"x_max":845,"o":"m 418 1041 q 536 1043 477 1042 q 654 1045 595 1043 l 459 802 q 368 799 413 800 q 277 798 323 799 l 418 1041 m 405 438 q 403 474 405 457 q 396 507 401 492 q 382 530 391 521 q 359 538 372 538 q 320 519 337 538 q 293 472 303 500 l 246 0 l -25 0 l 48 727 l 319 736 l 312 674 q 391 724 349 709 q 475 739 433 739 q 625 681 578 739 q 672 524 672 624 q 667 451 672 489 q 657 377 662 413 q 646 309 651 341 q 641 254 641 278 q 644 233 641 243 q 652 214 647 222 q 666 201 657 206 q 690 196 675 196 q 723 201 709 196 q 747 215 737 206 q 763 237 756 224 q 779 268 771 251 q 812 228 795 248 q 845 188 829 208 q 804 109 831 146 q 743 45 778 72 q 667 3 707 18 q 584 -13 626 -13 q 482 4 522 -13 q 418 49 442 22 q 386 113 395 77 q 378 185 378 148 q 382 252 378 217 q 391 319 386 286 q 401 383 397 352 q 405 438 405 413 z "},"o":{"ha":780,"x_min":-8,"x_max":918,"o":"m 369 744 q 496 737 438 744 q 599 705 555 729 q 671 635 643 681 q 706 510 699 589 q 757 511 727 509 q 816 519 786 514 q 874 530 846 523 q 918 542 901 536 l 892 379 q 795 352 844 360 q 702 341 747 343 q 688 260 698 302 q 659 178 678 218 q 612 103 641 139 q 540 41 582 68 q 439 -2 497 14 q 304 -17 380 -17 q 168 -7 227 -17 q 71 35 110 4 q 12 120 32 65 q -8 264 -8 175 q -1 380 -8 322 q 23 492 6 438 q 67 591 39 545 q 137 671 95 637 q 236 724 179 705 q 369 744 293 744 m 451 410 q 378 464 411 435 q 322 525 345 494 q 288 474 302 504 q 265 412 274 444 q 252 349 256 379 q 247 296 247 318 q 248 268 247 286 q 254 230 248 249 q 274 196 260 210 q 314 181 288 181 q 379 205 353 181 q 421 264 405 229 q 442 339 436 299 q 451 410 449 378 z "},"":{"ha":356,"x_min":40,"x_max":324,"o":"m 313 -155 q 318 -197 315 -177 q 324 -239 321 -216 q 253 -282 292 -262 q 168 -302 215 -302 q 73 -269 107 -302 q 40 -184 40 -235 q 48 -137 40 -162 q 73 -86 56 -112 q 117 -35 90 -60 q 180 10 143 -10 q 229 7 205 9 q 279 3 253 5 q 251 -19 265 -6 q 226 -48 237 -32 q 208 -81 215 -63 q 201 -116 201 -99 q 218 -158 201 -141 q 254 -174 234 -174 q 283 -168 267 -174 q 313 -155 298 -163 z "},"p":{"ha":753,"x_min":-59,"x_max":697,"o":"m 216 -327 l -59 -306 l 47 738 l 326 747 q 322 718 323 729 q 317 689 320 707 q 382 727 344 709 q 471 746 419 746 q 574 724 531 746 q 644 664 616 703 q 684 572 671 626 q 697 453 697 518 q 695 370 697 418 q 683 271 693 322 q 653 170 673 220 q 599 80 634 120 q 510 16 563 40 q 381 -9 457 -9 q 297 3 326 -9 q 253 33 268 15 l 216 -327 m 306 185 q 355 203 335 185 q 387 249 374 221 q 407 308 399 276 q 417 368 414 340 q 421 414 420 396 q 422 434 422 433 q 405 525 422 498 q 365 551 388 551 q 334 542 350 551 q 306 516 319 533 q 287 359 295 437 q 269 202 279 281 q 283 190 273 195 q 306 185 292 185 z "},")":{"ha":539,"x_min":22,"x_max":509,"o":"m 509 537 q 506 461 509 510 q 495 350 503 412 q 473 216 487 287 q 435 71 458 144 q 379 -73 412 -3 q 301 -204 346 -144 q 197 -309 256 -264 q 65 -376 139 -354 q 43 -327 54 -352 q 22 -278 33 -303 q 42 -266 30 -273 q 72 -243 55 -258 q 148 -142 115 -206 q 203 -1 180 -79 q 242 164 227 77 q 266 336 257 252 q 279 497 275 421 q 282 631 282 574 q 278 741 282 686 q 266 847 274 796 q 243 943 257 898 q 208 1020 229 987 q 179 1070 193 1049 q 155 1107 166 1091 l 214 1197 q 323 1126 277 1172 q 402 1023 370 1081 q 456 900 435 965 q 488 769 477 834 q 504 644 500 704 q 509 537 509 583 z "},".":{"ha":461,"x_min":113,"x_max":414,"o":"m 414 115 q 374 23 414 58 q 263 -11 333 -11 q 153 23 193 -11 q 113 115 113 58 q 153 207 113 172 q 263 242 193 242 q 374 207 333 242 q 414 115 414 172 z "},"q":{"ha":745,"x_min":-5,"x_max":718,"o":"m 444 747 l 718 735 l 610 -305 l 336 -330 l 373 46 q 312 5 347 23 q 224 -13 277 -13 q 163 -1 189 -13 q 90 34 122 10 q 37 94 58 59 q 5 173 16 129 q -5 265 -5 216 q -3 340 -5 293 q 10 439 0 386 q 41 545 21 491 q 96 642 62 599 q 183 712 131 685 q 310 740 235 740 q 396 723 365 740 q 439 682 427 707 l 444 747 m 383 558 q 341 543 359 558 q 309 505 323 529 q 287 453 296 482 q 274 396 279 424 q 267 343 269 368 q 265 303 265 318 q 270 243 265 265 q 284 211 276 221 q 301 198 293 201 q 317 195 310 195 q 358 206 336 195 q 392 242 379 217 l 423 533 q 409 549 418 540 q 383 558 400 558 z "},"\"":{"ha":617,"x_min":49,"x_max":574,"o":"m 317 1048 q 264 873 301 951 q 170 736 227 796 q 147 740 163 736 q 111 750 130 745 q 74 760 92 755 q 49 767 56 766 q 77 829 67 794 q 93 902 88 865 q 102 977 99 940 q 108 1048 105 1015 l 317 1048 m 574 1048 q 520 873 557 951 q 426 736 484 796 q 403 740 419 736 q 367 750 386 745 q 330 760 348 755 q 305 767 313 766 q 333 828 323 793 q 349 901 343 863 q 357 977 354 938 q 365 1048 360 1015 l 574 1048 z "},"'":{"ha":461,"x_min":113,"x_max":381,"o":"m 381 1048 q 329 873 365 951 q 234 736 292 796 q 211 740 227 736 q 175 750 194 745 q 138 760 156 755 q 113 767 121 766 q 141 829 131 794 q 158 902 152 865 q 166 977 163 940 q 172 1048 169 1015 l 381 1048 z "},"r":{"ha":524,"x_min":-23,"x_max":607,"o":"m 585 497 q 551 523 571 511 q 509 541 531 534 q 463 552 486 548 q 418 556 439 556 q 381 549 401 556 q 342 532 360 543 q 312 509 325 522 q 296 484 299 496 l 247 0 l -23 0 l 51 736 l 321 746 l 312 649 q 343 682 325 665 q 385 714 362 700 q 436 738 409 728 q 495 747 464 747 q 557 731 527 747 q 607 693 587 715 l 585 497 z "},"":{"ha":440,"x_min":47,"x_max":393,"o":"m 393 993 q 382 934 393 962 q 349 884 372 905 q 293 851 326 863 q 214 839 259 839 q 142 850 173 839 q 90 881 111 861 q 58 926 69 900 q 47 983 47 952 q 58 1043 47 1014 q 91 1093 69 1071 q 146 1128 113 1115 q 224 1141 180 1141 q 297 1130 266 1141 q 350 1099 329 1119 q 382 1051 372 1078 q 393 993 393 1024 m 276 990 q 274 1010 276 1000 q 266 1027 272 1019 q 250 1039 260 1035 q 226 1044 240 1044 q 180 1026 194 1044 q 166 984 166 1007 q 178 951 166 964 q 216 938 191 938 q 261 952 247 938 q 276 990 276 966 z "},"s":{"ha":702,"x_min":-2,"x_max":793,"o":"m 793 205 q 697 124 749 162 q 583 56 644 85 q 455 8 523 26 q 313 -10 387 -10 q 172 13 232 -10 q 74 69 113 36 q 17 142 36 103 q -2 215 -2 181 q 15 303 -2 268 q 56 360 32 339 q 105 452 84 407 q 143 541 127 497 q 172 630 159 585 q 198 721 186 674 l 445 780 q 519 672 484 731 q 580 551 554 614 q 623 425 607 489 q 639 303 639 361 q 639 282 639 299 q 638 250 639 266 q 658 256 647 251 q 679 267 668 260 q 697 283 689 274 q 710 302 706 292 l 793 205 m 279 148 q 328 161 308 148 q 359 192 347 173 q 375 235 371 212 q 379 282 379 259 q 298 494 379 344 q 268 425 283 461 q 236 357 253 390 q 259 323 251 342 q 266 283 266 305 q 258 242 266 261 q 235 209 250 223 q 201 186 220 194 q 160 178 181 178 l 156 178 q 201 156 172 164 q 279 148 230 148 z "},";":{"ha":450,"x_min":104,"x_max":438,"o":"m 438 609 q 398 519 438 553 q 291 485 359 485 q 184 519 223 485 q 145 609 145 553 q 184 698 145 664 q 291 733 223 733 q 398 698 359 733 q 438 609 438 664 m 397 115 q 381 26 397 69 q 336 -54 365 -16 q 269 -123 308 -92 q 184 -174 230 -154 q 175 -164 182 -174 q 161 -145 168 -155 q 147 -124 154 -134 q 139 -109 141 -114 q 198 -54 174 -77 q 223 -11 223 -31 q 181 10 202 -1 q 143 36 160 22 q 115 69 126 50 q 104 112 104 87 q 115 163 104 140 q 145 204 126 187 q 193 231 165 221 q 254 240 220 240 q 359 205 322 240 q 397 115 397 170 z "},"/":{"ha":691,"x_min":6,"x_max":685,"o":"m 685 1035 q 414 430 549 731 q 145 -174 280 129 l 6 -174 q 276 430 141 129 q 546 1035 410 731 l 685 1035 l 685 1035 z "},"t":{"ha":418,"x_min":0,"x_max":485,"o":"m 418 727 l 400 541 l 296 541 l 266 257 q 266 253 266 255 q 266 248 266 251 q 268 229 266 239 q 276 211 270 219 q 290 197 281 202 q 313 192 299 192 q 348 199 331 192 q 379 217 365 206 q 403 242 393 228 q 418 268 413 255 l 485 188 q 443 115 472 151 q 375 52 414 80 q 289 7 336 24 q 194 -10 242 -10 q 100 10 137 -10 q 40 62 63 30 q 9 135 18 94 q 0 220 0 177 q 2 260 0 242 q 6 296 3 278 l 76 974 l 342 997 l 314 727 l 418 727 z "},"":{"ha":753,"x_min":-59,"x_max":688,"o":"m 216 -290 l -59 -306 q -6 195 -32 -54 q 49 696 21 444 q 55 766 53 733 q 57 831 57 799 q 27 985 57 911 l 230 995 q 263 957 247 977 q 290 913 279 937 q 309 859 302 889 q 317 791 317 829 q 316 740 317 766 q 314 687 316 714 q 380 724 341 708 q 471 740 418 740 q 576 717 534 740 q 642 656 617 694 q 678 567 668 618 q 688 460 688 516 q 686 375 688 424 q 674 273 684 326 q 645 169 664 220 q 592 78 626 118 q 508 12 559 37 q 385 -13 457 -13 q 300 2 331 -13 q 253 34 269 16 l 216 -290 m 302 185 q 351 205 331 185 q 384 253 371 225 q 404 313 397 282 q 416 367 411 345 q 420 399 418 382 q 422 434 422 417 q 405 525 422 498 q 365 551 388 551 q 333 542 350 551 q 305 514 317 532 l 264 204 q 277 191 268 197 q 302 185 286 185 z "},"":{"ha":688,"x_min":49,"x_max":640,"o":"m 438 852 q 372 860 403 852 q 311 877 340 868 q 252 894 281 886 q 191 902 222 902 q 139 891 163 902 q 94 849 115 880 l 49 878 q 124 1022 70 977 q 253 1068 178 1068 q 325 1061 293 1068 q 387 1045 358 1054 q 445 1030 417 1036 q 507 1023 474 1023 q 558 1032 535 1023 q 597 1066 582 1042 q 618 1053 608 1059 q 640 1039 629 1046 q 616 961 634 996 q 571 902 598 926 q 510 865 544 878 q 438 852 476 852 z "},"u":{"ha":794,"x_min":1,"x_max":862,"o":"m 795 268 q 829 228 812 248 q 862 188 845 208 q 818 109 847 146 q 750 46 788 73 q 668 3 711 18 q 582 -13 624 -13 q 465 19 509 -13 q 405 105 422 50 q 373 59 391 78 q 348 36 363 49 q 313 13 333 24 q 265 -6 292 2 q 205 -13 238 -13 q 110 5 148 -13 q 47 56 71 23 q 12 133 23 89 q 1 231 1 178 q 3 281 1 256 l 51 746 l 317 734 l 271 276 q 277 216 267 240 q 314 192 287 192 q 354 210 338 192 q 380 254 370 227 l 431 746 l 695 734 l 647 257 q 647 234 645 246 q 654 214 648 223 q 669 201 659 206 q 694 195 679 195 q 795 268 773 195 z "},"_":{"ha":831,"x_min":63,"x_max":767,"o":"m 63 0 q 70 70 66 39 q 78 125 74 102 l 767 125 q 760 51 764 82 q 753 0 757 20 l 63 0 z "}}}
